<?xml version="1.0" encoding="utf-8"?>
<!-- Generator: Adobe Illustrator 24.3.0, SVG Export Plug-In . SVG Version: 6.00 Build 0)  -->
<svg version="1.1" xmlns="http://www.w3.org/2000/svg" xmlns:xlink="http://www.w3.org/1999/xlink" x="0px" y="0px"
	 viewBox="0 0 1280 1024" style="enable-background:new 0 0 1280 1024;" xml:space="preserve">
<style type="text/css">
	.st0{display:none;}
	.st1{display:inline;fill:#DDD6C6;}
	.st2{display:inline;fill:#DDD6C7;}
	.st3{display:inline;fill:#DCD5C5;}
	.st4{display:inline;fill:#DFD7C7;}
	.st5{display:inline;fill:#DCD5CE;}
	.st6{display:inline;fill:#DCD4CE;}
	.st7{display:inline;fill:#D6D1C8;}
	.st8{display:inline;fill:#D6CDBC;}
	.st9{display:inline;fill:#14100D;}
	.st10{display:inline;fill:#C4BDB0;}
	.st11{display:inline;fill:#241F15;}
	.st12{display:inline;fill:#1E1C13;}
	.st13{display:inline;fill:#CDC9B9;}
	.st14{display:inline;fill:#24201C;}
	.st15{display:inline;fill:#18120D;}
	.st16{display:inline;fill:#27201B;}
	.st17{display:inline;fill:#3A362D;}
	.st18{display:inline;fill:#E8E4D3;}
	.st19{display:inline;fill:#C8C5B0;}
	.st20{display:inline;fill:#2B271B;}
	.st21{display:inline;fill:#D0CDBE;}
	.st22{display:inline;fill:#161310;}
	.st23{display:inline;fill:#D6D3CB;}
	.st24{display:inline;fill:#262121;}
	.st25{display:inline;fill:#2C2723;}
	.st26{display:inline;fill:#D9D3C5;}
	.st27{display:inline;fill:#302D28;}
	.st28{display:inline;fill:#2A1E1C;}
	.st29{display:inline;fill:#EEEADC;}
	.st30{display:inline;fill:#70339E;}
	.st31{display:inline;fill:#D0CFBC;}
	.st32{display:inline;fill:#F2F2DB;}
	.st33{display:inline;fill:#0F0B08;}
	.st34{display:inline;fill:#CAC4B5;}
	.st35{display:inline;fill:#E1DED7;}
	.st36{display:inline;fill:#0D0806;}
	.st37{display:inline;fill:#D8D2C4;}
	.st38{display:inline;fill:#D9D2CA;}
	.st39{display:inline;fill:#D8D3CE;}
	.st40{display:inline;fill:#DED4D3;}
	.st41{display:inline;fill:#D6D3C7;}
	.st42{display:inline;fill:#D7D1C5;}
	.st43{display:inline;fill:#D9D3CE;}
	.st44{display:inline;fill:#DCD7D0;}
	.st45{display:inline;fill:#57367E;}
	.st46{display:inline;fill:#DDD4D8;}
	.st47{display:inline;fill:#FEFEFE;}
	.st48{display:inline;}
	.st49{fill:#131D30;}
	.st50{fill:#161F34;}
	.st51{fill:#192542;}
	.st52{fill:#18233C;}
	.st53{fill:#1C2340;}
	.st54{fill:#1E294D;}
	.st55{fill:#1B233D;}
	.st56{fill:#182237;}
	.st57{fill:#292658;}
	.st58{fill:#1F2545;}
	.st59{fill:#262751;}
	.st60{fill:#272758;}
	.st61{fill:#512187;}
	.st62{fill:#35236B;}
	.st63{fill:#302560;}
	.st64{fill:#23264A;}
	.st65{fill:#532587;}
	.st66{fill:#29274F;}
	.st67{fill:#272B48;}
	.st68{fill:#59317D;}
	.st69{fill:#47336E;}
	.st70{fill:#D6D3CF;}
	.st71{fill:#E0D6DA;}
	.st72{fill:#542F6C;}
	.st73{fill:#DCD5C5;}
	.st74{fill:#CCC2C0;}
	.st75{fill:#111B2C;}
	.st76{fill:#D6D3C7;}
	.st77{fill:#19202F;}
	.st78{fill:#161E2B;}
	.st79{fill:#162138;}
	.st80{fill:#DDD6C6;}
	.st81{fill:#1C2749;}
	.st82{fill:#222530;}
	.st83{fill:#212A54;}
	.st84{fill:#60269E;}
	.st85{fill:#6C23A8;}
	.st86{fill:#6525A3;}
	.st87{fill:#3A2B7C;}
	.st88{fill:#452B89;}
	.st89{fill:#3D2C81;}
	.st90{fill:#412B85;}
	.st91{fill:#562B99;}
	.st92{fill:#742CAD;}
	.st93{fill:#4F3289;}
	.st94{fill:#6A348F;}
	.st95{fill:#242650;}
	.st96{fill:#232241;}
	.st97{fill:#2E285B;}
	.st98{fill:#2A2860;}
	.st99{fill:#562291;}
	.st100{fill:#252B5C;}
	.st101{fill:#312D72;}
	.st102{fill:#292B63;}
	.st103{fill:#362D78;}
	.st104{fill:#372975;}
	.st105{fill:#2C2B69;}
	.st106{fill:#4B346F;}
	.st107{fill:#4A2B8E;}
	.st108{fill:#4F2A92;}
	.st109{fill:#552794;}
	.st110{fill:#5C2397;}
	.st111{fill:#89549C;}
	.st112{fill:#5A279A;}
	.st113{fill:#7520AA;}
	.st114{fill:#7221AE;}
	.st115{fill:#7920AF;}
	.st116{fill:#7622B2;}
	.st117{fill:#2F2B6C;}
	.st118{fill:#5A2699;}
	.st119{fill:#372C7A;}
	.st120{fill:#18233D;}
	.st121{fill:#232A58;}
	.st122{fill:#7721B0;}
	.st123{fill:#1D2441;}
	.st124{fill:#2A265B;}
	.st125{fill:#262755;}
	.st126{display:inline;fill:#1F1814;}
	.st127{display:inline;fill:#1B1910;}
	.st128{display:inline;fill:#211E19;}
	.st129{display:inline;fill:#1B1715;}
	.st130{display:inline;fill:#1A1512;}
	.st131{display:inline;fill:#353028;}
	.st132{display:inline;fill:#241F16;}
	.st133{display:inline;fill:#CAC3B4;}
	.st134{display:inline;fill:#C7C6B3;}
	.st135{display:inline;fill:url(#SVGID_1_);}
	.st136{font-family:'BROWNIEBUSTER';}
	.st137{font-size:24.7083px;}
	.st138{fill:url(#SVGID_2_);}
	.st139{display:inline;fill:url(#SVGID_3_);}
	.st140{display:inline;fill:url(#SVGID_4_);}
	.st141{display:inline;fill:#343534;}
	.st142{display:inline;fill:#59B220;}
	.st143{font-family:'Sohungry';}
	.st144{font-size:17.868px;}
	.st145{font-family:'FONTSPRINGDEMO-neueRadialBRegular';}
	.st146{font-size:21.1316px;}
	.st147{fill:#FFFFFF;}
</style>
<g id="Layer_2" class="st0">
	<path class="st1" d="M197.7,888.6c0-250.2,0-500.5-0.1-750.7c0-2.8,0.6-3.4,3.4-3.4c250.3,0.1,500.6,0.1,750.9,0.1
		c0.7,1.3,0.3,2.7,0.3,4c0,248.6,0,497.3,0,745.9c0,5.1,0.5,4.5-4.5,4.5c-248.7,0-497.4,0-746.1,0C200.4,889,199,889.3,197.7,888.6z
		"/>
	<path class="st2" d="M596.2,607.3c1.5-2,0.4-3.4-1.2-4.6c-2-1.6-4-0.9-5.7,0.4c-0.9,0.6-1.4,1.7-2.2,2.5c-2.3,2.3-4.5,2.2-6-0.6
		c-1.6-3-4.2-3.6-7.1-3.6c-4.7,0-8.9-2.3-13.6-2.8c-2.6-0.2-4.7-3.7-8.2-3c-0.2,0-0.6-0.4-0.7-0.7c-0.1-0.7,0.3-1.3,0.9-1.4
		c2.6-0.5,4.1-2.5,6.1-4c1.3-1,2.7-1.8,4.4-0.9c0.2,0.1,0.5,0.1,0.7,0.1c2.5-0.2,6.2,0.2,6.6-2.5c0.4-2.3-3.4-2.5-5.6-3.4
		c-2.1-0.9-4.9,0.1-6.2-2.6c-0.1-0.2-0.5-0.3-0.6-0.3c-1.7,0.9-3.2,0.6-4.5-0.8c-0.2-0.8,0.3-1.2,0.9-1.5c3.4-1,6.5,0.7,9.9,0.8
		c5.1,1.7,10.3,0.2,15.4,0.6c2.1,0.2,4.3,1,6.4,0c0.5-0.2,1-0.3,1.5-0.3c2.7,1,5.5-0.2,8.2,0.2c4.1,0.6,8,2.9,12.3,1.1
		c1.3-0.5,2.7-1,3.5-2.4c3.1-2.5,6-5.2,9.4-7.3c0.9-0.5,1.7-1.5,2.9-0.9c1.1,1.2,1.2,2.7,1.3,4.2c-0.1,2.1-1.1,4-1.9,5.9
		c-0.5,1.2-1.1,2.4-1.1,3.8c-0.1,3.3,0.2,3.6,3.4,3.3c1.5-0.1,3-1,4.6-0.2c-0.3,2.8-2,4.3-4.5,5.7c-5.8,3.3-11.7,6.2-18.1,8.4
		c-2.5,0.9-3.6,2.4-2.1,5.4c1,2,1.4,4.2,3.3,5.6c-1.5,2.3-3.6,3.1-6,1.8C600,612.1,595.9,611.9,596.2,607.3z"/>
	<path class="st3" d="M524.8,566.1c-1.3,0.1-2.4-0.5-3.3-1.3c-2-1.7-3-1.9-3.1,1.3c-0.1,3.5,1.7,6.4,5.5,8.2c1,0.5,3,0.7,2.5,2.1
		c-0.7,1.5-2.5,0.8-3.9,0.2c-10.3-3.9-18.2-10.8-24.1-20c-3.6-5.6-5.5-11.9-7.4-18.2c-0.2-0.8-0.3-1.8-0.8-2.4
		c-4.1-5-3.5-10.7-2.7-16.4c0.8-5.2,0.7-10.5,0-15.7c-0.7-5.1,0.1-9.9,2.3-14.6c1.7-3.6,2.5-7.6,3.7-11.5c0.5-1.6,1.2-3.2,2.3-4.6
		c3.8-4.8,3.8-4.9,9.8-2.8c1.7,2.7-0.5,4.8-1.2,7.1c-1.7-0.6-1.2,0.3-0.9,1.2c0.5,1.6-0.1,3.1-0.8,4.6c-0.6,1.5-0.4,3.1-0.5,4.7
		c-4.1,14-4.1,28.2-1.2,42.3c1,4.7,3.5,9.3,6.2,13.5c3.8,6,8,11.7,13.4,16.4C522.4,561.6,525.1,562.9,524.8,566.1z"/>
	<path class="st4" d="M630.1,586.7c-2.2,2.1-5.1,1.4-7.6,1.9c-1.7,0.3-1.8-1.5-1.9-2.9c-0.4-4.4,2.1-7.8,3.7-11.6
		c0.8-1.7,2.3-2.5,3.7-3.5c7.4-5.4,13.8-11.6,18.7-19.4c0.8-1.2,1.4-2.6,2-3.9c0.4-0.9,0.5-2.3,2.1-2c1.3-0.8,2.6-1.7,2.9-3.2
		c0.9-5.8,5.1-10.2,6.6-15.8c0.6-2.5,1.8-2.7,3.5-0.9c1,1.1,2.3,2.2,2.3,3.6c-0.1,6.4,1.5,13.2-1.8,19c-2.9,5.1-5.6,10.6-9.6,15.1
		c-4.2,4.6-8.6,9-14.5,11.5c-4,1.7-5.9,5.7-8.2,9.1C631.2,584.8,630.7,585.8,630.1,586.7z"/>
	<path class="st3" d="M618.3,415.1c3.7-2.9,9.7-1.3,11.6,3c0,0.1,0.1,0.2,0.1,0.4c0.2,2.7,4.1,4.2,2.2,7.6c-2.3,4.1-5,7.8-9.6,9.6
		c-2.4,0.9-4.4,2.5-6.5,4.1c-3.7,2.9-8.5,3.4-12.7,3.9c-6.7,0.8-12.5,2.4-17.3,7.4c-1.5,1.5-1.6,3.9-3.9,4.7
		c-0.1-0.1-0.3-0.2-0.4-0.3c-1.3-2.4-0.1-4.2,1.2-6c6.5-9.1,14.4-16,25.5-19.2c4.7-1.4,9.3-3.7,13.4-6.7c0.5-0.4,1-0.7,1.4-1.2
		c1-1,2.4-2.2,1.8-3.7c-0.5-1.3-2.2-0.7-3.3-0.8c-0.5-0.1-1-0.1-1.4-0.2C619.4,416.8,618,416.7,618.3,415.1z"/>
	<path class="st3" d="M586.6,625.8c-0.8,0.5,0.1,3.1-2.7,1.5c-2.2-1.2-5.2,0.9-7.6,2.2c-2.1,1.2-3.9,1.8-6.2,0.6
		c-1.2-0.7-2.2-0.5-2.6,0.9c-1.3,4.7-4.8,6-9,5.9c-6.2-0.2-12.5-0.5-17-5.7c-1.1-1.3-1.5-2.5-0.6-3.9c0.3-1.6,1.9-1.7,2.8-2.5
		c0.7-0.5,1.4-0.9,2.3-1.1c0.3-0.1,0.7-0.1,1-0.1c2.4,0.3,4.9,0.3,7.2,1c1.2-0.1,1.7-1,2.2-1.9c1.3-1.5,2.4-0.5,3.5,0.3
		c0.2,0,0.4-0.1,0.4-0.3c0-0.2,0-0.3,0-0.4c3.2-2.7,2.1-5.4,0-8.1c0.8-2.6,2.1-3.3,4.5-1.6c1.2,0.9,2.2,1.9,2.8,2.8
		c-0.8-1.7-0.3-2.8,2.1-2.8c2.5,0.6,4.9,0.3,7.4,0c0.2,0.2,0.5,0.5,0.6,0.8c0.1,0.3,0.2,0.7,0.2,1c0,0.4-0.1,0.7-0.2,1
		c-0.5,1.1-0.2,2.5-1.4,3.3c-1.3,0.3-2.1-0.5-2.9-1.2c-1.8-1.8-2.3-0.8-2.6,1.1c-0.3,1.8,0.8,4-1.4,5.3c-0.5,0.1-0.8,0.9-0.6,1.7
		c0,0,0.1,0,0.2,0c0-0.1-0.1-0.1-0.3-0.1c-0.5-0.2,0.4-0.7,0.1-0.3c0.5-0.8,1.7-0.7,2-1.7c0.7-1,0.6-2.4,1.6-3.4
		c1.6-0.7,2,0.8,2.9,1.5c1.1,0.9,1.8,2.3,3.3,2.6c0.9,0.2,1.6-0.4,2.3-0.9C584.4,620.5,585.9,621.2,586.6,625.8z"/>
	<path class="st3" d="M596.2,607.3c3.4,4.8,7.2,6.1,12.5,4.4c1.8,0.8,2.6,2.6,3.5,4c1.7,3,5.7,2.3,7.4,5.5c2,3.6,1.6,8.7-1.8,11
		c-6.1,4.1-15.7,2-19.5-4.4c-0.7-1.1-1.4-2-2.8-2.1c-0.5-0.6-0.7-1.2-0.4-2c1.5-1.5,3.3,0.2,4.9-0.4c2.5,0.4,5,1.4,7.4-0.3
		c2.7-2,1.1-4.2,0.3-6.3c-1.9-3.5-4.6-0.8-6.9-0.8c-1.6-0.7-3.5-0.1-4.9-1.4c-0.5-0.6-0.4-1.4-0.9-2c-0.6-0.5-1.4-0.4-2.1-0.6
		c-0.8-0.2-1.5-0.6-2.4-0.6c-0.7-0.1-1.3-0.4-1.7-1C590.9,605.3,591.5,605,596.2,607.3z"/>
	<path class="st5" d="M650.7,545.4c-5.2,12.9-14.6,22-26.5,28.7c-0.8-1.4-0.8-2.9-0.7-4.4c-3.8-1.3-3.8-1.3-1.6-5.5
		c0.3-0.5,0.6-0.9,1.1-1.2c5.8-3.5,9.5-9,13.6-14.1c1-1.3,1.8-3,3.7-3.2c2.7,0.9,4.9,0.1,6.6-2.2c0.8-1,1.4-2.4,3.1-1.7
		C649.9,543.1,650,544.3,650.7,545.4z"/>
	<path class="st6" d="M618.3,415.1c0.7,0.5,1.5,1,2.2,1.4c-0.9,1.3-2.4,1-3.7,1.1c-6.2,0.7-12.4-0.4-18.6,0
		c-8.6,0.6-17.2,1.3-25.5,4c-1.9,0.6-3.9,0.8-5.7,1.6c-4.9,0.8-9.2,3.3-13.8,5.1c-4.3,1.5-8,4.1-11.8,6.5c-3.1,1.4-5.5,3.8-8.2,5.9
		c-3.5,2.1-6,5.2-8.7,8.1c-6.7,6-11.4,13.4-15.1,21.5c-0.6,1-0.8,2.2-1.5,3.1c-0.6,0.9-1.2,1.9-1.4,3c-0.2,0.6-0.5,1.2-0.7,1.9
		c-0.9,2.2-1.4,4.6-2.1,6.9c-0.3,1.1-0.7,2.1-1.6,2.8c-0.4,0.2-0.7,0.1-1-0.1c-0.8-3.8,1.1-7.4,1.8-10.9c0.5-2,1.9-4.4,2.6-6.8
		c4.4-7.3,8.4-14.9,14-21.4c2-2.4,4.1-4.9,6.5-6.8c9.8-7.6,19.9-14.7,31.5-19.1c9.7-3.6,19.8-5.7,30.2-6.6
		C598,415.7,608.1,414.9,618.3,415.1z"/>
	<path class="st3" d="M535.8,625c-2.4,4.4-6.8,5-11,5.3c-3.2,0.2-5.8-4.7-5-8.5c0.7-3.6,3-6.2,5.6-8.4c3.9-3.2,7.8-1.6,9,3.3
		c0.1,0.6,0.5,1.1,0.7,1.6C536.2,620.5,536.8,622.6,535.8,625z"/>
	<path class="st3" d="M643.3,479.9c-0.9-3.7-2.8-7-4.7-10.3c-1.7-0.5-2.3-2.2-3.5-3.3c-0.7-0.9-1.2-2-1.7-3
		c-1.2-2.4-3.4-4.2-4.1-6.9c1.8-2.1,3.4-0.8,5,0.2c8.1,5.4,12.5,13.1,13.3,22.8c0.3,3.5,3.1,6.5,2,10.2c-0.1,0.3-0.2,0.6-0.4,0.9
		c-1.7-0.8,0.3-4.5-3.1-3.8c-2.5-0.6-2-3.1-2.8-4.7C643.3,481.3,643.3,480.6,643.3,479.9z"/>
	<path class="st7" d="M649.3,516.8c0.2-0.1,0.4-0.2,0.5-0.4c0.1,0.5,0.2,1.1,0.3,1.9c0.9-1.4,0.1-2.9,1.2-3.8c2.9,6,3,12.2,0.7,18.4
		c-0.8,1.9-0.2,4.1-1.5,5.9c-0.2,1-0.5,2-0.7,2.9c-1,0.5-1.6,1.4-2.2,2.4c-1.6,3.2-4.5,3.9-7.7,1.9c-0.8-1.4,0-2.6,0.6-3.7
		c3.7-6.3,6-13.3,7.9-20.3C649.2,520.3,648.3,518.4,649.3,516.8L649.3,516.8z"/>
	<path class="st2" d="M535.8,625c-0.8-2.1-1.5-4.3-0.7-6.6c0-1.2-0.1-2.5,0-3.7c0.3-4.8,7.1-8.3,11.4-5.9c2.5,1.4,1.6,2.8,0.3,4.4
		c-1.3,1.4-3.2,0.6-4.7,1.4c-0.5,0.3-1.1,0.6-1.6,1c-0.8,0.5-1.4,1.2-2.1,1.8c-0.4,0.4-0.5,0.9-0.3,1.5c0.1,4.2,3.7,4.9,6.3,6.7
		c-0.8,1.3-2.5,0.8-3.6,1.7C539.4,626.2,537.9,624.8,535.8,625z"/>
	<path class="st2" d="M569.7,612.5c-3.6,1.3,0,4-1,6c-3.2-5.4-5.5-6.6-7.8-4.4c-0.5,0.7-1.3,0.8-2,0.8c-1.4-0.1-2.8-0.7-4.3-0.5
		c-0.8-0.3-2.4,0.8-2.5-1.1c2.8-1.6,5.6-3.5,8.4-4.6c2.2-0.9,6.3-1.4,9.2,1C571,610.8,570.8,611.5,569.7,612.5z"/>
	<path class="st8" d="M577,613.9c0-0.2,0-0.5,0-0.7c1.2-0.5,2.5-0.7,3.7,0c0.6,3.5,3.7,1,5.2,2.2c3,2.7,1.8,6,1.5,9.3
		c-0.2,0.4-0.5,0.7-0.8,1.1c0,0,0,0,0,0c-0.7-0.1-0.9-0.5-1.1-1.2c-0.7-2.5-1.8-3-3.7-0.8c-0.7,0.8-1.6,2.5-3.3,1.1
		c-0.6-1-0.2-2.1-0.3-3.2C577.9,619.1,578.9,616.3,577,613.9z"/>
	<path class="st3" d="M533.6,572c2,0.1,3.6,2.4,5.9,0.9c1.5-1.1,2.3,0,3,1.1c0.8,0.8,1.8,0.9,2.8,1.1c1.1-0.4,1.9,0,2.3,1
		c0.5,0.3,1,0.6,1.4,0.9c-2.1,2.5-5.9,3.2-8.6,1.1C538,576.3,535.9,574.1,533.6,572z"/>
	<path class="st9" d="M586.6,625c-0.5-3.2,0.1-6.5-0.7-9.6c0.2-0.1,0.2-0.3,0.1-0.5c0.9-1.2,2.2-1.4,3.6-1.3c1.1,0,2.2-0.1,3.2,0.1
		c2.3,0.3,3.2,1.4,2,3.7c-0.6,0.6-1.3,0.7-2.1,0.2c-0.2-0.1-0.3-0.3-0.4-0.5c-0.1-0.2-0.1-0.4-0.2-0.6c-0.2,0.1,0,0.4-0.1,0.6
		c-0.4,0.7-1.1,1-1.6,1.4c0,0.1-0.1,0.2-0.1,0.2c0.1,0.1,0.3,0.2,0.5,0.2c1.1,0,2.2,0,3.2,0.6c2.4,2.4,0.4,3.2-1.4,4
		c1.1,0.2,2.6-0.1,2.2,1.9C592,625.5,589.3,625.6,586.6,625z"/>
	<path class="st3" d="M652.2,532.9c0.7-6.2,0.2-12.3-0.7-18.4c0.1-0.7,0.5-1.2,1.2-0.6c2.7,2.6,2.6,16.1-0.1,18.8
		C652.4,532.8,652.3,532.9,652.2,532.9z"/>
	<path class="st2" d="M589.5,614.5c-1.2,0.3-2.5-0.4-3.6,0.4c0.3-0.9,0-1.6-0.6-2.3c-0.7-0.8-0.8-1.9,0.1-2.6c1.2-0.9,2,0,2.6,1
		c1.3,0.8,2.1,0.1,2.9-0.7c0.8,0.3,1.5,0.5,2.3,0.8c0.7,1.1,1.9,0.4,2.8,0.7c1,0.7,0.4,1.5,0.1,2.2
		C594.1,615.3,591.7,613.4,589.5,614.5z"/>
	<path class="st3" d="M531,578.9c3.3,0.3,5.3,1.1,7.2,2.1c0.9,0.5,2.2,1.2,1.5,2.5c-0.7,1.4-2,1.1-3.2,0.6
		C534.4,583.1,533.1,581.5,531,578.9z"/>
	<path class="st3" d="M552,613.2c0.7,0.7,1.5-0.1,2.2,0c0.1,0.1,0.2,0.3,0.3,0.4c0,0.2,0,0.4,0,0.5c-0.7,2.7-2.2,3.5-4.8,2
		c-1.4-0.8-2.9-1.2-4.5-0.9c-1.2-0.4-2.8,0.1-3.6-1.4c1.6-1.6,3.4-0.7,5.2-0.6C548.6,612.9,550.3,612.7,552,613.2z"/>
	<path class="st10" d="M586.6,625c2.7-0.5,5.6,0.9,8.1-0.8c-0.4-0.3-1-0.5-0.9-1.2c0.9-0.9,1.5-1,1.7,0.5c0,0.7,0,1.4-0.1,2.2
		c-2.9,0-5.9,0-8.8,0C586.6,625.5,586.6,625.3,586.6,625z"/>
	<path class="st11" d="M591,610.2c-0.1,1.4-0.9,2.2-2.3,2.2c-1.2,0-0.7-0.9-0.7-1.5c0.2-0.2,0.5-0.5,0.7-0.7
		C589.6,610.3,590.3,610.3,591,610.2z"/>
	<path class="st3" d="M528.4,568.3c0.5,0.2,1,0.5,1.5,0.7c0.5,1.7-0.6,1.7-1.5,1.2C527.6,569.8,526.7,568.9,528.4,568.3z"/>
	<path class="st2" d="M580.7,613.2c-1.2,0-2.5,0-3.7,0c0-0.2,0-0.5,0-0.7C578.3,612.7,579.8,611.3,580.7,613.2z"/>
	<path class="st12" d="M558.6,613.8c0.7,0.1,1.5,0.1,2.2,0.2c3.9,2.9,4,3.9,0.5,7.6c-0.8,0.8,0.3,1.2,0.5,1.8
		c-0.4,0.8-0.9,1.3-1.8,0.9c-1.2-0.2-1.3-2.3-2.9-1.8c-0.3,1.9-0.5,3.9-3.3,2.3c-2.2-3.7-0.8-7.3,0.5-10.9l0,0
		C555.7,613.3,557.2,613.5,558.6,613.8z"/>
	<path class="st13" d="M554.3,614c0,3.7,0,7.4-0.1,11c0.5,0.3,0.5,0.5,0,0.7c-2.3-1.3-5.1,0.2-7.3-1.5c-0.2-0.3-0.4-0.7-0.3-1
		c1.9-2.8,1.3-5.4-0.6-7.8c-0.3-0.4-0.3-0.9-0.1-1.4c1.5-0.4,2.8,0.5,4.2,0.9C551.7,615.4,553.2,615.7,554.3,614z"/>
	<path class="st14" d="M579.1,622c0.4,1.1,0,2-0.6,2.8c-3.7,0.2-3.6-3.7-5.8-5.2c-1.3,1.4,0.3,3.2-0.9,4.6c-0.7,1.2-1.8,1.1-2.9,0.6
		c-0.4-0.4-0.5-0.8,0-1.2c0.9-2.5,0.3-5.1,0.6-7.6c0.1-0.8-0.5-1.8,0.7-2.2c1-0.4,1.9,0,2.6,0.8c1.1,1.3,2.2,2.6,3.3,3.9
		c0.1,0.1,0.2,0.2,0.4,0.3c0.1,0.1,0.1,0.3,0.2,0.4c0.1,1.1,0.3,2.1,1.7,2.3C578.7,621.7,578.9,621.8,579.1,622z"/>
	<path class="st15" d="M545.9,614.1c4.2,3.8,4.4,6,1,10.2c-0.3,0-0.5,0.1-0.8,0.1c-0.8-0.2-1.2-0.7-1.4-1.5c0.4-5,0.4-5-4.5-4.1
		c-2.8-1.3-0.1-2.7-0.1-4.1c0.1-0.9,1-0.5,1.5-0.8C543.1,613.9,544.5,614,545.9,614.1z"/>
	<path class="st16" d="M545.3,622.6c0.3,0.6,0.6,1.2,0.8,1.7c-0.5,0.4-1,0.8-1.6,1.2c-6.1-0.6-7-1.5-7.3-7.2
		c-0.1-0.6,0.2-1.1,0.6-1.5c0.7-0.7,1.5-1.5,2.2-2.2c1.2,1.2-1.4,2.5,0,3.7C541.7,620,543.4,621.4,545.3,622.6z"/>
	<path class="st17" d="M579.1,622c-0.2,0-0.4,0-0.6,0c-0.3-0.2-0.5-0.5-0.5-0.8c0.2-1.1,0.1-2.1,0.2-3.6c0-0.1-0.7,0.3-0.2,0.3
		c0,0,0,0,0,0.1c0.1,1.1,0.7,2.4-1,2.9c-1-0.1-1.1-0.8-1-1.6l0.3-0.2c0.9-1.4-0.1-3,0.6-4.4c0-0.3,0.1-0.5,0.1-0.8
		c1.9-0.3,2.3,0.8,2.2,2.4C579.2,618.2,579.2,620.1,579.1,622z"/>
	<path class="st2" d="M569,623.7c0,0.4,0,0.8,0,1.2c0.7,0.4,1.3,0.9,2.1,1.3c-2.9-0.3-3.4-1.3-2.8-6
		C569.3,621.3,568.8,622.6,569,623.7z"/>
	<path class="st18" d="M571.8,624.3c-0.1-1.7-0.2-3.4-0.3-5c0-0.6,0.2-1,0.8-0.5c0.2,0.2,0.3,0.6,0.4,1
		C572.4,621.2,573.1,622.9,571.8,624.3z"/>
	<path class="st19" d="M554.2,625.7c0-0.2,0-0.5,0-0.7c2.6,1,2.2-1.3,2.8-2.5C557.6,624.8,556.8,626.1,554.2,625.7z"/>
	<path class="st20" d="M560,624.3c0.6-0.3,1.2-0.6,1.8-0.9c0.7,0.2,1.7,0.8,1,1.4C562.1,625.4,560.7,625.5,560,624.3z"/>
	<path class="st2" d="M576.9,614.7c0.1,1.5,1,3.2-0.6,4.4c-0.1-0.2-0.1-0.4-0.1-0.6C576.4,617.3,576,615.8,576.9,614.7z"/>
	<path class="st21" d="M595.5,623.6c-0.4-0.6-1-0.8-1.5-0.2c-1.4,0.9-2.9,0.5-4.4,0.3c-0.5-0.2-1.3,0-1.4-0.8
		c-0.1-0.6,0.4-0.8,0.9-0.8c1.3-0.1,2.7-0.1,4-0.3c1.1-0.2,1.9-0.6,0.7-1.8c-0.1-0.8-0.1-1.6,0.1-2.3c1.4-2,1.4-3.3-1.6-3.1
		c-0.9,0.1-1.9,0-2.8,0c-0.4-1,0-1.5,1-1.1c1.9,0.7,3.8,0.4,5.7,0.5c1.2,1.3,3.8-1.4,4.5,1.5c0.7,2.2,2.2,3.8,3.4,5.7
		c0.1,0.5-0.1,1-0.4,1.4c-0.2,0.3-0.5,0.5-0.7,0.6c-0.7,0.4-1.5,0-2.2,0.3c-0.2,0.2-0.5,0.3-0.7,0.5
		C598.3,626,597,624.3,595.5,623.6z"/>
	<path class="st22" d="M603.5,621.3c-2.2-1.4-4.5-2.7-2.9-5.9c3.6-2.6,6-2.4,7.9,0.6c-1.4,1.1-3.2,2-1,4c-0.1,1.1-0.8,1.7-1.8,2
		C604.9,622.2,604.1,622,603.5,621.3z"/>
	<path class="st23" d="M607.2,619.9c-1.6-0.6-4.4-0.9-4-2.6c0.6-2.6,3.6-0.6,5.3-1.3c2,3.1,1.8,6.5-0.6,8.2
		C606.8,622.9,608,621.3,607.2,619.9z"/>
	<path class="st24" d="M607.2,619.9c2.9,1,1.3,2.7,0.7,4.3c-2.7,1.9-5.4,1.4-7.9-0.3c0-0.2,0-0.3,0.1-0.5c0.6-1.8,1.9-0.1,2.8-0.5
		l0-0.3c0.9-0.5,2.1-0.4,2.8-1.3C606.2,620.9,606.7,620.4,607.2,619.9z"/>
	<path class="st25" d="M596.1,611.7c-0.9,0.5-1.8,1.2-2.9,0.6c-0.2-0.1,0-0.8,0.1-1.3C594.3,611.2,595.5,610.3,596.1,611.7z"/>
	<path class="st3" d="M538,616.9c-0.2,0.5-0.4,1-0.6,1.5c-0.6-0.1-1.4-0.2-1.1-1.1C536.5,616.3,537.3,616.6,538,616.9z"/>
	<path class="st13" d="M558.6,613.8c-1.5,0-2.9,0.1-4.4,0.1c0-0.3,0-0.5,0-0.8C555.7,613.3,557.3,612.8,558.6,613.8z"/>
	<path class="st26" d="M593.9,617.6c1.9,0.9,0.6,1.6-0.1,2.3c-1.4,0-2.8-0.1-4.3-0.1c-0.6-0.6-0.4-1.6-0.9-2.3
		c0.8-1.2,2.1-0.2,3-0.8c0.3-0.2,0.6-0.2,0.8,0.1C593,617.1,593.5,617.3,593.9,617.6z"/>
	<path class="st27" d="M592.5,616.8c-0.3,0-0.5-0.1-0.8-0.1c-0.9-0.3-1.7-0.6-2.6-0.9C591.7,615.3,591.7,615.3,592.5,616.8z"/>
	<path class="st28" d="M589.6,623.6c1.5-0.1,2.9-0.2,4.4-0.3c0.5,0.1,0.8,0.4,0.8,0.9C593,624.1,591.2,624.7,589.6,623.6z"/>
	<path class="st29" d="M588.7,617.5c0.9,0.5,0.8,1.4,0.9,2.3C587.4,619.8,588.7,618.4,588.7,617.5z"/>
	<path class="st30" d="M578.5,449c-0.2,0-0.5,0-0.7,0c0-0.7,0-1.5,0-2.2c1.1-1,2.1-2.1,2.2-3.7c0-2.8,2.5-4,3.8-6
		c3-3.3,7.1-5.1,10.7-7.6c4.3-2.8,9.2-4.5,13.8-6.9c1.2-0.7,2.7-1.4,4.1-0.2c0.6,0,1.2,0.1,1.8,0.1c-6.6,3.4-13.5,6.1-19.8,10.3
		C587.9,437.1,581.7,441.5,578.5,449z"/>
	<path class="st31" d="M558.8,619.9c-0.8,0.4-1.9,1.1-2.2-0.4c-0.2-1,0.1-2.2,1.3-2.8c1.2-0.6,2.4-0.5,3.2,0.7
		c0.8,1.2,0.6,2.1-1,2.3C559.6,619.6,559.1,618.9,558.8,619.9z"/>
	<path class="st32" d="M558.8,619.9c-0.2-0.3-1.2-0.2-0.8-0.7c0.8-0.9,1.6-0.5,2.1,0.5C559.7,619.8,559.2,619.9,558.8,619.9z"/>
	<path class="st33" d="M576,619.3c0.3,0.4,0.7,0.9,1,1.3c0.5,0.3,1.2,0.1,1.5,0.7c0,0.2,0,0.5,0.1,0.7c-0.2,0.6-0.4,1.4-1,1.1
		C576.1,622.3,575.2,621.1,576,619.3z"/>
	<path class="st34" d="M545.3,622.6c-4.1,0.5-4.8-0.1-5.1-4.3c1.6-1.1,3.1-3.1,5.3-1.2C547.5,619,546.5,620.8,545.3,622.6z"/>
	<path class="st14" d="M578.5,621.3c-0.5-0.2-1-0.4-1.5-0.7c1.2-0.9,0.5-2.5,1.5-4.6C578.5,618.5,578.5,619.9,578.5,621.3z"/>
	<path class="st35" d="M605.6,621.4c0.1,2.8-1.6,1.5-2.8,1.3c0.3-0.4,0.5-0.9,0.8-1.3C604.2,621.3,604.9,621.3,605.6,621.4z"/>
	<path class="st36" d="M602.8,623c-0.8,0.9-1.9-0.3-2.8,0.5c0-0.4-0.2-1.1,0-1.2C601.2,621.5,602,622.4,602.8,623z"/>
	<path class="st37" d="M591.6,506.5c3.9,2.6,3.8,8.1-0.6,9.6c-5.7,2-11.7,3.1-17.7,1.2c1.4-2.2,3.9-2.1,5.9-2.9
		C583.9,512.6,587.6,509.3,591.6,506.5z"/>
	<path class="st38" d="M577,503.5c-2-0.2-3.4-1.7-5.2-2.2c-0.8-0.3-1.7-0.6-2.2-1.5l0,0c-3.3-0.5-5.4-2.6-7.2-5.2
		c-0.8-1.1-1.9-1.9-2.6-3.1c-0.9-1.4-1.8-2.8-2.6-4.2c-1.3-3.9-3.2-7.7-2.7-12c0.1-1.2-0.1-2.5,0.6-3.5c2.9-1.8,5.2,0.2,7.7,1.1
		c0.5,1.1,2.5,0.9,2.4,2.6c-1,0.1-2,0.5-2.9,0.3c-2.5-0.6-2.9,0.7-3,2.8c-0.2,2.8-0.2,5.8,0.9,8.3c1.5,3.4,3.5,6.7,6.9,9
		C570.6,498.2,573.7,500.9,577,503.5z"/>
	<path class="st39" d="M603.6,490.7c3.1,1.2,6,2.9,9.5,3c3.8-0.6,7.7,0.4,11.4-0.4c2.7,0.8,2.7,1.2,0.6,3.5
		c-0.8,1.7-1.6,3.4-2.4,5.1c-1.9,2.9-4.3,5.4-6.8,8c-6.3,4.1-12.7,7.9-20.6,7.6c3.3-1,6.5-1.9,9.7-3c8.1-2.8,13.6-8.7,18-15.8
		c0.6-1,1.4-2.2,0.6-3.4c-0.8-1.2-2-0.1-3.1-0.1c-5.2,0.2-10.2-0.9-15.1-2.6C604.7,492.4,603.9,491.8,603.6,490.7z"/>
	<path class="st40" d="M582.2,455.6c0.6,1.8,2.1,2.5,3.6,3.3c2.1,1.1,4.6,1.8,5.8,4.1c-6.1,0.1-10.4-2.6-13.1-8
		C579.9,452.6,580.1,452.7,582.2,455.6L582.2,455.6z"/>
	<path class="st41" d="M587.1,580c6.3-1.7,12.9-2.4,18.8-5.6c4.8-3,9.7-5.9,14.2-9.2c0.8-0.6,1.6-1.1,2.7-0.5c0.1,1.3-1.3,1.9-1.6,3
		c0.2,1.4,3.1-0.3,2.3,2.1c-3.3,3.4-7.3,5.9-11,8.8c-5.4,3.4-11.2,2.5-16.9,1.5C592.7,580.4,589.8,581.2,587.1,580z"/>
	<path class="st42" d="M579.2,454.8c-0.2-0.1-0.4-0.1-0.6-0.2c-0.6-0.3-0.9-0.8-1.1-1.4c-0.2-1.4-0.1-2.7-0.1-4.1
		c2.6-7.9,9-12.4,15.5-16.8c6.5-4.4,13.6-7.6,20.7-10.8c3-0.7,5.7-2.1,8.6-3c0.3-0.1,0.7-0.1,1-0.1c-0.2-0.1-0.5,0-0.7,0
		c-0.7,0-1.4,0.2-2.1,0.3c-1.4-0.4-3.3,0.1-3.8-2c1.3,0,2.6-0.1,3.8-0.1c0.7,0,1.5,0,2.2,0c1.4,0.1,3.3-0.5,4,1.1
		c0.7,1.7-0.3,3.6-1.4,4.6c-2.1,1.7-4.3,3.5-6.8,4.8c-8,4.2-17.2,5.9-24.4,11.6c-4.5,3.5-7,8.8-11,12.7c-1.1,1.1-0.7,2.8-0.7,4.2
		C581.1,455.8,580.7,453.2,579.2,454.8z"/>
	<path class="st43" d="M501.2,488c0.2,0,0.4,0,0.6,0c1.2,0.9,0.9,2.1,0.6,3.3c-1.1,2.8-0.7,5.8-1.3,8.7c-0.4,1.2-0.2,2.4-0.4,3.5
		c-0.4,1.8-0.7,3.5-0.2,5.3c-0.3,3.5-0.8,7,0.2,10.4c0,2.8,1.2,5.3,1.5,8c0.3,2.4,1.4,4.5,2.1,6.7c0.4,2.3,1.7,4.3,2.8,6.3
		c0.7,1.4,1.6,2.8,1.2,4.5c1.2,2.4,2.7,4.7,4.6,6.6c3.8,1.5,5.2,5.2,7.5,8.1c1.5,1.7,2.9,3.5,5.2,4.4c0.8,0.4,1.6,0.9,2.2,1.6
		c0.3,0.2,0.5,0.4,0.8,0.6c0.8,1,1.8,1.6,3,2.1c3.2,0.9,6.2,2.1,8.3,4.9c-2.5,2.5-4.2-0.2-6.1-1.1c-1-1.3-2.1-2.4-3.7-2.9
		c-0.8,0.4-1.2-0.1-1.5-0.7c-0.8-1.5-1.9-2.3-3.7-2.2c-2.9-4.1-7.2-6.9-10.4-10.7c-5.3-6.3-9.5-13.1-12.6-20.7
		c-4.7-11.4-4-23-2.9-34.8C499.2,495.8,499.5,491.7,501.2,488z"/>
	<path class="st44" d="M615.5,528.6c-0.3,0.5-0.5,1-0.8,1.5c-8,7.6-17.4,11.9-28.4,12.5c-3.2,0.5-6.4,0.5-9.6,0
		c-0.8-0.1-1.7-0.1-2.5-0.2c0.7-1.3,1.9-0.7,2.9-0.6c13.5,1.2,25.1-2.9,35.1-11.9C613.1,528.9,614.3,528.8,615.5,528.6z"/>
	<path class="st3" d="M549.8,577.2c1.6,0.1,3.1,0.5,4.5,1.3c-0.3,0.3-0.6,0.5-0.8,0.8C551.5,579.9,550.2,579.5,549.8,577.2z"/>
	<path class="st3" d="M595.5,580.1c5.7,0.2,11.3-0.6,16.9-1.5c-2.1,3.3-5.6,3.7-9,3.5C600.7,581.9,598.1,580.8,595.5,580.1z"/>
	<path class="st3" d="M650.7,538.8c0-2.1,0.4-4.1,1.5-5.9C651.9,534.9,653.1,537.3,650.7,538.8z"/>
	<path class="st45" d="M577.8,474c-4.9,1.7-9.7,0.2-14.6-0.1c-2.5-0.8-4.8-2.1-7.5-2.1c-0.3,0.2-0.5,0.3-0.7,0
		c1-1.1,2.1-1.4,3.6-0.8C564.7,473.6,571.2,474.1,577.8,474z"/>
	<path class="st46" d="M577.8,474c1.5,0.5,2.9-0.8,4.3-0.6c-1.4,2.1-3.7,2-5.7,2c-3.7,0.1-7.5,0-11.2,0c-0.2-1.1-2.2,0.1-2-1.6
		c3.6-1,7.1,1,10.7,0.5C575.2,474.2,576.6,474.7,577.8,474z"/>
</g>
<g id="Layer_1" class="st0">
	<path class="st47" d="M197.7,888.6c249.2,0,498.4,0,747.5,0c1,0,2-0.1,2.9,0c2.9,0.4,4.1-0.8,3.7-3.7c-0.1-1.1,0-2.2,0-3.3
		c0-249,0-498,0-747c0.2,0.2,0.8-0.4,0.7,0.4c0,1,0,2,0,2.9c0,249.4,0,498.8,0.1,748.2c0,2.8-0.6,3.4-3.4,3.4
		c-249.4-0.1-498.9-0.1-748.3-0.1C200,889.3,198.6,890.1,197.7,888.6z"/>
	<g class="st48">
		<path class="st49" d="M563.8,579.9c-3.2-0.5-6.3-0.9-9.5-1.4c-1.6-0.2-3.4,0.3-4.5-1.3c-0.2,0-0.5-0.1-0.7-0.1
			c-0.6-0.4-1.5-0.1-1.7-1c0-1,0.6-1.7,1.3-2.2c2.1-4.2,5.9-6.1,10.1-7.9c11.6-5,23.7-8.6,34.2-15.9c1-0.7,2.2-1,3.4-1.3
			c2.3-0.6,4.2-1.5,6.1-3.1c3.5-3,7.9-4.6,12.3-5.3c4.9-0.7,9.9-0.6,14.7-1.9c0.3-0.1,0.7,0.2,1,0.4c1.1,1.5,0.6,3,0.1,4.4
			c-1.1,4.9-4.2,8.4-8.3,11c-11.2,4.1-22.2,8.6-33.1,13.6c-5.8,2.7-12.2,3.7-17.5,7.4c-0.8,0.5-2.3,0.8-2.1,1.8c1,4-1.5,2.8-3.5,2.6
			C565.2,579.7,564.5,579.6,563.8,579.9z"/>
		<path class="st50" d="M630.1,538.8c-1,0.6-2.4,0.6-3,1.9c-0.3,0.8-1,1.1-1.8,0.9c-4.3-1.5-8.7-0.6-12.8,0.5
			c-3.1,0.8-6.6,1.8-9.1,4.2c-1.9,1.8-4.2,2.9-6.8,3.5c-3.4,0.8-5.8,3.4-8.7,5c-9.7,5.1-20,8.8-30.2,13c-2.6,1.1-6.7,1.9-6.7,6.3
			c0,0.8-1.1,0.7-1.9,0.8c-1.6-0.9-2.8,0.9-4.2,0.8c-1.2,0-2.1-0.3-2.7-1.4c-0.2-0.8,0-1.6-0.9-2.3c-2.5-1.8-1.8-3.4,0.4-4.9
			c2-1.3,4-2.9,6.6-3.2c0.4,0,0.8-0.1,1-0.4c6.5-5.3,15-6.6,22.2-10.5c1.7-0.9,3.1-2.1,3.9-3.7c0.9-1.8,2.2-2.9,4.2-3.1
			c-5.3,0.4-10.1-1.2-14.8-3.4c-1.3-0.3-2.4-1.1-3.3-2.1c-0.8-1-1.4-2.1,0.2-2.9c3.9,2.2,8,3.8,12.5,4.5c0.9-0.5,1.9-0.2,2.9-0.1
			c2.9,0.5,5.8,0.4,8.7,0.1c9.7-0.7,18-4.6,25.6-10.4c1.1-0.8,1.8-2,3.2-2.4c6.8-0.9,13.8-0.4,20.6-1.6c0.7-0.1,1.4,0,2.1,0.4
			c0.7,0.5,0.7,1.3,0.4,2c-1.3,3-3.1,5.7-5.3,8.1C631.8,538.9,631,539.3,630.1,538.8z"/>
		<path class="st51" d="M550,526.1c2.1,2.5,4.2,5,6.4,7.6c0.6,2.5,3.7,3.9,3.2,6.8c-0.5,2.6-3.4,3.3-4.9,5.3
			c-2.8,3.8-7.5,4.8-11.5,6.8c-4.2,2.1-8.6,4.1-12.9,6c-1.9,0.8-2.9,1.7-1,3.7c1.3,1.4,1.3,2.8-0.5,4c-0.5,0.2-1,0.1-1.4-0.2
			c-0.7-0.8-1.6-1.4-2.7-1.7c-2.1-1.2-3.6-2.9-5-4.7c-1.4-1.7-0.9-3.2,0-5c2.6-5.4,7.5-7.8,12.5-10.1c4.4-2,8.8-4.1,13.2-6.2
			c1.2-0.6,2.4-1.3,3.3-2.2c1.5-1.5,2.5-3,1-5.1c-0.8-1.2-1.3-2.6-0.6-4.1C549.4,526.4,549.6,526.2,550,526.1z"/>
		<path class="st52" d="M528.4,566.1c0.7-1.5,1.2-2.6-0.8-3.8c-2.3-1.4-2.7-2.8,0.6-4.1c7.5-3.1,14.7-6.7,22.1-10
			c1.5-0.7,2.2-2.3,3.5-3.2c1.3-0.9,1.3-3.3,3.8-3.2c0.7,0,1.8-1.8,0.3-3.2c-1.4-1.3-2.5-2.7-1.6-4.8c1.8,1.4,3.5,2.8,5.3,4.2
			c-0.3,2.7,1.9,3.1,3.6,3.9c0.5,2.1,3.1,3.3,2.9,5.3c-0.2,2.4-3.3,2-4.8,3.3c-5,4.5-10.5,8.4-17.2,10.3c-2.2,0.6-4.3,1.7-6.1,3.3
			c-1.3,1.1-2.4,2.2-1.4,4.1c0.4,0.8,0.5,1.7-0.3,2.3c-0.9,0.6-1.8,0.6-2.7-0.1c-1.3-1-2.6-1.9-4.3-1.6
			C529.9,568.2,528.5,567.9,528.4,566.1z"/>
		<path class="st53" d="M648.4,499c0,0.3,0.1,0.5,0.1,0.8c0,2,0.3,3.9,0.7,5.8c0.1,1.1,0,2.2,0.1,3.3c0.3,2.8-0.4,3.7-3.7,3.5
			c-3.7-0.2-7.3,1.8-10.8,3.1c-2.8,1-5.5,2.8-8.6,0.5c-0.8-0.6-1.9,0-2.8,0.3c-2,0.7-3.9,1.4-6,1.6c-1.3,0.2-2.6,0.2-1.5,2.4
			c1,2-1.2,2.5-2.8,2.6c-3.1,0.2-6.3-0.3-9.5,0.3c-3-0.4-5.6-1.8-7.9-3.8c-0.6-0.5-1.5-1.1-0.2-1.9c7.3-0.9,14-3.3,19.8-8
			c3-2.1,5.9-4.3,9.9-4.1c0.6,0,1.3-0.3,1.8-0.1c4.4,1.8,8-0.4,11.9-1.7c4.1-1.4,6.4-3.7,7.3-7.8c0.2-0.7,0.6-1.4,1.5-1.3
			c0,0.2,0.1,0.5,0.1,0.7C648.6,496.5,647.7,497.9,648.4,499z"/>
		<path class="st54" d="M547.5,520.6c0,0.2-0.1,0.4-0.1,0.6c0,2.2,2.1,3.9,1.6,6.3c-0.2,1.3-0.8,2.3-1.8,3
			c-6.9,4.7-13.8,9.5-21.3,13.3c-3.7,1.9-6.9,4.5-10.4,6.7c-0.8,0.5-1.4,1.3-2.5,1.4c-2.6-1.6-4-4.1-5.1-6.8c0.4-2.3,1.7-3.9,4-4.2
			c2.6-0.4,3.6-2.8,5.7-3.9c3.9-2,8-3.6,12-5.5c3.7-1.8,7.3-4,11.1-5.6c1.9-0.8,3.3-2.4,3.6-4.8c0.1-1.2,0.1-2.5,1.7-2.9
			C547.2,518.4,547.1,519.7,547.5,520.6z"/>
		<path class="st55" d="M603.6,523.2c1-1.7,2.7-1.3,4.3-1.4c2.5-0.2,5.1,0.5,7.7-0.6c-0.8-1.3-3.6,0.1-3-2.3
			c0.4-1.8,2.6-2.7,3.6-2.5c2.9,0.5,4.9-1.3,7.4-1.7c1.4-0.2,3.7-3.4,4.3,1c0.1,0.7,1.5,0.4,2.3,0.1c4.2-1.6,8.5-3,12.6-4.8
			c2-0.9,3.6-0.7,5.7,1c0-2.5,0-4.5,0-6.4c-0.4-1-0.9-2,0.7-2.4c0.8,1,0.1,2.4,0.7,3.5c0,3.2,0,6.4,0,9.6c-0.1,0.3-0.4,0.5-0.7,0.6
			c-6.1,0.5-11.7,3.1-17.6,4.6c-0.7,0.2-1.1,0.8-1.5,1.5c-1.4,2.6-6.9,4.8-9.6,3.9c-1.1-0.4-2-1-1.5-2.4c1.7-2,0.5-1.9-1.1-1.4
			C613.1,524.4,608.3,524.7,603.6,523.2z"/>
		<path class="st56" d="M618.9,524.6c0.6,1.3,1.5,2,2.9,1.4c2.6-1,6.1,0.2,7.2-4.3c0.6-2.5,4.6-2.4,7.1-2.9c3.3-0.7,6.4-2.1,9.6-2.9
			c1.4-0.4,2.8-1,3.6,0.9c0,0.2,0,0.4-0.1,0.5c0.8,3.8-0.9,7.1-2.2,10.6c-1.3,1.7-2.2,4.4-4.9,1.1c-0.9-1.1-3.3,1.1-4.7-0.6
			c-7.5,1.8-15.1,2.1-22.7,1.5c-0.6-0.9,0.3-1.1,0.8-1.5C616.6,527.2,617.8,525.9,618.9,524.6z"/>
		<path class="st57" d="M618.2,484c1.7-1.6,3.5-3.3,5.2-4.9c0.4-0.3,1-0.6,1.3-0.3c4.3,3.9,8.8,0.5,13.1,0.3
			c1.7-0.1,1.5-1.6,1.4-2.8c-0.2-1.3-1-2.5-1.3-3.8c-0.3-1.2-1-2.7,1-3.2c3.6,2.5,4.5,6.3,5.2,10.3c-0.1,0.7-0.6,1.4-0.4,2.1
			c0.8,3.7-1.4,5.7-4.3,6.6c-5.4,1.8-10.5,4.4-16.1,5.5c-3.2,0.5-6.4,0.5-9.5-0.1c-2.3-1-2-2.2,0-3.2c1.7-0.8,3.5-1.1,5.4-0.6
			C619.4,488,617.1,486.3,618.2,484z"/>
		<path class="st58" d="M647.6,494.7c-0.4,1.5-0.5,3.2-1.3,4.5c-2.8,5.3-12.4,8.7-18.4,7.7c-3-0.5-6.9-0.7-9.6,2.1
			c-0.6,0.6-1,1.9-2.3,1.1c1.3-3.5,4.6-5.5,6.5-8.5c1.3-1.6,3.2-2,4.9-2.1c5.7-0.1,10.3-3.6,15.8-4.4c1.4-0.2,0.9-1.5,1-2.4
			c0.2-1.7-0.6-3.8,1.9-4.5C646.6,490.2,647.1,492.4,647.6,494.7z"/>
		<path class="st59" d="M556.5,517.9c-1.9-0.8-4.2,0.2-6-1.2c0.3-2.6,2.4-1.9,3.9-2c5-0.3,9.4-2.9,14.4-3.3c1.1-0.1,1.8-1.1,2.8-1.7
			c2.1-1.3,2.1-2.7,0.7-4.5c-0.8-1-2.1-1.8-2.1-3.3c0.3-0.8,0.8-1.2,1.6-1.3c2,0.5,3.6,1.6,5.3,2.7c1.5,0.7,3.1,1.4,4.6,2.1
			c0.8,1.5,2.3,1.2,3.6,1.2c1.1,0,2.3-0.3,2.7,1.3c0.3,1.2-0.3,2.3-1.3,2.8c-4,2.1-7.8,4.4-12.3,5.6
			C568.5,517.9,562.5,517.8,556.5,517.9z"/>
		<path class="st60" d="M570.4,502c2.5,1.4,3.6,3.8,5.1,6c0.3,0.5,0.5,1,0,1.2c-3.9,1.1-6.5,5.5-11.2,4.4c-0.4-0.1-0.9-0.2-1.1-0.1
			c-3.8,3-8.6,1.8-12.8,3.2c-0.2,0-0.4,0-0.6-0.1c-0.4-0.3-1-0.4-1.1-1c1.3-3.8,4-5.7,7.9-6.1c3.8-0.4,6.5-2.8,9.1-5.4
			c0.7-1.8,1.1-3.8,3.1-4.7c0.4-0.1,0.7,0,1,0.1C570.7,500.3,570.8,501.1,570.4,502z"/>
		<path class="st61" d="M594.7,469.6c-1.7-0.1-2.6,1.9-4.3,1.5c-1.9,0.7-4.1,0.6-6,1.6c-3.5,0.1-7,0.5-10.5-0.3
			c-1.5-0.3-3.3-0.4-3.2-2.7c0.4-1,1.2-1.6,2.3-1.6c5.5,0.3,9.8-2.1,13.6-5.8c1.2-0.5,2.4-0.3,3.4,0.4c1.7,1.3,3.7,1.4,5.7,1.5
			c1.6,0,3.1,0,5.4,0c-1.7,1.6-2.9,2.8-4.2,4C596.4,469,595.6,469.4,594.7,469.6z"/>
		<path class="st62" d="M634.5,463c0.5,0.9,1.1,1.7,1.6,2.6c0.3,1.9,1.5,3.5,1.6,5.5c0.2,3.8-3,7.5-6.9,7.5c-2.9,0-4.1-1.3-4.2-4.5
			c0.9-2.7,1.8-5.5,2.8-8.2c0-0.2-0.1-0.5-0.1-0.7c0.4-1.8-0.5-4.5,1.2-5.2C632.6,459,632.8,462.3,634.5,463z"/>
		<path class="st63" d="M626.7,474.1c1.6,3.5,3.3,4.2,6.5,2.8c2.3-1,4.3-5.3,3.3-7.7c-0.5-1.2-1.4-2.3-0.5-3.7
			c1.2,1.1,1.9,2.6,2.6,4.1c-0.6,2.8,1.9,4.8,2.1,7.5c0.2,2.5-0.3,3.5-2.7,3.4c-2.3-0.1-4.3,0.5-6.4,1.3c-3.4,1.4-5.9-0.7-8.3-2.8
			C624.5,477.4,625.6,475.8,626.7,474.1z"/>
		<path class="st64" d="M644,481.4c0.7,1.8,1.5,3.5,2.2,5.3c0,0.4,0,0.9-0.1,1.3c-1.1,2.3-0.7,4.8-0.3,7.1c0.3,1.5,0.4,2.6-1.6,1.5
			c-1.6-0.9-2.8-0.3-4.3,0.5c-4.4,2.3-9.2,3.2-14.1,3.9c-1.1,0.2-2,0.8-3,1c-0.2-2.1,1.3-3.6,2.1-5.4c5.2,0.3,9.7-2.3,14.1-4.4
			c3.5-1.7,4.2-5.4,4.2-9C643.2,482.5,642.3,481.4,644,481.4z"/>
		<path class="st65" d="M571.2,469.6c0.4,1.7,1.8,1.3,2.9,1.5c3.4,0.6,6.9,0.3,10.3,1.4c0.3-0.4,0.6-0.3,0.9,0.1c-0.8,1-2,0.5-3,0.8
			c-1.3,1-2.9,1.1-4.4,1.3c-6.7,0.4-13.2-0.3-19.3-3.1c-0.8-0.4-1.6-0.6-2.5-0.2c-0.3,0.2-0.6,0.4-0.9,0.6c-1.4,0.5-2-0.3-2.5-1.4
			c-0.2-0.5-0.3-1-0.2-1.6c0.3-0.9,1-1.4,1.9-1.8c3.2-0.4,6.2-0.5,9,1.7C565.6,470.7,568.6,468.8,571.2,469.6z"/>
		<path class="st66" d="M618.2,484c1.4,2.1,2.5,4.3,2.8,6.8c-1.9,0-4.4,0.3-7,0.8c-1,0.2-1.1,0.7-0.9,1.5c0.3,0.4,0.2,0.7-0.1,1
			c-3.3-0.6-6.7-1-9.4-3.4c0.5-1.6,2-1,3.1-1.3C610.9,488.3,614.5,486.2,618.2,484z"/>
		<path class="st67" d="M591.6,506.5c-3.1,4.6-8,6.7-12.9,8.8c-1.8,0.8-3.6,1.3-5.4,2c-5.6,1.3-11.2,1.4-16.8,0.6
			c6-0.6,12.1-0.6,18-2.6c3.9-1.3,7.5-3.4,11.2-5.1c0.9-0.4,1.9-1.1,1.4-2.2c-0.6-1.2-1.5-0.7-2.5-0.2c-2.1,0.9-3,0-2.9-2.2
			C585,505.9,588.2,507,591.6,506.5z"/>
		<path class="st68" d="M579.2,454.8c3,4.5,7.1,7.2,12.4,8.2c1.4,0.4,2.7,0.9,4.1,1.3c-3.3,1.2-6-1.4-9.1-1.4c-4,0.3-5.6-3-7.9-5.2
			c-0.4-0.4-0.6-0.9-0.8-1.4c-0.1-0.6,0-1.1,0.3-1.5C578.6,454.6,578.9,454.6,579.2,454.8z"/>
		<path class="st69" d="M634.5,463c-1.9,0.1-2-2.2-3.7-2.7c0.6,2.2-0.3,3.9-1.3,5.6l-0.3,0.1c-0.2-2.9-0.4-5.9,0.1-8.8
			c0.1-0.2,0.2-0.5,0.1-0.7C631.7,458.1,633.2,460.5,634.5,463z"/>
		<path class="st70" d="M549.1,515.8c0.3,0.3,0.5,0.6,0.8,0.9c-4.5-1-2,2.4-2.4,3.9c-0.5-0.8-1-1.6-1.5-2.4
			c-1.1-0.7-1.6-1.7-1.2-3.1C546.6,512.9,547.9,514,549.1,515.8z"/>
		<path class="st51" d="M548.3,527c0.3-2-2.1-3.7-0.9-5.9c0.9,1.6,1.7,3.3,2.6,4.9l-0.2,0.2C549.4,526.8,549.1,527.5,548.3,527z"/>
		<path class="st58" d="M649.1,503.5c-0.7,0.6-0.6,1.4-0.6,2.2c-1.1-2-1.1-3.9,0-5.9c0.9,0.5,0.5,1.5,0.9,2.2
			C649.6,502.6,649.7,503.1,649.1,503.5z"/>
		<path class="st71" d="M629.2,457.1c0.5,2.9,0.4,5.9-0.1,8.8C628.4,463,628.2,460.1,629.2,457.1z"/>
		<path class="st72" d="M585.2,472.6c-0.3,0-0.6,0-0.9-0.1c1.8-1.3,3.9-1.6,6.1-1.4C588.8,472.2,587.1,472.6,585.2,472.6z"/>
		<path class="st73" d="M649.1,503.5c0.1-0.5,0.1-1,0.2-1.5c1.1,1.5,0.5,3.2,0.6,4.8C649.6,505.7,649.4,504.6,649.1,503.5z"/>
		<path class="st74" d="M594.7,469.6c0.6-0.8,1.3-1.1,2.2-1.3C596.6,469.4,596.1,470.2,594.7,469.6z"/>
		<path class="st58" d="M648.4,499c-0.9-1.1-0.5-2.4-0.6-3.6C648.8,496.5,648.4,497.8,648.4,499z"/>
		<path class="st75" d="M563.8,579.9c1.5-1.2,3.4-0.2,4.9-0.9c-2.7-2.5-2.3-2.8,0.5-4.3c9.1-4.9,19.4-7.1,28.3-12.5
			c1.6-1,3.5-1,5.2-1.6c5.3-1.6,9.9-4.9,15.2-6.6c1.3-0.4,2.6-0.5,4-0.5c2.9,2.4,1.5,4.8,0,7.1c-3.1,4.8-7.4,8.4-12,11.6
			c-1.3,0.9-2.7,1.6-3.7,3c-2.9,2.5-6.5,3-10,3.7c-3,0.6-6.1,1.1-9.2,1c-0.4,0-0.8,0.1-1.2,0.1c-1.7,0.9-3.7-0.2-5.5,0.6
			C574.9,580.6,569.3,581.1,563.8,579.9z"/>
		<path class="st76" d="M580.4,580.7c1.8-0.7,3.6-0.7,5.5-0.6c0.3,0.8,0.2,1.4-0.9,1.3C583.5,581.1,581.9,580.9,580.4,580.7z"/>
		<path class="st77" d="M637.4,528.5c1.1,0.1,2.2-0.2,3.1-0.9c2.6-1.8,3.4-0.5,3.7,2.2c0.9-0.7,0.7-2.2,2-2.1
			c0.4,0.3,0.7,0.8,0.6,1.3c-2.1,8.3-6.8,15.2-12.4,21.5c-0.3,0.4-0.9,0.4-1.4,0.4c-1.2-0.4-1.7-1.5-1.6-2.6
			c0.3-2.2-0.7-3.7-2.2-5.1c0.2-1.5,0.5-2.9,0.7-4.4C633.4,536,635,531.9,637.4,528.5z"/>
		<path class="st78" d="M629.3,543.2c3.1-0.4,4.2,1,3.6,3.9c-0.2,1.2-0.7,2.3,0.1,3.5c1.1,2-0.4,3.1-1.4,4.5
			c-2.4,3.2-5.5,5.7-8.2,8.7c-0.2,0.3-0.5,0.6-0.7,0.8c-5.1,4.2-10.6,7.6-16.9,9.8c-0.1-1.3,0.9-1.5,1.8-2
			c5.3-3.4,9.8-7.6,13.6-12.6c1.4-1.9,1.6-4,0.8-6.2C624.7,550.3,628.3,547.7,629.3,543.2z"/>
		<path class="st79" d="M547.6,576.2c-0.8-0.3-1.6-0.7-2.3-1c1.2-1.4,2.4-2.5,3.8-0.3C548.6,575.3,548.1,575.7,547.6,576.2z"/>
		<path class="st79" d="M542.4,574c-1-0.4-2-0.8-3-1.1c-2.7-1.6-5.4-3.2-8.1-4.8c1-1.6,2-0.6,3.1-0.1c1.1,0.5,1.7,2.2,3.4,1.6
			c-2.4-4-1.1-6.4,4.3-8.9c4.7-2.2,10.2-2.9,14.2-6.6c2.2-2,5.3-3,6.9-5.8c0.9-1.5,2.8-0.3,4.3-1.2c-0.5-1.9-5.4-2.2-2.3-5.5
			c5,2.3,10.2,3.7,15.9,4c-4.1,1.6-4.7,6.9-8.6,8.4c-3.8,1.5-7.3,3.8-11.4,4.9c-3.4,0.9-6.8,2-9.3,4.8c-0.9,1-2.7,2-3.8,1.8
			c-3.2-0.6-4.4,2.6-6.9,3.3c-1.7,0.5-0.3,2,1,2.3C545.2,572,543.1,573,542.4,574z"/>
		<path class="st49" d="M600.6,545.2c-1.4,1.4-2.2,2.5-4.2,2.1C597.3,545.7,598.4,545.3,600.6,545.2z"/>
		<path class="st80" d="M576.7,542.6c3.2,0,6.4,0,9.6,0C583.1,543.4,579.9,543.5,576.7,542.6z"/>
		<path class="st81" d="M548.3,527c0.5-0.2,1-0.5,1.4-0.7c0.1,1.2-0.1,2.4,0.7,3.5c2.2,3.3,1.9,5.4-1.4,7.7
			c-2.7,1.8-5.7,3.3-8.7,4.7c-4.8,2.3-9.7,4.4-14.5,6.7c-3.6,1.8-6.5,7.5-5.6,10.5c-2.9-2.3-5.4-4.9-7.5-8.1c3-3.6,7.1-5.8,11.1-8.2
			c6.1-3.6,12.7-6.3,18-11.2C544,530.2,547.4,530.2,548.3,527z"/>
		<path class="st52" d="M527.6,565.5c-0.9-0.3-1.7-0.8-2.2-1.6C527,563.3,527.1,564.7,527.6,565.5z"/>
		<path class="st82" d="M623.4,563.8c-0.1-1.4,0.4-2.2,1.7-3.2c3.4-2.6,5.7-6.3,7.9-10c5.2-7.1,11.9-13.5,13.3-22.8
			c1-3.7,2-7.4,3.1-11c0.2,10.8-4.1,20.2-9.2,29.3c-3.8,5.4-7.9,10.7-12.9,15.1C626,562.2,625.1,563.6,623.4,563.8z"/>
		<path class="st83" d="M545.1,515.2c0.3,1,0.6,2,0.9,3c-0.8,2.8-0.4,6.3-3.6,8c-2.6,1.4-5.2,2.6-7.8,4c-5.5,3-12.2,4.3-16.7,8.6
			c-3,2.8-7.8,2.1-9.7,6.1c-2.2-3.2-4-6.7-5.2-10.4c4.5,1.5,7.3-2.5,11.1-3.6c7.9-2.3,15.1-6.7,22.7-9.9c2.3-0.9,4.1-2.6,5.4-4.8
			c0.5-0.9,0.8-2.1,2-2.5C545.3,513.7,545.1,514.5,545.1,515.2z"/>
		<path class="st84" d="M532.8,439.9c2.4-2.3,5-4.4,8.1-5.8c0.8,0.3,1.4,1.1,0.9,1.7c-2,2.4-1.3,5.2-1.5,7.8
			c-0.2,2.7,1.1,4.4,3.7,4.4c0.8,0,2.2-0.6,2.4-0.1c1.9,4.2,5.5,1.4,8.2,1.9c3,0.6,6,1.6,9.2,1.7c3.3,0.1,7.1,0.5,9.8,3.4
			c0.5,1.9-1,2.4-2.2,3.2c-4.5,3-9.1,1.7-13.6,0.4c-1.9,1.3-3.8,2-6,0.2c-1.6-1.4-3.9-0.8-5.6-0.2c-4.6,1.7-8-0.5-11.5-2.7
			c-0.3-0.2-0.5-0.7-0.8-0.7c-3.8-0.1-4.9-2.9-6-5.8c-0.6-2-0.2-3.6,1.5-5.1C530.8,443,532.1,441.6,532.8,439.9z"/>
		<path class="st85" d="M552.7,427.6c4.4-2.3,8.8-4.4,13.8-5.2c0.3-0.1,0.7-0.2,1-0.1c0.6,1.1-0.3,1.7-1,2c-4.8,1.5-9.1,3.7-9.5,9.6
			c1.9,0.4,4.2,1.3,5.9,3.4c1,0.9,2.2,0.9,3.4,1.1c1,0.1,2.3,0.3,2.5,1.2c0.7,2.6,2.6,2.9,4.7,3.9c2.2,1.1,3.1,1.1,4.7-0.2
			c0.5-0.5,1.3-0.6,2-0.2c0.7,1.9-1,2.8-1.7,4.1c-2.1,3.8-4.4,4.8-8.4,3.2c-1.6-0.6-3.2-1.1-5-0.7c-1.2,0.2-2.4-0.1-3.4-1
			c-1.6-1.4-3.5-1.6-5.5-1c-1.7,0.5-3.4,0.3-4.2-1.3c-0.7-1.4-1.7-1.7-3-2.1c-2.6-0.9-5.1-2.2-5.4-5.3c-0.3-3.2,0.4-6,3.7-7.6
			C549.2,430.3,551.1,429.2,552.7,427.6z"/>
		<path class="st86" d="M552.7,427.6c-0.6,2.7-3.1,3.4-4.9,4.9c-1.8,1.4-1.9,1.3-1.4,3.8c0,0.2,0,0.6-0.1,0.6
			c-2.6,0.9-2.1,2.8-0.7,3.8c1.7,1.3,3.3,3.9,6.3,2.2c0.5-0.3,1.2-0.5,1.7,0.1c0.4,0.4,0.2,0.9-0.2,1.3c-0.8,0.6-1.3,1.2-0.2,2
			c0.8,0.6,1.5,1,2.7,0.6c3.1-1.1,4.6-0.7,7,1.4c0.2,0.2,0.7,0.3,1,0.2c3.7-1.2,6.9,1.3,10.4,1.5c2.1,0.1,2.6-1.8,3.7-3.1
			c0.7,0.6,0.5,1.4,0.4,2.2c-0.3,1.4-0.4,2.9-1.1,4.2c-0.7,1.5-1.8,2.7-3.7,1.7c-2.1,0.6-3.6-1-5.5-1.4c-5-1.1-10.3-0.4-15-3.1
			c-0.9-0.5-1.3,0.2-1.7,0.8c-0.7,1.1-1.7,2.1-3,1.6c-1.2-0.4-1-1.7-1-2.8c0-1.9-1-1.9-2.4-1c-3,2.2-4-1.3-5.7-2.2
			c-1.3-0.7-2-2.6,0.1-3.9c0.2-0.2,0.5-0.6,0.4-0.9c-0.8-3.2-0.9-3.2,1.4-6.3c0.4-0.6,0.1-1.2-0.1-1.7
			C544.5,431.4,548.4,429.1,552.7,427.6z"/>
		<path class="st87" d="M501.3,491c0.1-1,0.3-2,0.4-3c0.3-1,0.7-1.9,1-2.9c2,0,1.8,1.6,2.1,2.8c1,4.5,3.4,6,7.3,3.9
			c4.2-2.3,8.7-2.4,13.2-2.1c6.8,0.4,13-1.5,19-4.2c2.2-1,4.2-2.5,6.8-2.3c1.4,0.1,1.8-1.6,2.9-2c2.8,1.8,2.4,6.1-0.8,8.2
			c-1,0.7-2.2,1-3.4,1.2c-2.3,0.5-4.6,1.1-6.5,2.5c-3,2.2-6.4,3-10,3c-2.8-1.2-5.5-0.6-8,0.7c-2.2,1.1-4.4,2-6.9,1.3
			c-1.4-0.4-3-0.2-4.3,0.4c-3.4,1.4-6.7-0.4-10.1,0.2c-1.9,0.3-2.5-1.6-2.6-3.3C501.5,493.8,502.3,492.4,501.3,491z"/>
		<path class="st88" d="M507,473.1c0.4-1,0.8-1.9,1.3-2.9c0.6-0.2,1-1.1,1.8-0.8c1,3.3,4.6,4.1,6.6,6.4c0.5,0.6,1.6,0.8,2.4,0.5
			c3-1,5.8-0.7,8.5,0.7c0.3,0.2,0.8,0.3,1.1,0.1c3.8-2.5,8.4-1,12.3-2.5c0.3-0.1,0.7-0.4,1-0.3c4.4,1.2,8.3-1.4,12.5-1.5
			c1,0.6,0.7,1.6,0.7,2.4c0,0.7,0,1.4-0.1,2.1c-2.5,2-5.8,2.6-8.7,3.5c-5.2,1.6-10.4,3.2-15.9,3.2c-1.4,0-2.9,0-4.3-0.7
			c-0.7-0.3-1.4-0.8-2.1-0.4c-3.6,2.5-7.6,0.4-11.4,0.8c-3.4,0.4-6.7-4.6-6.4-8.8C506.7,474.5,506.6,473.8,507,473.1z"/>
		<path class="st89" d="M554.2,481.4c-0.1,1.2-0.8,2.5-1.8,2.5c-5.4-0.1-9,4.3-13.9,5.4c-3,0.6-6,0.7-9,2.3
			c-1.4,0.8-5.1,0.1-7.3-0.4c-3.7-0.9-6.3,0.5-9.2,1.8c-5.6,2.7-9.3,0.3-9.3-6.1c0-0.8-0.1-1.4-0.8-1.8c0.4-2.5,1.2-5,2.3-7.3
			c2.5,0.5,1.3,2.8,1.9,4.2c0.8,1.9,0.5,4,3.9,2.9c2.1-0.6,4.8-0.1,7.1,0.6c2.6,0.7,5,0.7,7.5-0.3c1.5-0.6,3-1,4.6-0.3
			c1.8,0.7,3.3-0.3,5-0.6c5.8-1,11.9-1,17.3-4c0.5-0.3,1.2-0.1,1.7,0.2C554.4,480.7,554.4,481.1,554.2,481.4z"/>
		<path class="st90" d="M554.2,480.6c-5.6,3.6-12.1,3.1-18.1,4.8c-4.5,1.3-9.4-1.1-13.5,2.1c-1,0.8-2.5,0-3.5-0.4
			c-1.6-0.7-3.1-1.4-4.8-0.2c-0.5,0.4-1.3,0.4-1.7-0.2c-1-1.9-2-1.4-3-0.1c-1.5,2-2.4,1.2-2.9-0.7c-0.7-2.7-1.2-5.5-1.7-8.2
			c0.2-0.5,0.4-1,0.6-1.5c0.3-0.5,0.5-1.2,1.4-0.7c-0.6,3.1,1.6,4.7,3.5,6.3c1.1,0.9,2.8,2.4,4.3,0.1c0.4-0.6,1.5-0.7,2-0.1
			c1.9,2.5,3.9,1.5,6.1,0.4c1.4-0.7,2.9-2.3,4.2,0.3c0.6,1.2,1.6,0.2,2.3,0.1c3.9-0.6,7.7-0.6,11.6-1.5c4.7-1.1,8.9-4.4,14-3.5
			C555.7,478.9,555.1,479.8,554.2,480.6z"/>
		<path class="st91" d="M532.8,439.9c0.7,2.7-1.4,4.1-3,5.3c-1.5,1.1-0.5,2.7-1.3,3.8c-0.9,5.6,4.1,8.7,5.7,13.3
			c-0.1,1.4-0.9,2.4-2,3.1c-0.3,0.2-0.6,0.3-1,0.4c-1.4,0.2-2.9,0-3.6-1.2c-1.3-2.3-3-2-5-1.5c-4.5-0.5-4.5-0.5-4.7-6.1
			c0.6-2.5,2.6-4,4.1-5.9c0.7-1,1.8-1.7,1.9-3C526.4,444.8,529.4,442.1,532.8,439.9z"/>
		<path class="st92" d="M616.7,416.6c1.4,0.8,3.1,0.4,4.6,0.7c0.4,0.8,3.8-0.5,1.5,2.2c-2.7,1.4-5.6,2.4-8.5,3
			c-0.5,0.2-1.1,0.3-1.6,0.2c-0.8-1.1,0.3-1.4,0.5-1.8c-12.3-2.1-24.9-2.3-37.3,1.4c-1.4,0.4-2.8,0.6-4-0.4
			c-0.2-0.4-0.2-0.8,0.1-1.1c10.4-3.3,21.2-4.1,32.1-4.2C608.2,416.5,612.4,416.6,616.7,416.6z"/>
		<path class="st93" d="M523.9,448c1.1,3-2.1,3.7-3,5.8c-0.5,1.2-2,1.8-2.1,3.3c-1.2,1.9-2.5,3.8-3.7,5.7c-2,2-2.4,5.3-5.1,6.8
			c-0.6,0.2-1.2,0.4-1.7,0.7C512.1,461.8,517.2,454.4,523.9,448z"/>
		<path class="st94" d="M571.8,420.8c0,0.3,0,0.6,0,1c-0.8,1.3-2,1.7-3.5,1.4c-0.4-0.1-0.7-0.3-0.9-0.6c-0.3-0.1-0.7-0.1-1-0.2
			C568.1,421.4,570,421,571.8,420.8z"/>
		<path class="st93" d="M507.1,475.5c-0.5,0.2-0.9,0.5-1.4,0.7c0.1-1.1,0.5-2.2,1.3-3.1C507,473.9,507.1,474.7,507.1,475.5z"/>
		<path class="st95" d="M625.2,496.9c-0.2-1,1.8-2.2-0.3-3.1c-0.3-0.1-0.6-0.3-0.7-0.6c4.4-2.4,9.3-3.9,14-5.6
			c2.6-0.9,5.8-2.1,4.2-6.2c-0.1-0.3,0.6-1,0.9-1.5c0.2,0.5,0.4,1,0.6,1.5c0,2,0.2,4.1,0,6.1c-0.4,4.6-3.8,6.6-7.6,7.7
			c-1.9,0.5-3.6,1-5.3,2.1C629.2,498.4,627,499,625.2,496.9z"/>
		<path class="st96" d="M624.2,493.1c0.2,0.2,0.5,0.4,0.7,0.6c-3.9,0.8-7.8,0.6-11.8,0c0-0.2,0-0.4,0-0.6
			C616.8,493.2,620.5,493.2,624.2,493.1z"/>
		<path class="st97" d="M569.7,499.8c0.7,0.5,1.5,1,2.2,1.5c-0.5,0.2-1,0.5-1.4,0.7C570.2,501.3,569.9,500.5,569.7,499.8z"/>
		<path class="st98" d="M545.1,515.2c-0.2-0.4-0.4-0.9-0.5-1.3c-0.8-1-2.3,0.5-3.1-0.8c-0.3-2.4,1.4-3,3.1-3.9
			c3.8-2,8.5-2.2,11.6-5.7c1.5-3.1,4.3-4.9,6.8-7c2.1,0,2.5,1.5,2.8,3.1c0.3,1.5-0.1,3.2,0.9,4.6c-0.4,1.2,1.2,4-2.2,2.7
			c-2.8,3.6-7,3.7-10.9,4.7c-2.1,0.5-2.3,3.5-4.5,4.2C547.7,516,546.8,513.4,545.1,515.2z"/>
		<path class="st97" d="M566.7,504.2c-0.6-0.2-1.8,1.1-1.9-1c-0.1-2.1,0.7-4.8-1.8-6.3c-1.6,0.5-2.1-1-3.1-1.7
			c-0.4-0.5-0.6-1-0.7-1.5c0-1.2-0.2-2.5,1.5-2.7c2.6,3.3,5.6,6.3,9,8.8C567.9,500.8,567.7,502.7,566.7,504.2z"/>
		<path class="st99" d="M579.2,457.1c2.3,2.2,4.6,4.3,7.4,5.9c-3.3,4.5-7.5,7.1-13.4,6.3c-0.7-0.1-1.4,0.2-2.1,0.4
			c-2.5,2.6-5.8,0.6-8.6,1.3c-1.5-4.6-5.5-2.1-8.4-2.8c-1,0.2-2.3,1-2.5-0.7c-0.2-1.3,0.9-1.9,2.1-1.9c2.1,0.1,4.1-0.6,6.1-0.5
			c4.9,0.5,9.4-1.7,14.3-1.8c1.7,0,2.6-1.9,3.2-3.6C577.8,458.6,577.3,456.9,579.2,457.1z"/>
		<path class="st100" d="M541.7,513c1.1,0,2.2-0.2,3.2,0.1c0.9,0.3,0,0.5-0.2,0.8c-1.6,4.8-5.1,7-9.7,9.3c-4.5,2.2-9.4,3.7-13.7,6.7
			c-2.1,1.6-5.6,2.1-8.6,2.9c-1.8,0.5-3.7,0.9-4.6,2.7c-1.6,3.3-2.7,2.3-3.9-0.2c-0.2-0.4-0.7-0.6-1.1-0.9c-0.9-2.1-1.8-4.2-1.9-6.6
			c-0.2-0.2-0.2-0.6-0.1-0.6c4.9,0.3,8.7-2.4,12.8-4.5c7.7-3.9,15.9-7,23.9-10.2C539.2,511.9,540.5,511.6,541.7,513z"/>
		<path class="st101" d="M499.6,519.8c-1-3.7-0.6-7.5-0.5-11.2c0.5-1.7-0.2-3.6,0.5-5.3c0.1-1.2,0.2-2.3,0.2-3.5
			c2.3-0.3,4.4-0.5,3.5,3c-0.3,1,0.4,1.3,1.2,1.4c0.4,0,0.8,0,1.1-0.2c8.1-5.2,17.7-3.3,26.4-5.9c3.5-1,7.1-0.9,10.6-1.8
			c1.1-0.3,2.5-0.4,3,1.1c-0.9,4.1-4.6,4.1-7.6,5.3c-8.7,3.6-18.3,4.9-26.7,9.4c-0.9,0.5-1.7,0.9-2.4,1.6c-2.3,1.3-4.3,3-7.2,2.8
			c-1.6-0.1-0.4,1.9-1.3,2.6C500.2,519.4,500,519.7,499.6,519.8z"/>
		<path class="st102" d="M499.6,519.8c0.1-0.2,0.1-0.5,0.2-0.7c4.7,1.3,8.9,0.8,13.1-2.1c3.3-2.3,7.3-3.5,11.4-3.6
			c0.8,0,1.7,0,2.5-0.4c8.4-4.3,17.7-6,26.4-9.5c1.3-0.5,2.9-1.1,3.8,0.7c-3,3.9-7.8,4.3-11.9,6.1c-1.6,0.7-2.7,1.4-3.6,2.8
			c-3.7,0.5-7.2,1.6-10.5,3.5c-5.4,3.1-11.9,3.8-17,7.5c-3,2.2-7,2.3-9.8,5.2c-1.5,1.6-1.9-1.5-3.3-1.4
			C500,525.3,499.6,522.6,499.6,519.8z"/>
		<path class="st103" d="M532.1,499.1c-1.7,1.5-4.7,2-5.9,1.7c-3.4-0.9-6.1,1.8-9.4,0.9c-3.8-1-6.6,1.6-9.7,3.2
			c-0.8,0.4-1.8,0.6-2.8,0.7c-1.6,0.3-2.6-0.7-3.1-2c-0.7-1.6,1.4-1.3,2-2.3c-1.4-0.2-2.4-0.7-3.3-1.4c0.2-3,0.6-6,1.5-8.8
			c0.4,0.6,1.2,1.2,1.2,1.7c-0.1,3.7,0.2,6.6,5,3.7c3.4,3,7.1-0.8,10.4,0.3c4.8,1.6,7.9-2.9,12.3-2.6c1.5,0.1,2.5,0.3,3.5,1.3
			C534.2,497,531.7,497.5,532.1,499.1z"/>
		<path class="st103" d="M499.6,503.3c-0.1,1.8,0.5,3.6-0.5,5.3C499,506.8,498.9,505,499.6,503.3z"/>
		<path class="st104" d="M532.1,499.1c-3.5-2.8,0.9-2.5,1.5-3.7c6.5-0.6,11.2-5.8,17.8-6.5c3.4-0.4,4.7-4.5,2.9-7.5
			c0-0.2,0-0.5,0-0.7c0.2-1,0.5-2,0.7-3c0-0.7,0-1.5,0-2.2c0.2-0.5,0.5-0.5,0.7,0c-0.4,4.3,1.9,7.9,2.9,11.8c-0.2,2.1,1.7,3.8,1,5.9
			c-4.1,3.4-9,4.4-14.2,4.4c-0.4-0.1-0.9-0.5-1.3-0.4C540.2,498.4,536.1,498.7,532.1,499.1z"/>
		<path class="st105" d="M559.4,493.2c0-2-2.2-3.7-0.8-5.9c0.7,1.2,1.4,2.5,2.1,3.7c-0.8,0.9-0.5,1.9-0.6,2.9
			C559.4,494.1,559.2,493.8,559.4,493.2z"/>
		<path class="st106" d="M555,471.8c0.2,0,0.5,0,0.7,0c0,1.2,0,2.4-0.1,3.7c-0.2,0-0.5,0-0.7,0c0-0.8,0-1.6-0.8-2.2
			C553.8,472.5,554.5,472.2,555,471.8L555,471.8z"/>
		<path class="st107" d="M554.9,471.8c-0.2,0.5-0.5,1-0.7,1.5c-2.3,2-5.5,3-8.1,2.7c-2.5-0.2-4.7,0.8-6.7,0.7
			c-4.2-0.2-7.9,0.3-11.5,2.5c-0.6,0.4-0.6-0.7-0.8-0.8c-2.1-1.2-4-2.2-6.7-1c-2.7,1.3-5.2,0.6-6.4-2.5c-0.2-0.6-0.6-0.9-1.1-0.8
			c-4.6,0.9-2.9-2.5-3-4.5c0.9-2.8,2.3-5.3,4.4-7.4c0.1,0.1,0.2,0.2,0.3,0.3c1.3,1.7-1,4.3,1.7,5.9c3.8,2.2,7.7,3.8,12,2.6
			c3-0.8,5.8-0.6,8.7-0.3c2.3,0.2,4.5,0.1,6.5-0.6c3.4-1.3,6.6,0,9.8,0.3C554,470.7,553.7,472,554.9,471.8z"/>
		<path class="st108" d="M553.5,470.3c-2.3,0.2-4.4,1.5-7,0.1c-1.2-0.6-2.9,1.4-4.9,1.5c-3.4,0.2-6.6,0.3-9.9-0.6
			c-1.7-0.4-3,0.8-4.4,1.1c-4.2,1-7.5-0.9-10.9-2.5c-1.9-0.9-3.9-2.1-2.6-4.9c0.4-0.9,0.5-1.9,0.7-2.8c0.9-2.2,1.7-4.5,4.4-5.2
			c0,1.2,1.4,2.2,0.3,3.9c-0.3,0.5,2.2,0.8,3.3,1.3c1.8,0.4,3.7,0.2,4.7,2.6c0.7,1.7,2.6,1.2,4.1,0.4c6.6,0.6,13.2,1.4,19.5,3.3
			c0.7,0.2,1.3,0.6,1.8,1.2C553,469.8,553.2,470.1,553.5,470.3z"/>
		<path class="st109" d="M552.7,469.6c-3.3-0.4-6.6,0-9.7-2.2c-1.7-1.2-4.2,0.5-6.5,0c-1.9-0.4-3.8-0.7-5.2-2.2c0.7-1,1.5-2,2.2-2.9
			c0.8-1.3,2-1.8,3.4-1.6c7,0.8,13.9,1.1,21,0.6c3.5,1.7,4,2.7,2.1,4.7c-2.2-0.1-4.3,1.8-6.6,0.5c-0.4-0.2-1,0.1-1.1,0.6
			c-0.1,1.5,1.5,0.2,1.8,1.1C553.7,468.6,553.2,469.1,552.7,469.6z"/>
		<path class="st110" d="M560.1,465.9c0.7-2.6-0.8-3.4-2.9-3.7c-0.8-1.7-0.8-3.4,0-5.2c2.2-0.5,3.9,0.9,5.8,1.4
			c3,0.7,8.4-1,10.4-3.6c3.4-0.5,2.9-4,4.4-5.9c0.2-0.4,0.5-0.4,0.7,0c0,1.5-0.1,2.9-0.1,4.4c-0.5,1-0.4,2,0.1,2.9
			c0.2,0.2,0.5,0.5,0.7,0.7c-1,6.5-2.9,8.2-9.6,7.6c-1.9-0.2-2.9,1-4.4,1.4C563.5,466.5,561.8,466.8,560.1,465.9z"/>
		<path class="st99" d="M578.5,456.3c-0.5-1-1.9-1.9-0.1-2.9c0.1,0.4,0.2,0.8,0.2,1.3C578.6,455.2,578.6,455.8,578.5,456.3z"/>
		<path class="st111" d="M622.7,419.5c0.8-1.6-1.1-1.4-1.5-2.2c0.7,0,1.4,0,2.1,0.1c0.8,0.1,1.6,0.4,2.7,0.7
			C624.9,419.2,623.9,419.5,622.7,419.5z"/>
		<path class="st112" d="M557.2,457.1c-0.2,1.7,1.4,3.4,0,5.2c-2.7,1.5-6.1-0.9-8.7,1.5c-0.4,0.4-0.8,0.3-1.3,0.1
			c-4.3-2.4-9-2-13.6-1.6c-1.7-1.5-2.8-3.5-4.4-5.1c-2.3-2.3-1.9-5.3-0.8-8.1c2.5,0.7,2.8,2.2,1.3,4.5c1.6-0.1,2.6-2.3,3.8-0.8
			c2,2.4,4.5,3.9,7.5,4.8c1.3,0.4,2.1,0.8,3.5,0.2c2.9-1.1,6-2.4,8.8,0.6C555.1,460.2,556,457.8,557.2,457.1z"/>
		<path class="st113" d="M584.4,437.9c-1.5,1.7-2.9,3.4-4.4,5.2c-1.1,1-2.2,1.9-3.2,3c-0.6,0.6-1,1.5-2,1.2c-1-0.3-1.2-1-1.1-2
			c0-1.5-0.4-2-1.9-1c-2.8,2-3.7,0.2-3.4-2.2c0.4-2.7-1-3-2.9-2.6c-1.5,0.2-2.7,0.2-3.1-1.6c0.2-3.1,2.6-4.2,4.9-5.3
			c2.3,0.2,4.6,0.8,6.8-0.4c0.4-0.2,1-0.2,1.4,0c1.3,0.4,5.1,5.8,5.2,7.3C581.6,438.2,582.4,436.8,584.4,437.9z"/>
		<path class="st114" d="M567.5,433.5c-1.7,1.5-3.4,2.9-5.2,4.4c-2,0.8-1.4-2.2-3.5-2.2c-1.7,0-3.7-0.6-6.3,0
			c2.4-2.8,4.9-4.4,4.8-7.9c0-1.4,2.6-2.3,4.3-3c1.9-0.7,4-1,5.8-2.2c0.3,0,0.5,0,0.8,0c1.4,1.1,2,2.8,1.4,4.2
			C568.5,428.9,568.4,431.3,567.5,433.5z"/>
		<path class="st109" d="M531.4,465.2c-2.7,3-4,2.9-5.4-0.8c-0.6-1.7-2.8-0.6-3.5-2.2c2.2-0.5,4.7-2.7,5.7,1.6
			C528.4,464.8,530.2,464.9,531.4,465.2z"/>
		<path class="st115" d="M567.5,433.5c-0.1-2.1-2.5-4.2,0.9-6.2c1.2-0.7-0.2-3.2-0.1-4.8c1.2-0.3,2.4-0.5,3.7-0.8
			c1.2-0.2,2.5-0.5,3.7-0.7c0.7,0.6,1.5,0.6,2.4,0.3c2.2-0.7,4.5-1,6.8-0.1c1.1,0.5,2.2,0.1,3.2-0.3c2.9-1.2,5.8-0.7,8.6-0.2
			c1.2,0.2,2.6,0.7,2.6,2.1c0,1.3-1.5,1.5-2.5,1.6c-2.4,0.3-4.5,1.5-7.1,2.6c2.8,0.1,4.7,1,5.2,3.6c-3.3,2.7-7.3,4.3-10.3,7.4
			c-2.1,0-2.8,2.6-4.9,2.9c0.7-3.7-0.6-5-4.7-4.8c-0.2-1.1,1.9-1.7,0.9-2.7c-1-1-2,0.3-2.8,0.9C570.8,435.8,569.2,433.8,567.5,433.5
			z"/>
		<path class="st116" d="M594.7,430.6c-0.8-0.1-1.3-0.6-1.8-1.2c-1.3-1.4-2.6-2.2-4,0c-0.3,0.5-1.1,0.5-1.7,0
			c2.7-4.9,4.3-5.8,10.8-6.5c-1.9-1.3-7-2.2-9-1.1c-2.1,1.1-3.8,1.6-6.1,0.2c-1.3-0.8-3.1-0.5-4.7-0.1c-1.2,0.3-2.2,0.3-2.8-1
			c8.7-2.6,17.5-3.3,26.5-3c2.2,0.1,4.3,0,6.4,1.1c1.7,0.9,3.8,0.6,5.7-0.2c1.2-0.5,2.5-1.3,3.5,0.4c-1.3,1.8-3.7,1.8-5.3,3.1
			C606.3,424.6,600.6,427.9,594.7,430.6z"/>
		<path class="st105" d="M557.2,504.2c-1-0.5-2-0.3-2.8,0.1c-7.4,3.5-15.7,4.5-22.9,8.2c-4.8,2.4-10,1.6-14.6,4
			c-1.8,1-3.7,1.6-5.4,3c-3,2.5-6.8,1.4-10.2,1.9c-1,0.1-0.6-1.7-1.4-2.4c0-2-0.6-4,0.8-6.7c0.7,4,2.5,3.7,4.7,2.1
			c1-0.7,2-1.3,3.3-1.4c6.2-2,12.5-3.9,18.5-6.5c1.7-0.7,3.6,0,5.5-0.1c4.6-0.5,8.6-2.5,12.7-4.6c0.4-0.2,0.8-0.6,1.3-0.7
			c5.1-1.4,10.2-2.9,14.3-6.4c0.7,0.7,1.5,1.5,2.2,2.2C562.2,500.2,558.3,501.1,557.2,504.2z"/>
		<path class="st117" d="M560.8,494.6c-2.3,3.7-5.3,6.6-10.1,6.4c-3-0.1-4.8,2.2-7.2,3.3c-3.5,1.6-7.2,3.8-10.9,3.3
			c-7.6-1-13,5.1-20.1,5.3c-1.3,0.1-2.7,0.1-4,0.1c0.1-0.3,0.2-0.9,0.4-1c5.2-2,9.7-5.3,15.6-6.3c3.2-0.5,7.3-0.6,9.9-3.5
			c0.5-0.6,1.1-0.9,1.9-0.9c3.7,0.4,6.4-1.7,9-3.8c2.8-0.7,5.1-3.3,8.5-2.1c0.9,0.3,2-0.8,2.5-1.8c0.8-1.7,1.9-1,3-0.5
			c0.2,0.2,0.5,0.5,0.7,0.7C560.3,494.1,560.6,494.4,560.8,494.6z"/>
		<path class="st99" d="M573.3,462.9c-0.3,0.7-0.9,0.8-1.5,0.7c-0.5,0-1.1-0.3-0.8-0.9c0.1-0.3,0.8-0.4,1.3-0.5
			C572.7,462.2,573.3,462.2,573.3,462.9z"/>
	</g>
</g>
<g id="Layer_4" class="st0">
	<g class="st48">
		<path class="st49" d="M532.9,580.6c-3.2-0.5-6.3-0.9-9.5-1.4c-1.6-0.2-3.4,0.3-4.5-1.3c-0.2,0-0.5-0.1-0.7-0.1
			c-0.6-0.4-1.5-0.1-1.7-1c0-1,0.6-1.7,1.3-2.2c2.1-4.2,5.9-6.1,10.1-7.9c11.6-5,23.7-8.6,34.2-15.9c1-0.7,2.2-1,3.4-1.3
			c2.3-0.6,4.2-1.5,6.1-3.1c3.5-3,7.9-4.6,12.3-5.3c4.9-0.7,9.9-0.6,14.7-1.9c0.3-0.1,0.7,0.2,1,0.4c1.1,1.5,0.6,3,0.1,4.4
			c-1.1,4.9-4.2,8.4-8.3,11c-11.2,4.1-22.2,8.6-33.1,13.6c-5.8,2.7-12.2,3.7-17.5,7.4c-0.8,0.5-2.3,0.8-2.1,1.8c1,4-1.5,2.8-3.5,2.6
			C534.3,580.3,533.5,580.2,532.9,580.6z"/>
		<path class="st50" d="M599.1,539.5c-1,0.6-2.4,0.6-3,1.9c-0.3,0.8-1,1.1-1.8,0.9c-4.3-1.5-8.7-0.6-12.8,0.5
			c-3.1,0.8-6.6,1.8-9.1,4.2c-1.9,1.8-4.2,2.9-6.8,3.5c-3.4,0.8-5.8,3.4-8.7,5c-9.7,5.1-20,8.8-30.2,13c-2.6,1.1-6.7,1.9-6.7,6.3
			c0,0.8-1.1,0.7-1.9,0.8c-1.6-0.9-2.8,0.9-4.2,0.8c-1.2,0-2.1-0.3-2.7-1.4c-0.2-0.8,0-1.6-0.9-2.3c-2.5-1.8-1.8-3.4,0.4-4.9
			c2-1.3,4-2.9,6.6-3.2c0.4,0,0.8-0.1,1-0.4c6.5-5.3,15-6.6,22.2-10.5c1.7-0.9,3.1-2.1,3.9-3.7c0.9-1.8,2.2-2.9,4.2-3.1
			c-5.3,0.4-10.1-1.2-14.8-3.4c-1.3-0.3-2.4-1.1-3.3-2.1c-0.8-1-1.4-2.1,0.2-2.9c3.9,2.2,8,3.8,12.5,4.5c0.9-0.5,1.9-0.2,2.9-0.1
			c2.9,0.5,5.8,0.4,8.7,0.1c9.7-0.7,18-4.6,25.6-10.4c1.1-0.8,1.8-2,3.2-2.4c6.8-0.9,13.8-0.4,20.6-1.6c0.7-0.1,1.4,0,2.1,0.4
			c0.7,0.5,0.7,1.3,0.4,2c-1.3,3-3.1,5.7-5.3,8.1C600.9,539.6,600.1,540,599.1,539.5z"/>
		<path class="st51" d="M519.1,526.8c2.1,2.5,4.2,5,6.4,7.6c0.6,2.5,3.7,3.9,3.2,6.8c-0.5,2.6-3.4,3.3-4.9,5.3
			c-2.8,3.8-7.5,4.8-11.5,6.8c-4.2,2.1-8.6,4.1-12.9,6c-1.9,0.8-2.9,1.7-1,3.7c1.3,1.4,1.3,2.8-0.5,4c-0.5,0.2-1,0.1-1.4-0.2
			c-0.7-0.8-1.6-1.4-2.7-1.7c-2.1-1.2-3.6-2.9-5-4.7c-1.4-1.7-0.9-3.2,0-5c2.6-5.4,7.5-7.8,12.5-10.1c4.4-2,8.8-4.1,13.2-6.2
			c1.2-0.6,2.4-1.3,3.3-2.2c1.5-1.5,2.5-3,1-5.1c-0.8-1.2-1.3-2.6-0.6-4.1C518.4,527.1,518.7,526.9,519.1,526.8z"/>
		<path class="st52" d="M497.5,566.7c0.7-1.5,1.2-2.6-0.8-3.8c-2.3-1.4-2.7-2.8,0.6-4.1c7.5-3.1,14.7-6.7,22.1-10
			c1.5-0.7,2.2-2.3,3.5-3.2c1.3-0.9,1.3-3.3,3.8-3.2c0.7,0,1.8-1.8,0.3-3.2c-1.4-1.3-2.5-2.7-1.6-4.8c1.8,1.4,3.5,2.8,5.3,4.2
			c-0.3,2.7,1.9,3.1,3.6,3.9c0.5,2.1,3.1,3.3,2.9,5.3c-0.2,2.4-3.3,2-4.8,3.3c-5,4.5-10.5,8.4-17.2,10.3c-2.2,0.6-4.3,1.7-6.1,3.3
			c-1.3,1.1-2.4,2.2-1.4,4.1c0.4,0.8,0.5,1.7-0.3,2.3c-0.9,0.6-1.8,0.6-2.7-0.1c-1.3-1-2.6-1.9-4.3-1.6
			C499,568.9,497.5,568.6,497.5,566.7z"/>
		<path class="st53" d="M617.4,499.7c0,0.3,0.1,0.5,0.1,0.8c0,2,0.3,3.9,0.7,5.8c0.1,1.1,0,2.2,0.1,3.3c0.3,2.8-0.4,3.7-3.7,3.5
			c-3.7-0.2-7.3,1.8-10.8,3.1c-2.8,1-5.5,2.8-8.6,0.5c-0.8-0.6-1.9,0-2.8,0.3c-2,0.7-3.9,1.4-6,1.6c-1.3,0.2-2.6,0.2-1.5,2.4
			c1,2-1.2,2.5-2.8,2.6c-3.1,0.2-6.3-0.3-9.5,0.3c-3-0.4-5.6-1.8-7.9-3.8c-0.6-0.5-1.5-1.1-0.2-1.9c7.3-0.9,14-3.3,19.8-8
			c3-2.1,5.9-4.3,9.9-4.1c0.6,0,1.3-0.3,1.8-0.1c4.4,1.8,8-0.4,11.9-1.7c4.1-1.4,6.4-3.7,7.3-7.8c0.2-0.7,0.6-1.4,1.5-1.3
			c0,0.2,0.1,0.5,0.1,0.7C617.7,497.2,616.8,498.6,617.4,499.7z"/>
		<path class="st54" d="M516.6,521.3c0,0.2-0.1,0.4-0.1,0.6c0,2.2,2.1,3.9,1.6,6.3c-0.2,1.3-0.8,2.3-1.8,3
			c-6.9,4.7-13.8,9.5-21.3,13.3c-3.7,1.9-6.9,4.5-10.4,6.7c-0.8,0.5-1.4,1.3-2.5,1.4c-2.6-1.6-4-4.1-5.1-6.8c0.4-2.3,1.7-3.9,4-4.2
			c2.6-0.4,3.6-2.8,5.7-3.9c3.9-2,8-3.6,12-5.5c3.7-1.8,7.3-4,11.1-5.6c1.9-0.8,3.3-2.4,3.6-4.8c0.1-1.2,0.1-2.5,1.7-2.9
			C516.2,519.1,516.2,520.3,516.6,521.3z"/>
		<path class="st55" d="M572.6,523.9c1-1.7,2.7-1.3,4.3-1.4c2.5-0.2,5.1,0.5,7.7-0.6c-0.8-1.3-3.6,0.1-3-2.3
			c0.4-1.8,2.6-2.7,3.6-2.5c2.9,0.5,4.9-1.3,7.4-1.7c1.4-0.2,3.7-3.4,4.3,1c0.1,0.7,1.5,0.4,2.3,0.1c4.2-1.6,8.5-3,12.6-4.8
			c2-0.9,3.6-0.7,5.7,1c0-2.5,0-4.5,0-6.4c-0.4-1-0.9-2,0.7-2.4c0.8,1,0.1,2.4,0.7,3.5c0,3.2,0,6.4,0,9.6c-0.1,0.3-0.4,0.5-0.7,0.6
			c-6.1,0.5-11.7,3.1-17.6,4.6c-0.7,0.2-1.1,0.8-1.5,1.5c-1.4,2.6-6.9,4.8-9.6,3.9c-1.1-0.4-2-1-1.5-2.4c1.7-2,0.5-1.9-1.1-1.4
			C582.2,525.1,577.4,525.4,572.6,523.9z"/>
		<path class="st56" d="M588,525.2c0.6,1.3,1.5,2,2.9,1.4c2.6-1,6.1,0.2,7.2-4.3c0.6-2.5,4.6-2.4,7.1-2.9c3.3-0.7,6.4-2.1,9.6-2.9
			c1.4-0.4,2.8-1,3.6,0.9c0,0.2,0,0.4-0.1,0.5c0.8,3.8-0.9,7.1-2.2,10.6c-1.3,1.7-2.2,4.4-4.9,1.1c-0.9-1.1-3.3,1.1-4.7-0.6
			c-7.5,1.8-15.1,2.1-22.7,1.5c-0.6-0.9,0.3-1.1,0.8-1.5C585.7,527.9,586.8,526.6,588,525.2z"/>
		<path class="st57" d="M587.2,484.7c1.7-1.6,3.5-3.3,5.2-4.9c0.4-0.3,1-0.6,1.3-0.3c4.3,3.9,8.8,0.5,13.1,0.3
			c1.7-0.1,1.5-1.6,1.4-2.8c-0.2-1.3-1-2.5-1.3-3.8c-0.3-1.2-1-2.7,1-3.2c3.6,2.5,4.5,6.3,5.2,10.3c-0.1,0.7-0.6,1.4-0.4,2.1
			c0.8,3.7-1.4,5.7-4.3,6.6c-5.4,1.8-10.5,4.4-16.1,5.5c-3.2,0.5-6.4,0.5-9.5-0.1c-2.3-1-2-2.2,0-3.2c1.7-0.8,3.5-1.1,5.4-0.6
			C588.5,488.6,586.2,486.9,587.2,484.7z"/>
		<path class="st58" d="M616.7,495.3c-0.4,1.5-0.5,3.2-1.3,4.5c-2.8,5.3-12.4,8.7-18.4,7.7c-3-0.5-6.9-0.7-9.6,2.1
			c-0.6,0.6-1,1.9-2.3,1.1c1.3-3.5,4.6-5.5,6.5-8.5c1.3-1.6,3.2-2,4.9-2.1c5.7-0.1,10.3-3.6,15.8-4.4c1.4-0.2,0.9-1.5,1-2.4
			c0.2-1.7-0.6-3.8,1.9-4.5C615.7,490.9,616.2,493.1,616.7,495.3z"/>
		<path class="st59" d="M525.5,518.6c-1.9-0.8-4.2,0.2-6-1.2c0.3-2.6,2.4-1.9,3.9-2c5-0.3,9.4-2.9,14.4-3.3c1.1-0.1,1.8-1.1,2.8-1.7
			c2.1-1.3,2.1-2.7,0.7-4.5c-0.8-1-2.1-1.8-2.1-3.3c0.3-0.8,0.8-1.2,1.6-1.3c2,0.5,3.6,1.6,5.3,2.7c1.5,0.7,3.1,1.4,4.6,2.1
			c0.8,1.5,2.3,1.2,3.6,1.2c1.1,0,2.3-0.3,2.7,1.3c0.3,1.2-0.3,2.3-1.3,2.8c-4,2.1-7.8,4.4-12.3,5.6
			C537.5,518.6,531.5,518.5,525.5,518.6z"/>
		<path class="st60" d="M539.5,502.7c2.5,1.4,3.6,3.8,5.1,6c0.3,0.5,0.5,1,0,1.2c-3.9,1.1-6.5,5.5-11.2,4.4
			c-0.4-0.1-0.9-0.2-1.1-0.1c-3.8,3-8.6,1.8-12.8,3.2c-0.2,0-0.4,0-0.6-0.1c-0.4-0.3-1-0.4-1.1-1c1.3-3.8,4-5.7,7.9-6.1
			c3.8-0.4,6.5-2.8,9.1-5.4c0.7-1.8,1.1-3.8,3.1-4.7c0.4-0.1,0.7,0,1,0.1C539.7,501,539.9,501.8,539.5,502.7z"/>
		<path class="st61" d="M563.8,470.2c-1.7-0.1-2.6,1.9-4.3,1.5c-1.9,0.7-4.1,0.6-6,1.6c-3.5,0.1-7,0.5-10.5-0.3
			c-1.5-0.3-3.3-0.4-3.2-2.7c0.4-1,1.2-1.6,2.3-1.6c5.5,0.3,9.8-2.1,13.6-5.8c1.2-0.5,2.4-0.3,3.4,0.4c1.7,1.3,3.7,1.4,5.7,1.5
			c1.6,0,3.1,0,5.4,0c-1.7,1.6-2.9,2.8-4.2,4C565.4,469.7,564.7,470.1,563.8,470.2z"/>
		<path class="st62" d="M603.5,463.7c0.5,0.9,1.1,1.7,1.6,2.6c0.3,1.9,1.5,3.5,1.6,5.5c0.2,3.8-3,7.5-6.9,7.5
			c-2.9,0-4.1-1.3-4.2-4.5c0.9-2.7,1.8-5.5,2.8-8.2c0-0.2-0.1-0.5-0.1-0.7c0.4-1.8-0.5-4.5,1.2-5.2
			C601.7,459.7,601.9,463,603.5,463.7z"/>
		<path class="st63" d="M595.7,474.8c1.6,3.5,3.3,4.2,6.5,2.8c2.3-1,4.3-5.3,3.3-7.7c-0.5-1.2-1.4-2.3-0.5-3.7
			c1.2,1.1,1.9,2.6,2.6,4.1c-0.6,2.8,1.9,4.8,2.1,7.5c0.2,2.5-0.3,3.5-2.7,3.4c-2.3-0.1-4.3,0.5-6.4,1.3c-3.4,1.4-5.9-0.7-8.3-2.8
			C593.5,478.1,594.6,476.4,595.7,474.8z"/>
		<path class="st64" d="M613,482.1c0.7,1.8,1.5,3.5,2.2,5.3c0,0.4,0,0.9-0.1,1.3c-1.1,2.3-0.7,4.8-0.3,7.1c0.3,1.5,0.4,2.6-1.6,1.5
			c-1.6-0.9-2.8-0.3-4.3,0.5c-4.4,2.3-9.2,3.2-14.1,3.9c-1.1,0.2-2,0.8-3,1c-0.2-2.1,1.3-3.6,2.1-5.4c5.2,0.3,9.7-2.3,14.1-4.4
			c3.5-1.7,4.2-5.4,4.2-9C612.3,483.2,611.4,482.1,613,482.1z"/>
		<path class="st65" d="M540.2,470.3c0.4,1.7,1.8,1.3,2.9,1.5c3.4,0.6,6.9,0.3,10.3,1.4c0.3-0.4,0.6-0.3,0.9,0.1c-0.8,1-2,0.5-3,0.8
			c-1.3,1-2.9,1.1-4.4,1.3c-6.7,0.4-13.2-0.3-19.3-3.1c-0.8-0.4-1.6-0.6-2.5-0.2c-0.3,0.2-0.6,0.4-0.9,0.6c-1.4,0.5-2-0.3-2.5-1.4
			c-0.2-0.5-0.3-1-0.2-1.6c0.3-0.9,1-1.4,1.9-1.8c3.2-0.4,6.2-0.5,9,1.7C534.7,471.4,537.6,469.5,540.2,470.3z"/>
		<path class="st66" d="M587.2,484.7c1.4,2.1,2.5,4.3,2.8,6.8c-1.9,0-4.4,0.3-7,0.8c-1,0.2-1.1,0.7-0.9,1.5c0.3,0.4,0.2,0.7-0.1,1
			c-3.3-0.6-6.7-1-9.4-3.4c0.5-1.6,2-1,3.1-1.3C579.9,489,583.6,486.9,587.2,484.7z"/>
		<path class="st67" d="M560.7,507.2c-3.1,4.6-8,6.7-12.9,8.8c-1.8,0.8-3.6,1.3-5.4,2c-5.6,1.3-11.2,1.4-16.8,0.6
			c6-0.6,12.1-0.6,18-2.6c3.9-1.3,7.5-3.4,11.2-5.1c0.9-0.4,1.9-1.1,1.4-2.2c-0.6-1.2-1.5-0.7-2.5-0.2c-2.1,0.9-3,0-2.9-2.2
			C554,506.6,557.3,507.7,560.7,507.2z"/>
		<path class="st68" d="M548.3,455.5c3,4.5,7.1,7.2,12.4,8.2c1.4,0.4,2.7,0.9,4.1,1.3c-3.3,1.2-6-1.4-9.1-1.4c-4,0.3-5.6-3-7.9-5.2
			c-0.4-0.4-0.6-0.9-0.8-1.4c-0.1-0.6,0-1.1,0.3-1.5C547.7,455.3,548,455.3,548.3,455.5z"/>
		<path class="st69" d="M603.5,463.7c-1.9,0.1-2-2.2-3.7-2.7c0.6,2.2-0.3,3.9-1.3,5.6l-0.3,0.1c-0.2-2.9-0.4-5.9,0.1-8.8
			c0.1-0.2,0.2-0.5,0.1-0.7C600.8,458.8,602.2,461.2,603.5,463.7z"/>
		<path class="st70" d="M518.2,516.5c0.3,0.3,0.5,0.6,0.8,0.9c-4.5-1-2,2.4-2.4,3.9c-0.5-0.8-1-1.6-1.5-2.4
			c-1.1-0.7-1.6-1.7-1.2-3.1C515.7,513.6,517,514.7,518.2,516.5z"/>
		<path class="st51" d="M517.4,527.7c0.3-2-2.1-3.7-0.9-5.9c0.9,1.6,1.7,3.3,2.6,4.9l-0.2,0.2C518.4,527.5,518.2,528.2,517.4,527.7z
			"/>
		<path class="st58" d="M618.2,504.2c-0.7,0.6-0.6,1.4-0.6,2.2c-1.1-2-1.1-3.9,0-5.9c0.9,0.5,0.5,1.5,0.9,2.2
			C618.7,503.2,618.7,503.7,618.2,504.2z"/>
		<path class="st71" d="M598.3,457.8c0.5,2.9,0.4,5.9-0.1,8.8C597.4,463.7,597.2,460.7,598.3,457.8z"/>
		<path class="st72" d="M554.3,473.3c-0.3,0-0.6,0-0.9-0.1c1.8-1.3,3.9-1.6,6.1-1.4C557.9,472.9,556.1,473.2,554.3,473.3z"/>
		<path class="st73" d="M618.2,504.2c0.1-0.5,0.1-1,0.2-1.5c1.1,1.5,0.5,3.2,0.6,4.8C618.7,506.4,618.5,505.3,618.2,504.2z"/>
		<path class="st74" d="M563.8,470.2c0.6-0.8,1.3-1.1,2.2-1.3C565.7,470.1,565.1,470.9,563.8,470.2z"/>
		<path class="st58" d="M617.4,499.7c-0.9-1.1-0.5-2.4-0.6-3.6C617.9,497.1,617.5,498.5,617.4,499.7z"/>
		<path class="st75" d="M532.9,580.6c1.5-1.2,3.4-0.2,4.9-0.9c-2.7-2.5-2.3-2.8,0.5-4.3c9.1-4.9,19.4-7.1,28.3-12.5
			c1.6-1,3.5-1,5.2-1.6c5.3-1.6,9.9-4.9,15.2-6.6c1.3-0.4,2.6-0.5,4-0.5c2.9,2.4,1.5,4.8,0,7.1c-3.1,4.8-7.4,8.4-12,11.6
			c-1.3,0.9-2.7,1.6-3.7,3c-2.9,2.5-6.5,3-10,3.7c-3,0.6-6.1,1.1-9.2,1c-0.4,0-0.8,0.1-1.2,0.1c-1.7,0.9-3.7-0.2-5.5,0.6
			C543.9,581.3,538.4,581.8,532.9,580.6z"/>
		<path class="st76" d="M549.5,581.4c1.8-0.7,3.6-0.7,5.5-0.6c0.3,0.8,0.2,1.4-0.9,1.3C552.5,581.8,551,581.6,549.5,581.4z"/>
		<path class="st77" d="M606.5,529.2c1.1,0.1,2.2-0.2,3.1-0.9c2.6-1.8,3.4-0.5,3.7,2.2c0.9-0.7,0.7-2.2,2-2.1
			c0.4,0.3,0.7,0.8,0.6,1.3c-2.1,8.3-6.8,15.2-12.4,21.5c-0.3,0.4-0.9,0.4-1.4,0.4c-1.2-0.4-1.7-1.5-1.6-2.6
			c0.3-2.2-0.7-3.7-2.2-5.1c0.2-1.5,0.5-2.9,0.7-4.4C602.5,536.7,604.1,532.6,606.5,529.2z"/>
		<path class="st78" d="M598.4,543.9c3.1-0.4,4.2,1,3.6,3.9c-0.2,1.2-0.7,2.3,0.1,3.5c1.1,2-0.4,3.1-1.4,4.5
			c-2.4,3.2-5.5,5.7-8.2,8.7c-0.2,0.3-0.5,0.6-0.7,0.8c-5.1,4.2-10.6,7.6-16.9,9.8c-0.1-1.3,0.9-1.5,1.8-2
			c5.3-3.4,9.8-7.6,13.6-12.6c1.4-1.9,1.6-4,0.8-6.2C593.8,551,597.4,548.4,598.4,543.9z"/>
		<path class="st79" d="M516.7,576.8c-0.8-0.3-1.6-0.7-2.3-1c1.2-1.4,2.4-2.5,3.8-0.3C517.6,576,517.2,576.4,516.7,576.8z"/>
		<path class="st79" d="M511.5,574.7c-1-0.4-2-0.8-3-1.1c-2.7-1.6-5.4-3.2-8.1-4.8c1-1.6,2-0.6,3.1-0.1c1.1,0.5,1.7,2.2,3.4,1.6
			c-2.4-4-1.1-6.4,4.3-8.9c4.7-2.2,10.2-2.9,14.2-6.6c2.2-2,5.3-3,6.9-5.8c0.9-1.5,2.8-0.3,4.3-1.2c-0.5-1.9-5.4-2.2-2.3-5.5
			c5,2.3,10.2,3.7,15.9,4c-4.1,1.6-4.7,6.9-8.6,8.4c-3.8,1.5-7.3,3.8-11.4,4.9c-3.4,0.9-6.8,2-9.3,4.8c-0.9,1-2.7,2-3.8,1.8
			c-3.2-0.6-4.4,2.6-6.9,3.3c-1.7,0.5-0.3,2,1,2.3C514.2,572.7,512.2,573.7,511.5,574.7z"/>
		<path class="st49" d="M569.7,545.9c-1.4,1.4-2.2,2.5-4.2,2.1C566.4,546.4,567.5,545.9,569.7,545.9z"/>
		<path class="st80" d="M545.7,543.2c3.2,0,6.4,0,9.6,0C552.2,544.1,548.9,544.2,545.7,543.2z"/>
		<path class="st81" d="M517.4,527.7c0.5-0.2,1-0.5,1.4-0.7c0.1,1.2-0.1,2.4,0.7,3.5c2.2,3.3,1.9,5.4-1.4,7.7
			c-2.7,1.8-5.7,3.3-8.7,4.7c-4.8,2.3-9.7,4.4-14.5,6.7c-3.6,1.8-6.5,7.5-5.6,10.5c-2.9-2.3-5.4-4.9-7.5-8.1c3-3.6,7.1-5.8,11.1-8.2
			c6.1-3.6,12.7-6.3,18-11.2C513,530.9,516.5,530.9,517.4,527.7z"/>
		<path class="st52" d="M496.7,566.2c-0.9-0.3-1.7-0.8-2.2-1.6C496.1,564,496.2,565.3,496.7,566.2z"/>
		<path class="st82" d="M592.5,564.5c-0.1-1.4,0.4-2.2,1.7-3.2c3.4-2.6,5.7-6.3,7.9-10c5.2-7.1,11.9-13.5,13.3-22.8
			c1-3.7,2-7.4,3.1-11c0.2,10.8-4.1,20.2-9.2,29.3c-3.8,5.4-7.9,10.7-12.9,15.1C595.1,562.8,594.2,564.2,592.5,564.5z"/>
		<path class="st83" d="M514.2,515.9c0.3,1,0.6,2,0.9,3c-0.8,2.8-0.4,6.3-3.6,8c-2.6,1.4-5.2,2.6-7.8,4c-5.5,3-12.2,4.3-16.7,8.6
			c-3,2.8-7.8,2.1-9.7,6.1c-2.2-3.2-4-6.7-5.2-10.4c4.5,1.5,7.3-2.5,11.1-3.6c7.9-2.3,15.1-6.7,22.7-9.9c2.3-0.9,4.1-2.6,5.4-4.8
			c0.5-0.9,0.8-2.1,2-2.5C514.4,514.4,514.1,515.2,514.2,515.9z"/>
		<path class="st84" d="M501.8,440.6c2.4-2.3,5-4.4,8.1-5.8c0.8,0.3,1.4,1.1,0.9,1.7c-2,2.4-1.3,5.2-1.5,7.8
			c-0.2,2.7,1.1,4.4,3.7,4.4c0.8,0,2.2-0.6,2.4-0.1c1.9,4.2,5.5,1.4,8.2,1.9c3,0.6,6,1.6,9.2,1.7c3.3,0.1,7.1,0.5,9.8,3.4
			c0.5,1.9-1,2.4-2.2,3.2c-4.5,3-9.1,1.7-13.6,0.4c-1.9,1.3-3.8,2-6,0.2c-1.6-1.4-3.9-0.8-5.6-0.2c-4.6,1.7-8-0.5-11.5-2.7
			c-0.3-0.2-0.5-0.7-0.8-0.7c-3.8-0.1-4.9-2.9-6-5.8c-0.6-2-0.2-3.6,1.5-5.1C499.9,443.7,501.1,442.3,501.8,440.6z"/>
		<path class="st85" d="M521.8,428.3c4.4-2.3,8.8-4.4,13.8-5.2c0.3-0.1,0.7-0.2,1-0.1c0.6,1.1-0.3,1.7-1,2c-4.8,1.5-9.1,3.7-9.5,9.6
			c1.9,0.4,4.2,1.3,5.9,3.4c1,0.9,2.2,0.9,3.4,1.1c1,0.1,2.3,0.3,2.5,1.2c0.7,2.6,2.6,2.9,4.7,3.9c2.2,1.1,3.1,1.1,4.7-0.2
			c0.5-0.5,1.3-0.6,2-0.2c0.7,1.9-1,2.8-1.7,4.1c-2.1,3.8-4.4,4.8-8.4,3.2c-1.6-0.6-3.2-1.1-5-0.7c-1.2,0.2-2.4-0.1-3.4-1
			c-1.6-1.4-3.5-1.6-5.5-1c-1.7,0.5-3.4,0.3-4.2-1.3c-0.7-1.4-1.7-1.7-3-2.1c-2.6-0.9-5.1-2.2-5.4-5.3c-0.3-3.2,0.4-6,3.7-7.6
			C518.3,431,520.2,429.9,521.8,428.3z"/>
		<path class="st86" d="M521.8,428.3c-0.6,2.7-3.1,3.4-4.9,4.9c-1.8,1.4-1.9,1.3-1.4,3.8c0,0.2,0,0.6-0.1,0.6
			c-2.6,0.9-2.1,2.8-0.7,3.8c1.7,1.3,3.3,3.9,6.3,2.2c0.5-0.3,1.2-0.5,1.7,0.1c0.4,0.4,0.2,0.9-0.2,1.3c-0.8,0.6-1.3,1.2-0.2,2
			c0.8,0.6,1.5,1,2.7,0.6c3.1-1.1,4.6-0.7,7,1.4c0.2,0.2,0.7,0.3,1,0.2c3.7-1.2,6.9,1.3,10.4,1.5c2.1,0.1,2.6-1.8,3.7-3.1
			c0.7,0.6,0.5,1.4,0.4,2.2c-0.3,1.4-0.4,2.9-1.1,4.2c-0.7,1.5-1.8,2.7-3.7,1.7c-2.1,0.6-3.6-1-5.5-1.4c-5-1.1-10.3-0.4-15-3.1
			c-0.9-0.5-1.3,0.2-1.7,0.8c-0.7,1.1-1.7,2.1-3,1.6c-1.2-0.4-1-1.7-1-2.8c0-1.9-1-1.9-2.4-1c-3,2.2-4-1.3-5.7-2.2
			c-1.3-0.7-2-2.6,0.1-3.9c0.2-0.2,0.5-0.6,0.4-0.9c-0.8-3.2-0.9-3.2,1.4-6.3c0.4-0.6,0.1-1.2-0.1-1.7
			C513.6,432,517.5,429.8,521.8,428.3z"/>
		<path class="st87" d="M470.4,491.7c0.1-1,0.3-2,0.4-3c0.3-1,0.7-1.9,1-2.9c2,0,1.8,1.6,2.1,2.8c1,4.5,3.4,6,7.3,3.9
			c4.2-2.3,8.7-2.4,13.2-2.1c6.8,0.4,13-1.5,19-4.2c2.2-1,4.2-2.5,6.8-2.3c1.4,0.1,1.8-1.6,2.9-2c2.8,1.8,2.4,6.1-0.8,8.2
			c-1,0.7-2.2,1-3.4,1.2c-2.3,0.5-4.6,1.1-6.5,2.5c-3,2.2-6.4,3-10,3c-2.8-1.2-5.5-0.6-8,0.7c-2.2,1.1-4.4,2-6.9,1.3
			c-1.4-0.4-3-0.2-4.3,0.4c-3.4,1.4-6.7-0.4-10.1,0.2c-1.9,0.3-2.5-1.6-2.6-3.3C470.6,494.5,471.3,493,470.4,491.7z"/>
		<path class="st88" d="M476.1,473.8c0.4-1,0.8-1.9,1.3-2.9c0.6-0.2,1-1.1,1.8-0.8c1,3.3,4.6,4.1,6.6,6.4c0.5,0.6,1.6,0.8,2.4,0.5
			c3-1,5.8-0.7,8.5,0.7c0.3,0.2,0.8,0.3,1.1,0.1c3.8-2.5,8.4-1,12.3-2.5c0.3-0.1,0.7-0.4,1-0.3c4.4,1.2,8.3-1.4,12.5-1.5
			c1,0.6,0.7,1.6,0.7,2.4c0,0.7,0,1.4-0.1,2.1c-2.5,2-5.8,2.6-8.7,3.5c-5.2,1.6-10.4,3.2-15.9,3.2c-1.4,0-2.9,0-4.3-0.7
			c-0.7-0.3-1.4-0.8-2.1-0.4c-3.6,2.5-7.6,0.4-11.4,0.8c-3.4,0.4-6.7-4.6-6.4-8.8C475.8,475.2,475.7,474.4,476.1,473.8z"/>
		<path class="st89" d="M523.3,482.1c-0.1,1.2-0.8,2.5-1.8,2.5c-5.4-0.1-9,4.3-13.9,5.4c-3,0.6-6,0.7-9,2.3
			c-1.4,0.8-5.1,0.1-7.3-0.4c-3.7-0.9-6.3,0.5-9.2,1.8c-5.6,2.7-9.3,0.3-9.3-6.1c0-0.8-0.1-1.4-0.8-1.8c0.4-2.5,1.2-5,2.3-7.3
			c2.5,0.5,1.3,2.8,1.9,4.2c0.8,1.9,0.5,4,3.9,2.9c2.1-0.6,4.8-0.1,7.1,0.6c2.6,0.7,5,0.7,7.5-0.3c1.5-0.6,3-1,4.6-0.3
			c1.8,0.7,3.3-0.3,5-0.6c5.8-1,11.9-1,17.3-4c0.5-0.3,1.2-0.1,1.7,0.2C523.5,481.4,523.5,481.7,523.3,482.1z"/>
		<path class="st90" d="M523.3,481.3c-5.6,3.6-12.1,3.1-18.1,4.8c-4.5,1.3-9.4-1.1-13.5,2.1c-1,0.8-2.5,0-3.5-0.4
			c-1.6-0.7-3.1-1.4-4.8-0.2c-0.5,0.4-1.3,0.4-1.7-0.2c-1-1.9-2-1.4-3-0.1c-1.5,2-2.4,1.2-2.9-0.7c-0.7-2.7-1.2-5.5-1.7-8.2
			c0.2-0.5,0.4-1,0.6-1.5c0.3-0.5,0.5-1.2,1.4-0.7c-0.6,3.1,1.6,4.7,3.5,6.3c1.1,0.9,2.8,2.4,4.3,0.1c0.4-0.6,1.5-0.7,2-0.1
			c1.9,2.5,3.9,1.5,6.1,0.4c1.4-0.7,2.9-2.3,4.2,0.3c0.6,1.2,1.6,0.2,2.3,0.1c3.9-0.6,7.7-0.6,11.6-1.5c4.7-1.1,8.9-4.4,14-3.5
			C524.8,479.6,524.1,480.5,523.3,481.3z"/>
		<path class="st91" d="M501.8,440.6c0.7,2.7-1.4,4.1-3,5.3c-1.5,1.1-0.5,2.7-1.3,3.8c-0.9,5.6,4.1,8.7,5.7,13.3
			c-0.1,1.4-0.9,2.4-2,3.1c-0.3,0.2-0.6,0.3-1,0.4c-1.4,0.2-2.9,0-3.6-1.2c-1.3-2.3-3-2-5-1.5c-4.5-0.5-4.5-0.5-4.7-6.1
			c0.6-2.5,2.6-4,4.1-5.9c0.7-1,1.8-1.7,1.9-3C495.5,445.5,498.4,442.8,501.8,440.6z"/>
		<path class="st92" d="M585.7,417.3c1.4,0.8,3.1,0.4,4.6,0.7c0.4,0.8,3.8-0.5,1.5,2.2c-2.7,1.4-5.6,2.4-8.5,3
			c-0.5,0.2-1.1,0.3-1.6,0.2c-0.8-1.1,0.3-1.4,0.5-1.8c-12.3-2.1-24.9-2.3-37.3,1.4c-1.4,0.4-2.8,0.6-4-0.4
			c-0.2-0.4-0.2-0.8,0.1-1.1c10.4-3.3,21.2-4.1,32.1-4.2C577.2,417.2,581.5,417.3,585.7,417.3z"/>
		<path class="st93" d="M493,448.7c1.1,3-2.1,3.7-3,5.8c-0.5,1.2-2,1.8-2.1,3.3c-1.2,1.9-2.5,3.8-3.7,5.7c-2,2-2.4,5.3-5.1,6.8
			c-0.6,0.2-1.2,0.4-1.7,0.7C481.1,462.5,486.3,455.1,493,448.7z"/>
		<path class="st94" d="M540.9,421.4c0,0.3,0,0.6,0,1c-0.8,1.3-2,1.7-3.5,1.4c-0.4-0.1-0.7-0.3-0.9-0.6c-0.3-0.1-0.7-0.1-1-0.2
			C537.2,422.1,539,421.7,540.9,421.4z"/>
		<path class="st93" d="M476.1,476.2c-0.5,0.2-0.9,0.5-1.4,0.7c0.1-1.1,0.5-2.2,1.3-3.1C476.1,474.6,476.1,475.4,476.1,476.2z"/>
		<path class="st95" d="M594.2,497.6c-0.2-1,1.8-2.2-0.3-3.1c-0.3-0.1-0.6-0.3-0.7-0.6c4.4-2.4,9.3-3.9,14-5.6
			c2.6-0.9,5.8-2.1,4.2-6.2c-0.1-0.3,0.6-1,0.9-1.5c0.2,0.5,0.4,1,0.6,1.5c0,2,0.2,4.1,0,6.1c-0.4,4.6-3.8,6.6-7.6,7.7
			c-1.9,0.5-3.6,1-5.3,2.1C598.3,499.1,596.1,499.6,594.2,497.6z"/>
		<path class="st96" d="M593.2,493.8c0.2,0.2,0.5,0.4,0.7,0.6c-3.9,0.8-7.8,0.6-11.8,0c0-0.2,0-0.4,0-0.6
			C585.9,493.8,589.6,493.8,593.2,493.8z"/>
		<path class="st97" d="M538.7,500.5c0.7,0.5,1.5,1,2.2,1.5c-0.5,0.2-1,0.5-1.4,0.7C539.2,502,539,501.2,538.7,500.5z"/>
		<path class="st98" d="M514.2,515.9c-0.2-0.4-0.4-0.9-0.5-1.3c-0.8-1-2.3,0.5-3.1-0.8c-0.3-2.4,1.4-3,3.1-3.9
			c3.8-2,8.5-2.2,11.6-5.7c1.5-3.1,4.3-4.9,6.8-7c2.1,0,2.5,1.5,2.8,3.1c0.3,1.5-0.1,3.2,0.9,4.6c-0.4,1.2,1.2,4-2.2,2.7
			c-2.8,3.6-7,3.7-10.9,4.7c-2.1,0.5-2.3,3.5-4.5,4.2C516.8,516.7,515.8,514.1,514.2,515.9z"/>
		<path class="st97" d="M535.8,504.9c-0.6-0.2-1.8,1.1-1.9-1c-0.1-2.1,0.7-4.8-1.8-6.3c-1.6,0.5-2.1-1-3.1-1.7
			c-0.4-0.5-0.6-1-0.7-1.5c0-1.2-0.2-2.5,1.5-2.7c2.6,3.3,5.6,6.3,9,8.8C537,501.5,536.7,503.4,535.8,504.9z"/>
		<path class="st99" d="M548.3,457.8c2.3,2.2,4.6,4.3,7.4,5.9c-3.3,4.5-7.5,7.1-13.4,6.3c-0.7-0.1-1.4,0.2-2.1,0.4
			c-2.5,2.6-5.8,0.6-8.6,1.3c-1.5-4.6-5.5-2.1-8.4-2.8c-1,0.2-2.3,1-2.5-0.7c-0.2-1.3,0.9-1.9,2.1-1.9c2.1,0.1,4.1-0.6,6.1-0.5
			c4.9,0.5,9.4-1.7,14.3-1.8c1.7,0,2.6-1.9,3.2-3.6C546.8,459.3,546.3,457.6,548.3,457.8z"/>
		<path class="st100" d="M510.8,513.7c1.1,0,2.2-0.2,3.2,0.1c0.9,0.3,0,0.5-0.2,0.8c-1.6,4.8-5.1,7-9.7,9.3
			c-4.5,2.2-9.4,3.7-13.7,6.7c-2.1,1.6-5.6,2.1-8.6,2.9c-1.8,0.5-3.7,0.9-4.6,2.7c-1.6,3.3-2.7,2.3-3.9-0.2
			c-0.2-0.4-0.7-0.6-1.1-0.9c-0.9-2.1-1.8-4.2-1.9-6.6c-0.2-0.2-0.2-0.6-0.1-0.6c4.9,0.3,8.7-2.4,12.8-4.5c7.7-3.9,15.9-7,23.9-10.2
			C508.2,512.6,509.6,512.3,510.8,513.7z"/>
		<path class="st101" d="M468.7,520.5c-1-3.7-0.6-7.5-0.5-11.2c0.5-1.7-0.2-3.6,0.5-5.3c0.1-1.2,0.2-2.3,0.2-3.5
			c2.3-0.3,4.4-0.5,3.5,3c-0.3,1,0.4,1.3,1.2,1.4c0.4,0,0.8,0,1.1-0.2c8.1-5.2,17.7-3.3,26.4-5.9c3.5-1,7.1-0.9,10.6-1.8
			c1.1-0.3,2.5-0.4,3,1.1c-0.9,4.1-4.6,4.1-7.6,5.3c-8.7,3.6-18.3,4.9-26.7,9.4c-0.9,0.5-1.7,0.9-2.4,1.6c-2.3,1.3-4.3,3-7.2,2.8
			c-1.6-0.1-0.4,1.9-1.3,2.6C469.3,520.1,469,520.3,468.7,520.5z"/>
		<path class="st102" d="M468.7,520.5c0.1-0.2,0.1-0.5,0.2-0.7c4.7,1.3,8.9,0.8,13.1-2.1c3.3-2.3,7.3-3.5,11.4-3.6
			c0.9,0,1.7,0,2.5-0.4c8.4-4.3,17.7-6,26.4-9.5c1.3-0.5,2.9-1.1,3.8,0.7c-3,3.9-7.8,4.3-11.9,6.1c-1.6,0.7-2.7,1.4-3.6,2.8
			c-3.7,0.5-7.2,1.6-10.5,3.5c-5.4,3.1-11.9,3.8-17,7.5c-3,2.2-7,2.3-9.8,5.2c-1.5,1.6-1.9-1.5-3.3-1.4
			C469,526,468.7,523.3,468.7,520.5z"/>
		<path class="st103" d="M501.2,499.7c-1.7,1.5-4.7,2-5.9,1.7c-3.4-0.9-6.1,1.8-9.4,0.9c-3.8-1-6.6,1.6-9.7,3.2
			c-0.8,0.4-1.8,0.6-2.8,0.7c-1.6,0.3-2.6-0.7-3.1-2c-0.7-1.6,1.4-1.3,2-2.3c-1.4-0.2-2.4-0.7-3.3-1.4c0.2-3,0.6-6,1.5-8.8
			c0.4,0.6,1.2,1.2,1.2,1.7c-0.1,3.7,0.2,6.6,5,3.7c3.4,3,7.1-0.8,10.4,0.3c4.8,1.6,7.9-2.9,12.3-2.6c1.5,0.1,2.5,0.3,3.5,1.3
			C503.2,497.7,500.8,498.1,501.2,499.7z"/>
		<path class="st103" d="M468.7,504c-0.1,1.8,0.5,3.6-0.5,5.3C468.1,507.5,468,505.7,468.7,504z"/>
		<path class="st104" d="M501.2,499.7c-3.5-2.8,0.9-2.5,1.5-3.7c6.5-0.6,11.2-5.8,17.8-6.5c3.4-0.4,4.7-4.5,2.9-7.5
			c0-0.2,0-0.5,0-0.7c0.2-1,0.5-2,0.7-3c0-0.7,0-1.5,0-2.2c0.2-0.5,0.5-0.5,0.7,0c-0.4,4.3,1.9,7.9,2.9,11.8c-0.2,2.1,1.7,3.8,1,5.9
			c-4.1,3.4-9,4.4-14.2,4.4c-0.4-0.1-0.9-0.5-1.3-0.4C509.2,499.1,505.2,499.4,501.2,499.7z"/>
		<path class="st105" d="M528.4,493.8c0-2-2.2-3.7-0.8-5.9c0.7,1.2,1.4,2.5,2.1,3.7c-0.8,0.9-0.5,1.9-0.6,2.9
			C528.5,494.7,528.3,494.5,528.4,493.8z"/>
		<path class="st106" d="M524,472.5c0.2,0,0.5,0,0.7,0c0,1.2,0,2.4-0.1,3.7c-0.2,0-0.5,0-0.7,0c0-0.8,0-1.6-0.8-2.2
			C522.8,473.1,523.6,472.9,524,472.5L524,472.5z"/>
		<path class="st107" d="M524,472.5c-0.2,0.5-0.5,1-0.7,1.5c-2.3,2-5.5,3-8.1,2.7c-2.5-0.2-4.7,0.8-6.7,0.7
			c-4.2-0.2-7.9,0.3-11.5,2.5c-0.6,0.4-0.6-0.7-0.8-0.8c-2.1-1.2-4-2.2-6.7-1c-2.7,1.3-5.2,0.6-6.4-2.5c-0.2-0.6-0.6-0.9-1.1-0.8
			c-4.6,0.9-2.9-2.5-3-4.5c0.9-2.8,2.3-5.3,4.4-7.4c0.1,0.1,0.2,0.2,0.3,0.3c1.3,1.7-1,4.3,1.7,5.9c3.8,2.2,7.7,3.8,12,2.6
			c3-0.8,5.8-0.6,8.7-0.3c2.3,0.2,4.5,0.1,6.5-0.6c3.4-1.3,6.6,0,9.8,0.3C523.1,471.4,522.8,472.7,524,472.5z"/>
		<path class="st108" d="M522.5,471c-2.3,0.2-4.4,1.5-7,0.1c-1.2-0.6-2.9,1.4-4.9,1.5c-3.4,0.2-6.6,0.3-9.9-0.6
			c-1.7-0.4-3,0.8-4.4,1.1c-4.2,1-7.5-0.9-10.9-2.5c-1.9-0.9-3.9-2.1-2.6-4.9c0.4-0.9,0.5-1.9,0.7-2.8c0.9-2.2,1.7-4.5,4.4-5.2
			c0,1.2,1.4,2.2,0.3,3.9c-0.3,0.5,2.2,0.8,3.3,1.3c1.8,0.4,3.7,0.2,4.7,2.6c0.7,1.7,2.6,1.2,4.1,0.4c6.6,0.6,13.2,1.4,19.5,3.3
			c0.7,0.2,1.3,0.6,1.8,1.2C522,470.5,522.3,470.8,522.5,471z"/>
		<path class="st109" d="M521.8,470.3c-3.3-0.4-6.6,0-9.7-2.2c-1.7-1.2-4.2,0.5-6.5,0c-1.9-0.4-3.8-0.7-5.2-2.2c0.7-1,1.5-2,2.2-2.9
			c0.8-1.3,2-1.8,3.4-1.6c7,0.8,13.9,1.1,21,0.6c3.5,1.7,4,2.7,2.1,4.7c-2.2-0.1-4.3,1.8-6.6,0.5c-0.4-0.2-1,0.1-1.1,0.6
			c-0.1,1.5,1.5,0.2,1.8,1.1C522.8,469.3,522.3,469.8,521.8,470.3z"/>
		<path class="st110" d="M529.2,466.6c0.7-2.6-0.8-3.4-2.9-3.7c-0.8-1.7-0.8-3.4,0-5.2c2.2-0.5,3.9,0.9,5.8,1.4
			c3,0.7,8.4-1,10.4-3.6c3.4-0.5,2.9-4,4.4-5.9c0.2-0.4,0.5-0.4,0.7,0c0,1.5-0.1,2.9-0.1,4.4c-0.5,1-0.4,2,0.1,2.9
			c0.2,0.2,0.5,0.5,0.7,0.7c-1,6.5-2.9,8.2-9.6,7.6c-1.9-0.2-2.9,1-4.4,1.4C532.6,467.2,530.9,467.5,529.2,466.6z"/>
		<path class="st99" d="M547.6,457c-0.5-1-1.9-1.9-0.1-2.9c0.1,0.4,0.2,0.8,0.2,1.3C547.7,455.9,547.6,456.5,547.6,457z"/>
		<path class="st111" d="M591.8,420.2c0.8-1.6-1.1-1.4-1.5-2.2c0.7,0,1.4,0,2.1,0.1c0.8,0.1,1.6,0.4,2.7,0.7
			C594,419.8,592.9,420.2,591.8,420.2z"/>
		<path class="st112" d="M526.2,457.8c-0.2,1.7,1.4,3.4,0,5.2c-2.7,1.5-6.1-0.9-8.7,1.5c-0.4,0.4-0.8,0.3-1.3,0.1
			c-4.3-2.4-9-2-13.6-1.6c-1.7-1.5-2.8-3.5-4.4-5.1c-2.3-2.3-1.9-5.3-0.8-8.1c2.5,0.7,2.8,2.2,1.3,4.5c1.6-0.1,2.6-2.3,3.8-0.8
			c2,2.4,4.5,3.9,7.5,4.8c1.3,0.4,2.1,0.8,3.5,0.2c2.9-1.1,6-2.4,8.8,0.6C524.2,460.8,525.1,458.5,526.2,457.8z"/>
		<path class="st113" d="M553.5,438.6c-1.5,1.7-2.9,3.4-4.4,5.2c-1.1,1-2.2,1.9-3.2,3c-0.6,0.6-1,1.5-2,1.2c-1-0.3-1.2-1-1.1-2
			c0-1.5-0.4-2-1.9-1c-2.8,2-3.7,0.2-3.4-2.2c0.4-2.7-1-3-2.9-2.6c-1.5,0.2-2.7,0.2-3.1-1.6c0.2-3.1,2.6-4.2,4.9-5.3
			c2.3,0.2,4.6,0.8,6.8-0.4c0.4-0.2,1-0.2,1.4,0c1.3,0.4,5.1,5.8,5.2,7.3C550.6,438.9,551.5,437.5,553.5,438.6z"/>
		<path class="st114" d="M536.5,434.2c-1.7,1.5-3.4,2.9-5.2,4.4c-2,0.8-1.4-2.2-3.5-2.2c-1.7,0-3.7-0.6-6.3,0
			c2.4-2.8,4.9-4.4,4.8-7.9c0-1.4,2.6-2.3,4.3-3c1.9-0.7,4-1,5.8-2.2c0.3,0,0.5,0,0.8,0c1.4,1.1,2,2.8,1.4,4.2
			C537.6,429.6,537.5,432,536.5,434.2z"/>
		<path class="st109" d="M500.4,465.9c-2.7,3-4,2.9-5.4-0.8c-0.6-1.7-2.8-0.6-3.5-2.2c2.2-0.5,4.7-2.7,5.7,1.6
			C497.5,465.5,499.3,465.6,500.4,465.9z"/>
		<path class="st115" d="M536.5,434.2c-0.1-2.1-2.5-4.2,0.9-6.2c1.2-0.7-0.2-3.2-0.1-4.8c1.2-0.3,2.4-0.5,3.7-0.8
			c1.2-0.2,2.5-0.5,3.7-0.7c0.7,0.6,1.5,0.6,2.4,0.3c2.2-0.7,4.5-1,6.8-0.1c1.1,0.5,2.2,0.1,3.2-0.3c2.9-1.2,5.8-0.7,8.6-0.2
			c1.2,0.2,2.6,0.7,2.6,2.1c0,1.3-1.5,1.5-2.5,1.6c-2.4,0.3-4.5,1.5-7.1,2.6c2.8,0.1,4.7,1,5.2,3.6c-3.3,2.7-7.3,4.3-10.3,7.4
			c-2.1,0-2.8,2.6-4.9,2.9c0.7-3.7-0.6-5-4.7-4.8c-0.2-1.1,1.9-1.7,0.9-2.7c-1-1-2,0.3-2.8,0.9C539.8,436.5,538.3,434.5,536.5,434.2
			z"/>
		<path class="st116" d="M563.8,431.3c-0.8-0.1-1.3-0.6-1.8-1.2c-1.3-1.4-2.6-2.2-4,0c-0.3,0.5-1.1,0.5-1.7,0
			c2.7-4.9,4.3-5.8,10.8-6.5c-1.9-1.3-7-2.2-9-1.1c-2.1,1.1-3.8,1.6-6.1,0.2c-1.3-0.8-3.1-0.5-4.7-0.1c-1.2,0.3-2.2,0.3-2.8-1
			c8.7-2.6,17.5-3.3,26.5-3c2.2,0.1,4.3,0,6.4,1.1c1.7,0.9,3.8,0.6,5.7-0.2c1.2-0.5,2.5-1.3,3.5,0.4c-1.3,1.8-3.7,1.8-5.3,3.1
			C575.3,425.3,569.7,428.6,563.8,431.3z"/>
		<path class="st105" d="M526.2,504.9c-1-0.5-2-0.3-2.8,0.1c-7.4,3.5-15.7,4.5-22.9,8.2c-4.8,2.4-10,1.6-14.6,4
			c-1.8,1-3.7,1.6-5.4,3c-3,2.5-6.8,1.4-10.2,1.9c-1,0.1-0.6-1.7-1.4-2.4c0-2-0.6-4,0.8-6.7c0.7,4,2.5,3.7,4.7,2.1
			c1-0.7,2-1.3,3.3-1.4c6.2-2,12.5-3.9,18.5-6.5c1.7-0.7,3.6,0,5.5-0.1c4.6-0.5,8.6-2.5,12.7-4.6c0.4-0.2,0.8-0.6,1.3-0.7
			c5.1-1.4,10.2-2.9,14.3-6.4c0.7,0.7,1.5,1.5,2.2,2.2C531.3,500.9,527.3,501.8,526.2,504.9z"/>
		<path class="st117" d="M529.9,495.3c-2.3,3.7-5.3,6.6-10.1,6.4c-3-0.1-4.8,2.2-7.2,3.3c-3.5,1.6-7.2,3.8-10.9,3.3
			c-7.6-1-13,5.1-20.1,5.3c-1.3,0.1-2.7,0.1-4,0.1c0.1-0.3,0.2-0.9,0.4-1c5.2-2,9.7-5.3,15.6-6.3c3.2-0.5,7.3-0.6,9.9-3.5
			c0.5-0.6,1.1-0.9,1.9-0.9c3.7,0.4,6.4-1.7,9-3.8c2.8-0.7,5.1-3.3,8.5-2.1c0.9,0.3,2-0.8,2.5-1.8c0.8-1.7,1.9-1,3-0.5
			c0.2,0.2,0.5,0.5,0.7,0.7C529.4,494.8,529.7,495.1,529.9,495.3z"/>
		<path class="st99" d="M542.4,463.6c-0.3,0.7-0.9,0.8-1.5,0.7c-0.5,0-1.1-0.3-0.8-0.9c0.1-0.3,0.8-0.4,1.3-0.5
			C541.8,462.9,542.4,462.9,542.4,463.6z"/>
	</g>
	<g class="st48">
		<path class="st75" d="M502.7,781.3c13.4,3,26.2,1.2,38.4-5.2c4.2-2.2,7.7-5.4,11.1-8.6c4.2,0.2,8.3-0.4,12.5-0.4
			c4.5,0,8.8-1.2,11.7-5.3c1.2-1.8,2.8-3,5.1-2.6c2.4,0.4,3.2,2.3,3.9,4.3c1.4,3.8,0.6,7.5-1,11c-3.7,7.7-8.2,14.8-13.8,21.3
			c-0.9,1.1-1.4,2.3-2.1,3.4c-12,13-27.1,20.2-44.3,23.4c-15.8,3-31.4,2.2-46.6-3.4c-0.5-6.5,3.4-10.1,8.8-11.9
			c7.7-2.6,14.9-6.3,22.2-9.7c5.9-2.8,11.1-7.4,16.9-11c-4.4,0-8.7,0.3-13,0c-2.6-0.2-5.1-0.7-7.4-1.8
			C503.8,784,502.3,783.3,502.7,781.3z"/>
		<path class="st118" d="M514.1,673.3c0,0.1,0.1,0.3,0,0.4c-6.2,10.9-0.9,15.3,8.1,19.7c4.2,2.1,9,2.7,14.3,2.6c-2,2.5-4,3.9-6.3,5
			c-12.9,6.3-26.3,8.5-40.2,3.9c-1.2-0.4-2.3-0.8-3.5-0.7c-1.3,4.7-4.9,5.8-9.2,6.3c-7.1,0.7-14.2,1.2-21.3,1.9
			c-3.9,0.4-8-0.2-12-0.5c-6.8-0.5-9.8-6.2-7.3-12.5c0.6-1.6,1.7-3.1,1.8-4.9c10.8-17.7,25.8-30.5,44.7-39c0.8,1.9-0.7,3-1.7,4.2
			c-1.1,1.3-2.5,2.5-3.4,4c-2.7,4.3-1.5,5.8,2.9,7.8c6.8,3,14.1,3.9,21,6.1c2.9,0.9,4.9,0.2,7-1.6
			C510.5,674.5,511.6,672.5,514.1,673.3z"/>
		<path class="st119" d="M438.5,694.4c1.4,2.1-0.6,3.5-1,5.2c-1.9,7,2.7,12.3,9.9,10.6c2.8-0.7,5.1,1.3,7.5,0.8
			c5.1-1,10.2-1,15.3-1.5c0.4,0,0.8-0.3,1.2-0.3c5.6-0.2,11.3,0,15.2-5c-0.2,7.6,1.7,14.6,5.5,21.2c-0.1,1.3,0.7,2.4,0.6,3.7
			c0.2,4.1-2,6.6-5.6,8c-16.7,6.9-34,12.1-51.3,17.6c-3.6,1.1-7.5,1.1-11,2.5c-1.6-7.7-0.8-15.3,0.2-22.9
			C426.8,720,430.8,706.6,438.5,694.4z"/>
		<path class="st120" d="M502.7,781.3c2.8,2.7,6.2,3.2,9.8,3.6c5.4,0.7,10.6-0.9,16.4-0.3c-2.3,4.5-6.5,6.1-10.4,7.9
			c-1.5,0.7-3.2,1.1-4,2.6c-1.7,3.2-4.9,4.3-7.9,5.1c-7.4,2-13.6,6.9-21.1,9c-2.4,0.7-7,2.1-5.8,7.1c0.3,1.3-1.6,1.6-2.1,2.7
			c-14.6-5-26.7-13.7-37-25c-0.3-0.4-0.5-0.9-0.7-1.4c0.1-3.8,2.4-5.7,5.4-7.8c8.2-5.7,17.9-8.6,25.9-14.7c2.6-2,4.9-3.7,4.3-7.5
			c-0.2-1.3-0.3-3.1,1.9-3.3C483.2,769.7,491.3,777.5,502.7,781.3z"/>
		<path class="st121" d="M477.4,759.4c-0.9,1-1,2.4-0.6,3.5c1.4,4-0.9,5.9-3.7,7.9c-9,6.5-19.4,10.4-28.8,16.1
			c-2.6,1.6-1.7,4.9-4.4,5.9c-8.7-10.3-14.1-22.1-15.2-35.6c0.1-1.5,0.6-2.5,2.4-2.6c8.4-0.7,16.1-3.9,24.1-6.4
			c11.7-3.7,23.2-7.7,34.7-12.1c3.6-1.4,5.6-3.5,5.5-7.4c2.8-0.3,3.5,2.1,4.5,3.8c1.6,2.5,2.2,5.4,2.3,8.4c0.1,3.6-1.1,6.1-4.5,7.2
			c-4.1,1.3-7.1,4.9-11.3,5.9c-2.8,0-4.7-2.4-7.7-2.6C475.6,754,476.5,756.7,477.4,759.4z"/>
		<path class="st122" d="M514.1,673.3c-1.2,1.1-2.5,2-3.6,3.2c-2.6,2.7-5,3.4-9.2,2.4c-4.7-1.1-9.2-3.1-14.2-3.5
			c-3.5-0.3-7.3-2.5-10.8-4.1c-2.4-1-1.4-6.7,1.3-9.7c1.9-2.1,3.8-4.1,5.7-6.2c10.9-5.7,22.6-8.6,34.6-10.4
			c13.4-2.1,26.9-2.2,40.4-0.9c1.8,0.2,3.5,0.3,5.7,1.3C545.4,651.8,527.8,659.2,514.1,673.3z"/>
		<path class="st123" d="M568.4,799.1c0-1.1-0.3-2.4,0.5-3.1c3.5-2.7,5-7,7.5-10.4c3.9-5.4,8.3-10.9,8.2-18.2c0-1.4-0.1-2.7-0.8-3.9
			c-0.8-1.3-0.7-3.4-3-3.2c-1.9,0.1-2.7,1.3-3.5,2.8c-1.8,3.5-9.2,6.5-13.8,5.6c-1.6-0.3-3.3-0.6-4.8,0.1c-2.5,1.2-4.6,0.7-6.5-1.2
			c1.5-2.2,3-4.4,4.8-7.1c-10.2,2.4-19.6,2.7-28.1-5.2c16.9-1.8,28.8-9.4,34.7-25c3.8-1.2,7.5-2.7,11.3-3.8c3.9-1.1,6.7-3.1,7.5-7.4
			c0.2-1.1,0.4-2.5,2-2.6c6.2,17.7,8.2,35.7,2.4,53.8C583.2,781.3,577.2,791.2,568.4,799.1z"/>
		<path class="st124" d="M584.4,716.4c-1.1,2.8-0.1,6.7-3.1,8.3c-5.4,3-10.9,6.4-17.7,5.4c-0.2-3-2.4-1.4-3.6-1.3
			c-7.2,0.3-14.2-0.2-21.2-4.4c9.1-1.9,16.5-5.7,22.1-12.4c5.8-6.9,7.6-15,6.6-25.1C575.6,696.3,580.9,705.8,584.4,716.4z"/>
		<path class="st125" d="M482.3,753.8c2.5-2.6,5.1-4.9,8.7-6.2c5.7-2.1,6.6-3.2,5.6-9c-0.6-3.7-1.8-7.7-5.3-10.1
			c0-1.1-0.2-2.3,0.6-3.2c8.4,11.3,19.9,16.4,33.6,17.4C520.6,750.8,498.6,759.3,482.3,753.8z"/>
	</g>
	<path class="st126" d="M254.8,728.1c0.2,7.4-7.2,15.5-14.6,15.8c-8.4,0.4-17.2-7.6-17.1-15.5c0.1-8.4,7.2-15.3,15.8-15.5
		C247.6,712.8,254.6,719.4,254.8,728.1z"/>
	<path class="st127" d="M292.6,741.5c-5.9,2.5-8.8,1.1-11.4-2.8c-2.5-3.9-5.8-6.9-6.7,1c-0.3,2.3-1,3.6-3.5,3.5
		c-3.5-0.1-3-2.7-3-4.9c-0.1-4.6-0.9-9.3,0.1-13.6c0.9-3.9-5-11.2,5.1-11.5c13-0.5,19.2,2.5,20.8,11c0.5,2.7,0.9,5.8-2,6.8
		C283.5,733.9,286.6,737.3,292.6,741.5z"/>
	<path class="st128" d="M314.1,723.6c0,6.7-0.2,11.4,0.1,16.1c0.1,2.7-1.3,3.5-3.4,3.5c-2.6,0-3-1.3-2.8-3.8
		c0.6-7.1,0.7-14.3,1.1-21.5c0.1-1.8-0.6-4.1,2-4.8c2.3-0.6,4.5-0.2,6.2,1.7c3.5,4.2,7,8.5,11,13.3c2.1-3.7,0.8-7.6,1-11.1
		c0.1-2.1,0-3.9,2.7-4c3-0.1,2.8,1.8,2.7,3.9c-0.1,6.5,0.1,13-0.1,19.6c-0.1,2,1.3,4.8-1.8,5.8c-2.8,0.9-5.2-0.4-6.8-2.6
		C322.3,734.9,318.9,730.1,314.1,723.6z"/>
	<path class="st129" d="M413.2,718.1c-1.5,0.6-2.1,0.8-2.7,1c-4.2,1.1-11.1-2.6-12.1,2.9c-1.1,5.8,6.5,4.7,10.2,6.4
		c6.7,3,5.7,7.1,2.4,11.5c-4.2,5.5-15.8,5.4-20.1,0.1c-0.9-1.1-1.6-3.2-1.2-4.3c0.7-1.8,2.8-1.1,4.3-0.6c1.5,0.5,2.8,1.6,4.3,2.1
		c2.5,0.8,5.8,1.8,6.7-1.3c1.1-3.6-2.8-2.5-4.6-3.2c-4.6-1.7-9.7-3.3-10.2-9.1c-0.4-4.6,2.4-8.4,6.7-9.7
		C402.5,712,408.4,711.2,413.2,718.1z"/>
	<path class="st130" d="M375.8,732c-4,4.1-8.3,1.4-12.3,1.6c-1.6,0.1-3.5-0.1-3.8,2c-0.4,2.8,1.5,3.1,3.6,3.2c1,0,2.1-0.2,2.9,0.2
		c3.2,1.6,9.5-3,9.5,2.4c-0.1,3.6-6.7,0.7-10.3,1.5c-10.3,2.3-12.4-2.6-12.1-12c0.4-16.8,2.1-18.6,18.8-16.4c3,0.4,4,1.5,3.8,4.2
		c-0.2,2.8-1.5,4.2-4.4,3.3c-0.6-0.2-1.3-0.8-1.8-0.7c-3.7,1-10.4-3.7-10.4,4.1c0,7,6.3,2.9,9.8,3.8C371.2,730,373.7,729,375.8,732z
		"/>
	<path class="st131" d="M371.1,708.8c1.5-3.9,3.7-5.4,7-4.9c1.4,0.2,2,1.7,1.3,3C377.6,710.1,374.7,709.9,371.1,708.8z"/>
	<path class="st132" d="M357.8,709c0.6-4.3,2.9-6,6.7-5.7c0.4,0,1.2,1.7,1,2.2C364.2,708.4,362.1,710.1,357.8,709z"/>
	<path class="st133" d="M247.9,728.5c-0.8,4.7-2.5,8.7-8.3,8.7c-5.2,0-8.8-2.6-8.8-8.1c0-5.9,4.4-8.8,9.3-9.2
		C245,719.6,246.8,724.1,247.9,728.5z"/>
	<path class="st134" d="M287.5,725.9c-1.7,4.7-6.3,3.6-9.8,4.5c-3.1,0.8-4.1-1.1-3.6-3.9c0.7-4.4,3.1-7.2,7.8-6.6
		C285.2,720.3,287.1,722.4,287.5,725.9z"/>
</g>
<g id="Layer_3" class="st0">
	<linearGradient id="SVGID_1_" gradientUnits="userSpaceOnUse" x1="766.9713" y1="485.4901" x2="766.9713" y2="648.7951">
		<stop  offset="0" style="stop-color:#7622B2"/>
		<stop  offset="0.582" style="stop-color:#232A58"/>
		<stop  offset="0.7073" style="stop-color:#1D2441"/>
		<stop  offset="0.8001" style="stop-color:#18233D"/>
		<stop  offset="0.9069" style="stop-color:#111B2C"/>
		<stop  offset="1" style="stop-color:#000000"/>
	</linearGradient>
	<path class="st135" d="M817.7,487.4c0,0,0.7-0.6-0.3-0.7c-9.2-1.2-59.7-6.4-91.8,21.9c-35.4,31.3-34.2,63.8-33.8,76.5
		c0.2,7.4,3.1,19.2,9.9,29.9c4.7,7.5,11.3,14.2,19.2,20.1c19.2,14.2,48,17.3,73.1,9.8c11.9-3.6,21.7-10.6,30.6-19.4
		c9.8-9.8,16.8-21.8,17.4-36.9c1.2-28.8-3.5-40.7-8.8-49c-5.3-8.2-10.7-14.7-10.7-14.7s-0.3,14.1-4.4,20.1
		c-5.7,8.2-15.9,12.7-18.6,13.2c-2.7,0.6-4.3,1-4.3,1s7.3,3.8,14.9,3.8c5.7,0,8.7-0.6,8.7-0.6s-4,11-10.8,15.9
		c-7.5,5.3-20.4,8.5-20.4,8.5s6.1,5.5,14,6.1c7.8,0.6,11.1-1.1,11.1-1.1s-12.1,15.3-30,18.7c-4.4,0.8-8.7,1.4-12.4,1
		c-10.8-1-17.7-6.6-21.1-9.1c-5.8-4.2-13-16.8-11.5-18.6c1-1.2,3.9,5.8,24.4,2.3s22.4-10.9,22.4-10.9s-17.3-0.9-24.6-8.8
		c-2.7-3-5.5-5.3-7.3-8.4c-3.3-5.6-4.9-10.8-4.4-15.3c0.2-2.2,0.7-3,0.7-3s10.7,5.1,24.4,2.6C787,539.8,794,533,794,533
		s-9,0.1-14.8-3c-5.8-3.1-10.6-7.3-7.9-14.1C779.2,496.3,817.7,487.4,817.7,487.4z"/>
</g>
<g id="Layer_5" class="st0">
	<text transform="matrix(1 0 0 1 728.9395 669.9865)" class="st48 st136 st137">ORBAN</text>
	<text transform="matrix(1 0 0 1 729.832 688.6066)" class="st48 st136 st137">forest</text>
</g>
<g id="Layer_6">
	<linearGradient id="SVGID_2_" gradientUnits="userSpaceOnUse" x1="930.2063" y1="414.3838" x2="930.2063" y2="648.7946">
		<stop  offset="0" style="stop-color:#7622B2"/>
		<stop  offset="0.582" style="stop-color:#232A58"/>
		<stop  offset="0.7073" style="stop-color:#1D2441"/>
		<stop  offset="0.8001" style="stop-color:#18233D"/>
		<stop  offset="0.9069" style="stop-color:#111B2C"/>
		<stop  offset="1" style="stop-color:#000000"/>
	</linearGradient>
	<path class="st138" d="M1003.1,417.1c0,0,0.9-0.8-0.4-1c-13.2-1.7-85.7-9.2-131.8,31.5c-50.8,44.9-49.1,91.6-48.5,109.7
		c0.3,10.7,4.5,27.6,14.2,42.9c6.8,10.7,16.3,20.4,27.6,28.8c27.5,20.4,68.9,24.9,104.9,14.1c17.1-5.1,31.2-15.2,43.9-27.9
		c14.1-14.1,24.1-31.4,25-53c1.8-41.3-5-58.5-12.6-70.3c-7.6-11.8-15.3-21.1-15.3-21.1s-0.4,20.3-6.3,28.8
		c-8.1,11.8-22.8,18.2-26.6,19s-6.2,1.4-6.2,1.4s10.5,5.5,21.3,5.5c8.1,0,12.5-0.8,12.5-0.8s-5.7,15.8-15.5,22.8
		c-10.7,7.7-29.2,12.3-29.2,12.3s8.7,7.9,20,8.7c11.2,0.8,15.9-1.6,15.9-1.6s-17.4,22-43.1,26.9c-6.4,1.2-12.4,2-17.8,1.5
		c-15.5-1.5-25.4-9.5-30.3-13c-8.4-6.1-18.6-24.2-16.6-26.7c1.4-1.7,5.5,8.3,35.1,3.3c29.5-5.1,32.1-15.6,32.1-15.6
		s-24.9-1.3-35.3-12.6c-3.9-4.3-8-7.6-10.5-12c-4.7-8-7-15.5-6.3-22c0.3-3.2,1-4.3,1-4.3s15.3,7.4,35,3.8
		c19.7-3.6,29.7-13.4,29.7-13.4s-12.9,0.1-21.2-4.4c-8.3-4.5-15.2-10.5-11.3-20.3C947.8,429.8,1003.1,417.1,1003.1,417.1z"/>
</g>
<g id="Layer_6_copy" class="st0">
	<linearGradient id="SVGID_3_" gradientUnits="userSpaceOnUse" x1="962.9688" y1="485.4897" x2="962.9688" y2="648.7946">
		<stop  offset="0" style="stop-color:#CDDB2A"/>
		<stop  offset="0.582" style="stop-color:#023F23"/>
		<stop  offset="0.7073" style="stop-color:#083C33"/>
		<stop  offset="0.8001" style="stop-color:#18233D"/>
		<stop  offset="0.9069" style="stop-color:#1F1E1D"/>
		<stop  offset="1" style="stop-color:#000000"/>
	</linearGradient>
	<path class="st139" d="M1013.7,487.4c0,0,0.7-0.6-0.3-0.7c-9.2-1.2-59.7-6.4-91.8,21.9c-35.4,31.3-34.2,63.8-33.8,76.5
		c0.2,7.4,3.1,19.2,9.9,29.9c4.7,7.5,11.3,14.2,19.2,20.1c19.2,14.2,48,17.3,73.1,9.8c11.9-3.6,21.7-10.6,30.6-19.4
		c9.8-9.8,16.8-21.8,17.4-36.9c1.2-28.8-3.5-40.7-8.8-49c-5.3-8.2-10.7-14.7-10.7-14.7s-0.3,14.1-4.4,20.1
		c-5.7,8.2-15.9,12.7-18.6,13.2s-4.3,1-4.3,1s7.3,3.8,14.9,3.8c5.7,0,8.7-0.6,8.7-0.6s-4,11-10.8,15.9c-7.5,5.3-20.4,8.5-20.4,8.5
		s6.1,5.5,14,6.1c7.8,0.6,11.1-1.1,11.1-1.1s-12.1,15.3-30,18.7c-4.4,0.8-8.7,1.4-12.4,1c-10.8-1-17.7-6.6-21.1-9.1
		c-5.8-4.2-13-16.8-11.5-18.6c1-1.2,3.9,5.8,24.4,2.3s22.4-10.9,22.4-10.9s-17.3-0.9-24.6-8.8c-2.7-3-5.5-5.3-7.3-8.4
		c-3.3-5.6-4.9-10.8-4.4-15.3c0.2-2.2,0.7-3,0.7-3s10.7,5.1,24.4,2.6C983,539.8,990,533,990,533s-9,0.1-14.8-3
		c-5.8-3.1-10.6-7.3-7.9-14.1C975.2,496.3,1013.7,487.4,1013.7,487.4z"/>
</g>
<g id="Layer_7" class="st0">
	<linearGradient id="SVGID_4_" gradientUnits="userSpaceOnUse" x1="1175.1793" y1="490.7108" x2="1175.1793" y2="654.0157">
		<stop  offset="0" style="stop-color:#7622B2"/>
		<stop  offset="0.582" style="stop-color:#232A58"/>
		<stop  offset="0.7073" style="stop-color:#1D2441"/>
		<stop  offset="0.8001" style="stop-color:#18233D"/>
		<stop  offset="0.9069" style="stop-color:#111B2C"/>
		<stop  offset="1" style="stop-color:#000000"/>
	</linearGradient>
	<path class="st140" d="M1225.9,492.6c0,0,0.7-0.6-0.3-0.7c-9.2-1.2-59.7-6.4-91.8,21.9c-35.4,31.3-34.2,63.8-33.8,76.5
		c0.2,7.4,3.1,19.2,9.9,29.9c4.7,7.5,11.3,14.2,19.2,20.1c19.2,14.2,48,17.3,73.1,9.8c11.9-3.6,21.7-10.6,30.6-19.4
		c9.8-9.8,16.8-21.8,17.4-36.9c1.2-28.8-3.5-40.7-8.8-49c-5.3-8.2-10.7-14.7-10.7-14.7s-0.3,14.1-4.4,20.1
		c-5.7,8.2-15.9,12.7-18.6,13.2s-4.3,1-4.3,1s7.3,3.8,14.9,3.8c5.7,0,8.7-0.6,8.7-0.6s-4,11-10.8,15.9c-7.5,5.3-20.4,8.5-20.4,8.5
		s6.1,5.5,14,6.1c7.8,0.6,11.1-1.1,11.1-1.1s-12.1,15.3-30,18.7c-4.4,0.8-8.7,1.4-12.4,1c-10.8-1-17.7-6.6-21.1-9.1
		c-5.8-4.2-13-16.8-11.5-18.6c1-1.2,3.9,5.8,24.4,2.3c20.6-3.5,22.4-10.9,22.4-10.9s-17.3-0.9-24.6-8.8c-2.7-3-5.5-5.3-7.3-8.4
		c-3.3-5.6-4.9-10.8-4.4-15.3c0.2-2.2,0.7-3,0.7-3s10.7,5.1,24.4,2.6c13.7-2.5,20.7-9.3,20.7-9.3s-9,0.1-14.8-3
		c-5.8-3.1-10.6-7.3-7.9-14.1C1187.4,501.5,1225.9,492.6,1225.9,492.6z"/>
</g>
<g id="Layer_7_copy" class="st0">
	<path class="st141" d="M1230.9,498.6c0,0,0.7-0.6-0.3-0.7c-9.2-1.2-59.7-6.4-91.8,21.9c-35.4,31.3-34.2,63.8-33.8,76.5
		c0.2,7.4,3.1,19.2,9.9,29.9c4.7,7.5,11.3,14.2,19.2,20.1c19.2,14.2,48,17.3,73.1,9.8c11.9-3.6,21.7-10.6,30.6-19.4
		c9.8-9.8,16.8-21.8,17.4-36.9c1.2-28.8-3.5-40.7-8.8-49c-5.3-8.2-10.7-14.7-10.7-14.7s-0.3,14.1-4.4,20.1
		c-5.7,8.2-15.9,12.7-18.6,13.2s-4.3,1-4.3,1s7.3,3.8,14.9,3.8c5.7,0,8.7-0.6,8.7-0.6s-4,11-10.8,15.9c-7.5,5.3-20.4,8.5-20.4,8.5
		s6.1,5.5,14,6.1c7.8,0.6,11.1-1.1,11.1-1.1s-12.1,15.3-30,18.7c-4.4,0.8-8.7,1.4-12.4,1c-10.8-1-17.7-6.6-21.1-9.1
		c-5.8-4.2-13-16.8-11.5-18.6c1-1.2,3.9,5.8,24.4,2.3c20.6-3.5,22.4-10.9,22.4-10.9s-17.3-0.9-24.6-8.8c-2.7-3-5.5-5.3-7.3-8.4
		c-3.3-5.6-4.9-10.8-4.4-15.3c0.2-2.2,0.7-3,0.7-3s10.7,5.1,24.4,2.6c13.7-2.5,20.7-9.3,20.7-9.3s-9,0.1-14.8-3
		c-5.8-3.1-10.6-7.3-7.9-14.1C1192.4,507.5,1230.9,498.6,1230.9,498.6z"/>
	<path class="st142" d="M1232.7,492.6c0,0,0.7-0.6-0.3-0.7c-9.2-1.2-59.7-6.4-91.8,21.9c-35.4,31.3-34.2,63.8-33.8,76.5
		c0.2,7.4,3.1,19.2,9.9,29.9c4.7,7.5,11.3,14.2,19.2,20.1c19.2,14.2,48,17.3,73.1,9.8c11.9-3.6,21.7-10.6,30.6-19.4
		c9.8-9.8,16.8-21.8,17.4-36.9c1.2-28.8-3.5-40.7-8.8-49c-5.3-8.2-10.7-14.7-10.7-14.7s-0.3,14.1-4.4,20.1
		c-5.7,8.2-15.9,12.7-18.6,13.2c-2.7,0.6-4.3,1-4.3,1s7.3,3.8,14.9,3.8c5.7,0,8.7-0.6,8.7-0.6s-4,11-10.8,15.9
		c-7.5,5.3-20.4,8.5-20.4,8.5s6.1,5.5,14,6.1c7.8,0.6,11.1-1.1,11.1-1.1s-12.1,15.3-30,18.7c-4.4,0.8-8.7,1.4-12.4,1
		c-10.8-1-17.7-6.6-21.1-9.1c-5.8-4.2-13-16.8-11.5-18.6c1-1.2,3.9,5.8,24.4,2.3c20.6-3.5,22.4-10.9,22.4-10.9s-17.3-0.9-24.6-8.8
		c-2.7-3-5.5-5.3-7.3-8.4c-3.3-5.6-4.9-10.8-4.4-15.3c0.2-2.2,0.7-3,0.7-3s10.7,5.1,24.4,2.6c13.7-2.5,20.7-9.3,20.7-9.3
		s-9,0.1-14.8-3c-5.8-3.1-10.6-7.3-7.9-14.1C1194.2,501.5,1232.7,492.6,1232.7,492.6z"/>
</g>
<g id="Layer_8" class="st0">
	<text transform="matrix(1 0 0 1 904.5899 668.9971)" class="st48 st143 st144">ORBAN</text>
	<text transform="matrix(1 0 0 1 962.9688 669.418)" class="st48 st143 st144">forest</text>
	<text transform="matrix(1 0 0 1 1119.5765 673.5145)" class="st48 st145 st146">orban</text>
	<text transform="matrix(1 0 0 1 1178.9468 673.7258)" class="st48 st145 st146">forest</text>
</g>
<g id="Layer_10" class="st0">
	<text transform="matrix(1 0 0 1 1123.6089 676.5766)" class="st48 st143 st144">ORBAN</text>
	<text transform="matrix(1 0 0 1 1181.9878 676.9975)" class="st48 st143 st144">forest</text>
	<text transform="matrix(1 0 0 1 904.5904 667.8955)" class="st48 st143 st144">ORBAN</text>
	<text transform="matrix(1 0 0 1 962.9693 668.3164)" class="st48 st143 st144">forest</text>
</g>
<g id="Layer_12">
	<path class="st147" d="M1003.1,417.1c0,0,0.9-0.8-0.4-1c-13.2-1.7-85.7-9.2-131.8,31.5c-50.8,44.9-49.1,91.6-48.5,109.7
		c0.3,10.7,4.5,27.6,14.2,42.9c6.8,10.7,16.3,20.4,27.6,28.8c27.5,20.4,68.9,24.9,104.9,14.1c17.1-5.1,31.2-15.2,43.9-27.9
		c14.1-14.1,24.1-31.4,25-53c1.8-41.3-5-58.5-12.6-70.3c-7.6-11.8-15.3-21.1-15.3-21.1s-0.4,20.3-6.3,28.8
		c-8.1,11.8-22.8,18.2-26.6,19s-6.2,1.4-6.2,1.4s10.5,5.5,21.3,5.5c8.1,0,12.5-0.8,12.5-0.8s-5.7,15.8-15.5,22.8
		c-10.7,7.7-29.2,12.3-29.2,12.3s8.7,7.9,20,8.7c11.2,0.8,15.9-1.6,15.9-1.6s-17.4,22-43.1,26.9c-6.4,1.2-12.4,2-17.8,1.5
		c-15.5-1.5-25.4-9.5-30.3-13c-8.4-6.1-18.6-24.2-16.6-26.7c1.4-1.7,5.5,8.3,35.1,3.3c29.5-5.1,32.1-15.6,32.1-15.6
		s-24.9-1.3-35.3-12.6c-3.9-4.3-8-7.6-10.5-12c-4.7-8-7-15.5-6.3-22c0.3-3.2,1-4.3,1-4.3s15.3,7.4,35,3.8
		c19.7-3.6,29.7-13.4,29.7-13.4s-12.9,0.1-21.2-4.4c-8.3-4.5-15.2-10.5-11.3-20.3C947.8,429.8,1003.1,417.1,1003.1,417.1z"/>
</g>
</svg>
