<?xml version="1.0" encoding="UTF-8"?>
<svg width="1200pt" height="1200pt" version="1.1" viewBox="0 0 1200 1200" xmlns="http://www.w3.org/2000/svg">
 <path d="m1143.7 422.21c0-10.359-8.3906-18.75-18.75-18.75h-173.63c-10.359 0-18.75 8.3906-18.75 18.75v686.95c0 10.359 8.3906 18.75 18.75 18.75h173.63c10.359 0 18.75-8.3906 18.75-18.75zm-583.78 93.984c0-10.312-8.4375-18.75-18.75-18.75h-173.63c-10.359 0-18.75 8.4375-18.75 18.75v592.97c0 10.359 8.3906 18.75 18.75 18.75h173.63c10.312 0 18.75-8.3906 18.75-18.75zm292.5 150.56c0-10.359-8.3906-18.75-18.75-18.75h-173.63c-10.312 0-18.75 8.3906-18.75 18.75v442.4c0 10.359 8.4375 18.75 18.75 18.75h173.63c10.359 0 18.75-8.3906 18.75-18.75zm-585.1 60.891c0-10.359-8.3906-18.75-18.75-18.75h-173.63c-10.359 0-18.75 8.3906-18.75 18.75v381.52c0 10.359 8.3906 18.75 18.75 18.75h173.63c10.359 0 18.75-8.3906 18.75-18.75zm547.6-42.141v404.9h-136.13v-404.9zm-292.5-150.56v555.47h-136.13v-555.47zm583.78-93.984v649.45h-136.13v-649.45zm-876.37 305.44v344.02h-136.13v-344.02zm747-550.08c-0.046875 0.046875-0.09375 0.14062-0.14062 0.1875l-191.21 252.79c-11.344-6.6094-24.562-10.359-38.625-10.359-20.438 0-39.141 8.0625-52.969 21.094l-166.45-144c2.6719-7.8281 4.1719-16.219 4.1719-24.984 0-42.609-34.641-77.25-77.25-77.25-42.656 0-77.25 34.641-77.25 77.25 0 12.234 2.8125 23.812 7.9219 34.125l-183.52 183.52c-11.625-6.9844-25.219-11.016-39.75-11.016-42.656 0-77.25 34.641-77.25 77.25 0 42.656 34.594 77.25 77.25 77.25s77.25-34.594 77.25-77.25c0-14.484-4.0312-28.125-10.969-39.703l181.31-181.4c12.703 9.1406 28.219 14.438 45 14.438 20.203 0 38.625-7.7812 52.406-20.531l166.78 144.28c-2.5312 7.5938-3.9375 15.75-3.9375 24.188 0 42.656 34.641 77.25 77.25 77.25 42.656 0 77.25-34.594 77.25-77.25 0-14.859-4.1719-28.781-11.484-40.594l193.55-255.94c9.75 4.4531 20.578 6.9375 31.969 6.9375 42.656 0 77.25-34.594 77.25-77.25s-34.594-77.25-77.25-77.25-77.25 34.594-77.25 77.25c0 17.672 5.9531 33.938 15.938 46.969zm-787.18 350.34c-7.1719-7.0781-17.016-11.484-27.891-11.484-21.938 0-39.75 17.812-39.75 39.75s17.812 39.75 39.75 39.75 39.75-17.812 39.75-39.75c0-10.875-4.4062-20.719-11.438-27.891zm557.21-70.219c21.938 0 39.75 17.812 39.75 39.75s-17.812 39.75-39.75 39.75-39.75-17.812-39.75-39.75 17.812-39.75 39.75-39.75zm-323.26-160.13c7.3125 8.8125 18.375 14.438 30.75 14.438 21.938 0 39.75-17.766 39.75-39.703s-17.812-39.75-39.75-39.75-39.75 17.812-39.75 39.75c0 9.3281 3.1875 17.953 8.625 24.75 0.1875 0.14062 0.28125 0.32812 0.375 0.51562zm614.53-206.72c21.938 0 39.75 17.812 39.75 39.75s-17.812 39.75-39.75 39.75-39.75-17.812-39.75-39.75 17.812-39.75 39.75-39.75z" fill-rule="evenodd"/>
</svg>
