<?xml version="1.0" encoding="UTF-8"?>
<svg width="1200pt" height="1200pt" version="1.1" viewBox="0 0 1200 1200" xmlns="http://www.w3.org/2000/svg">
 <path d="m1102.7 126.66h-1005.5c-17.25 0-31.266 14.016-31.266 31.312 0 17.25 14.016 31.266 31.266 31.266h1005.5c17.25 0 31.266-14.016 31.266-31.266 0-17.297-14.016-31.312-31.266-31.312zm0 605.29h-1005.5c-17.016 0.32812-30.656 14.25-30.656 31.266 0 17.062 13.641 30.984 30.656 31.312h1005.5c17.016-0.32812 30.656-14.25 30.656-31.312 0-17.016-13.641-30.938-30.656-31.266zm-42.469-519.24h-920.53v495.74h920.53zm-471.98 626.53c0-6.4688 5.25-11.719 11.719-11.719s11.719 5.25 11.719 11.719v134.39c24.891 5.9531 41.391 29.578 38.391 54.984s-24.516 44.578-50.109 44.578-47.109-19.172-50.109-44.578 13.5-49.031 38.391-54.984zm-175.13-537.19c1.125 4.2188 4.5469 7.4531 8.8125 8.3906 15.609 3.7969 30.562 9.9844 44.297 18.328 3.6094 2.25 8.1562 2.2969 11.859 0.1875l19.641-11.203 30.609 30.609-11.156 19.594c-2.25 3.9375-2.0625 8.8125 0.51562 12.516 4.0781 6.7031 7.6406 13.688 10.641 20.953 3.0938 7.4531 5.5781 15.094 7.5 22.922 0.98438 4.1719 4.1719 7.4531 8.2969 8.5781l21.797 6v43.312l-21.797 5.9531c-4.2656 1.1719-7.5 4.5469-8.4375 8.8594-3.7969 15.609-9.9844 30.516-18.422 44.25-2.2031 3.6562-2.25 8.2031-0.14062 11.906l11.203 19.641-30.609 30.609-19.641-11.203 0.046875-0.046874c-3.9375-2.25-8.8125-2.0625-12.516 0.51562-6.7031 4.0781-13.688 7.6406-20.953 10.641-7.4062 3.0938-15.094 5.625-22.922 7.5-4.1719 0.98437-7.4531 4.1719-8.5781 8.2969l-6 21.797h-43.312l-6-21.797c-1.125-4.2188-4.5469-7.5-8.8125-8.3906-15.656-3.7969-30.562-10.031-44.297-18.375-3.6094-2.25-8.2031-2.2969-11.906-0.1875l-19.641 11.203-30.609-30.609 11.203-19.641 0.046875 0.046876c2.25-3.8906 2.0625-8.7656-0.51562-12.469-4.0781-6.7031-7.6406-13.734-10.641-20.953-3.0938-7.4531-5.625-15.094-7.5-22.969-0.98438-4.125-4.1719-7.4062-8.2969-8.5312l-21.703-6.0469v-43.312l21.797-6h-0.046875c4.2656-1.125 7.5-4.5469 8.4375-8.8125 1.875-7.7812 4.3594-15.328 7.4062-22.688 3.0938-7.5 6.75-14.719 11.016-21.609 2.2031-3.6562 2.25-8.2031 0.14062-11.906l-11.203-19.641 30.609-30.609 19.641 11.203-0.046875 0.046874c3.9375 2.25 8.8125 2.0625 12.516-0.51562 6.7031-4.0781 13.688-7.6406 20.906-10.641 7.4531-3.0938 15.141-5.625 22.969-7.5 4.1719-0.98437 7.4531-4.1719 8.5781-8.2969l6-21.797h43.312l6 21.797zm16.172-29.531 4.5938 16.781c13.406 3.7969 26.344 9.1406 38.484 15.938l15.188-8.6719h-0.046875c8.3438-4.7344 18.891-3.375 25.688 3.4219l32.859 32.859c6.7969 6.7969 8.2031 17.344 3.4219 25.688l-8.6719 15.188v-0.046874c3.375 6.0938 6.4219 12.328 9.0938 18.75 2.6719 6.4688 4.9219 13.031 6.7969 19.734l16.781 4.5938h0.046875c9.2812 2.5312 15.75 10.969 15.703 20.578v46.5c0.046875 9.6094-6.375 18.047-15.656 20.531l-16.781 4.5938h-0.046875c-1.875 6.7031-4.125 13.312-6.7969 19.734-2.6719 6.4219-5.7188 12.703-9.0938 18.75l8.6719 15.141c4.7812 8.3438 3.375 18.891-3.4219 25.688l-32.859 32.859c-3.3281 3.2812-7.6875 5.3906-12.328 6-4.5938 0.60938-9.3281-0.28125-13.359-2.625l-15.188-8.6719c-6.0469 3.375-12.328 6.4219-18.75 9.0938-6.4219 2.6719-13.031 4.9219-19.734 6.7969l-4.5938 16.781v0.046876c-2.4844 9.2812-10.922 15.75-20.578 15.75h-46.453c-9.6094 0-18.047-6.4688-20.531-15.75l-4.5938-16.781v-0.046876c-13.406-3.75-26.344-9.0938-38.484-15.891l-15.141 8.6719v-0.046874c-4.0781 2.3438-8.7656 3.2812-13.406 2.6719-4.6406-0.60937-8.9531-2.7188-12.281-6l-32.859-32.859c-6.7969-6.8438-8.2031-17.344-3.4219-25.688l8.6719-15.188c-3.375-6.0469-6.4219-12.328-9.0938-18.75-2.6719-6.4219-4.9219-12.984-6.8438-19.734l-16.781-4.5938c-9.2812-2.4844-15.75-10.922-15.75-20.578v-46.406c0-9.6094 6.4688-18.047 15.75-20.531l16.781-4.5938c1.9219-6.7031 4.1719-13.266 6.8438-19.688 2.6719-6.4688 5.7188-12.703 9.0938-18.797l-8.6719-15.188v0.046876c-4.7344-8.3438-3.3281-18.891 3.4688-25.688l32.859-32.859h-0.046875c6.8438-6.7969 17.344-8.1562 25.688-3.4219l15.188 8.6719c6.0469-3.375 12.328-6.4219 18.75-9.0938 6.4219-2.6719 13.031-4.9219 19.734-6.7969l4.5938-16.781v-0.046876c2.4844-9.2812 10.875-15.75 20.484-15.797h46.5c9.6094 0 18.047 6.4688 20.531 15.75zm8.7188 135.61h-0.046875c25.031 25.031 28.922 64.266 9.2344 93.703-19.641 29.438-57.375 40.875-90.094 27.328s-51.281-48.328-44.391-83.062c6.9375-34.688 37.406-59.719 72.797-59.719 19.688 0 38.578 7.8281 52.453 21.75zm-52.453-45.188h-0.046875c46.594 0 86.672 32.906 95.766 78.609s-15.375 91.453-58.406 109.27-92.672 2.7656-118.55-35.953c-25.875-38.766-20.812-90.375 12.141-123.32 18.281-18.328 43.125-28.641 69.047-28.594zm336.19 199.08c9.0938 9.1406 10.5 23.438 3.375 34.172-7.1719 10.734-20.953 14.906-32.859 9.9844-11.953-4.9219-18.75-17.625-16.219-30.281 2.4844-12.656 13.594-21.797 26.484-21.797 7.2188-0.046875 14.109 2.8125 19.219 7.9219zm230.39-270.19 32.719 20.578v-0.046874c5.4844 3.4688 7.125 10.688 3.6562 16.125-3.4219 5.4844-10.641 7.125-16.125 3.6562l-15.609-9.75 0.046875 98.812c-0.09375 35.859-29.156 64.969-65.062 65.062h-135.79c-22.922 0.046874-41.531 18.656-41.625 41.578v4.1719c24.938 5.9531 41.438 29.625 38.438 55.031s-24.562 44.578-50.156 44.578-47.156-19.172-50.156-44.578 13.547-49.078 38.438-55.031v-4.1719c0.046875-35.906 29.156-65.016 65.062-65.062h135.89c22.922-0.09375 41.484-18.656 41.578-41.578v-98.812l-15.516 9.75c-2.625 1.6875-5.7656 2.2031-8.8125 1.5-3-0.65625-5.625-2.5312-7.3125-5.1562-3.4219-5.4375-1.7812-12.656 3.7031-16.125l32.719-20.578c4.125-3.0469 9.7969-3.0469 13.969 0zm-230.39 45.094v-0.046876c9.0938 9.1406 10.5 23.438 3.375 34.172-7.1719 10.734-20.953 14.906-32.859 9.9844-11.953-4.9219-18.75-17.578-16.219-30.281 2.4844-12.656 13.594-21.797 26.484-21.797 7.2188-0.046876 14.109 2.8125 19.219 7.9219zm-19.219-31.359v-0.046874c24.094 0 44.859 17.016 49.547 40.641s-7.9688 47.297-30.234 56.531c-22.266 9.2344-47.953 1.4531-61.312-18.609-13.406-20.062-10.781-46.734 6.2812-63.797 9.4688-9.4688 22.312-14.812 35.719-14.766zm255.94 298.92c4.5469 4.5938 4.5469 12 0 16.594-4.5938 4.5938-12 4.5938-16.594 0l-23.344-23.344-23.344 23.344c-2.2031 2.25-5.2031 3.5625-8.3438 3.5625-3.1406 0.046874-6.1875-1.2188-8.3906-3.4219-2.2031-2.2031-3.4688-5.25-3.4219-8.3906 0-3.1406 1.3125-6.1406 3.5625-8.2969l23.344-23.344-23.344-23.344v-0.046874c-4.5938-4.5938-4.5938-12 0-16.594 4.5469-4.5938 12-4.5938 16.594 0l23.344 23.344 23.344-23.344c4.5938-4.4531 11.906-4.4062 16.453 0.09375 4.5 4.5469 4.5938 11.859 0.14062 16.453l-23.344 23.391z" fill-rule="evenodd"/>
</svg>
