<?xml version="1.0" encoding="UTF-8"?>
<svg width="1200pt" height="1200pt" version="1.1" viewBox="0 0 1200 1200" xmlns="http://www.w3.org/2000/svg">
 <path d="m995.63 60.922h-905.72c-44.492 0-80.676 36.371-80.676 80.863v648.92c0 44.492 36.184 80.676 80.676 80.676h694.89v-155.26l-717.23 0.003906v-596.68h950.4v341.17h58.523v-318.83c0-44.492-36.367-80.863-80.863-80.863zm-363.88 708.93c13.66 0 24.555 11.078 24.555 24.555 0 13.477-10.891 24.555-24.555 24.555-13.477 0-24.555-11.078-24.555-24.555 0-13.48 11.078-24.555 24.555-24.555zm-88.984 0c13.477 0 24.555 11.078 24.555 24.555 0 13.477-11.078 24.555-24.555 24.555-13.66 0-24.555-11.078-24.555-24.555 0-13.48 10.895-24.555 24.555-24.555zm-88.984 0c13.477 0 24.371 11.078 24.371 24.555 0 13.477-10.891 24.555-24.371 24.555-13.66 0-24.555-11.078-24.555-24.555 0-13.48 10.895-24.555 24.555-24.555z"/>
 <path d="m747.14 984.74c0 5.168-4.2461 9.2305-9.2305 9.2305h-390.28c-5.168 0-9.2305-4.0625-9.2305-9.2305 0-4.9844 4.0625-9.2305 9.2305-9.2305h51.324l36.738-85.66h214.15l36.738 85.66h51.324c4.9844 0 9.2305 4.2461 9.2305 9.2305z"/>
 <path d="m1143.9 479.08h-293.91c-25.848 0-46.707 21.047-46.707 46.707v566.4c0 25.848 20.859 46.891 46.707 46.891h293.91c25.848 0 46.891-21.047 46.891-46.891l0.003906-566.4c0-25.66-21.047-46.707-46.895-46.707zm-180.35 38.707h66.824c5.1016 0 9.2305 4.1289 9.2305 9.2305s-4.1289 9.2305-9.2305 9.2305l-66.824 0.003906c-5.1016 0-9.2305-4.1289-9.2305-9.2305 0-5.1055 4.125-9.2344 9.2305-9.2344zm50.941 577.86h-35.055c-5.1016 0-9.2305-4.1289-9.2305-9.2305 0-5.1016 4.1289-9.2305 9.2305-9.2305h35.055c5.1016 0 9.2305 4.1289 9.2305 9.2305 0 5.1016-4.1328 9.2305-9.2305 9.2305zm131.75-61.801h-298.4v-458.96h298.4z"/>
 <path d="m499.88 402.23v256.9c0 6.3438-5.1445 11.488-11.488 11.488h-335.18c-6.3438 0-11.488-5.1445-11.488-11.488v-256.9c0-6.3438 5.1445-11.488 11.488-11.488h335.18c6.3398-0.003906 11.484 5.1406 11.484 11.488z"/>
 <path d="m499.88 186.6v134.68c0 6.3438-5.1445 11.488-11.488 11.488h-335.18c-6.3438 0-11.488-5.1445-11.488-11.488v-134.68c0-6.3438 5.1445-11.488 11.488-11.488h335.18c6.3398 0 11.484 5.1445 11.484 11.488z"/>
 <path d="m943.94 402.09v58.523h-93.969c-36 0-65.168 29.168-65.168 65.168v144.92h-187.75c-6.2773 0-11.445-5.168-11.445-11.445v-257.17c0-6.2773 5.168-11.445 11.445-11.445l335.26-0.003907c6.4609 0 11.629 5.1719 11.629 11.449z"/>
 <path d="m932.37 332.82h-335.27c-6.3438 0-11.488-5.1445-11.488-11.488v-134.75c0-6.3438 5.1445-11.488 11.488-11.488h335.26c6.3438 0 11.488 5.1445 11.488 11.488v134.75c0.003906 6.3438-5.1406 11.488-11.484 11.488z"/>
 <path d="m883.22 619.28h227.39v122.83h-227.39z"/>
 <path d="m883.22 798.3h227.39v191.18h-227.39z"/>
</svg>
