<?xml version="1.0" encoding="utf-8"?>
<!-- Generator: Adobe Illustrator 24.3.0, SVG Export Plug-In . SVG Version: 6.00 Build 0)  -->
<svg version="1.1" id="Layer_1" xmlns="http://www.w3.org/2000/svg" xmlns:xlink="http://www.w3.org/1999/xlink" x="0px" y="0px"
	 viewBox="0 0 1200 1200" style="enable-background:new 0 0 1200 1200;" xml:space="preserve">
<style type="text/css">
	.st0{fill-rule:evenodd;clip-rule:evenodd;fill:#FFFFFF;}
</style>
<path class="st0" d="M1143.7,422.2c0-10.4-8.4-18.8-18.8-18.8H951.3c-10.4,0-18.8,8.4-18.8,18.8v687c0,10.4,8.4,18.8,18.8,18.8
	h173.6c10.4,0,18.8-8.4,18.8-18.8V422.2z M559.9,516.2c0-10.3-8.4-18.8-18.8-18.8H367.5c-10.4,0-18.8,8.4-18.8,18.8v593
	c0,10.4,8.4,18.8,18.8,18.8h173.6c10.3,0,18.8-8.4,18.8-18.8V516.2z M852.4,666.8c0-10.4-8.4-18.8-18.8-18.8H660
	c-10.3,0-18.8,8.4-18.8,18.8v442.4c0,10.4,8.4,18.8,18.8,18.8h173.6c10.4,0,18.8-8.4,18.8-18.8V666.8z M267.3,727.6
	c0-10.4-8.4-18.8-18.8-18.8H74.9c-10.4,0-18.8,8.4-18.8,18.8v381.5c0,10.4,8.4,18.8,18.8,18.8h173.6c10.4,0,18.8-8.4,18.8-18.8
	V727.6z M814.9,685.5v404.9H678.8V685.5L814.9,685.5z M522.4,534.9v555.5H386.3V534.9H522.4z M1106.2,441v649.4H970.1V441
	L1106.2,441z M229.8,746.4v344H93.7v-344L229.8,746.4z M976.8,196.3c0,0-0.1,0.1-0.1,0.2L785.5,449.3c-11.3-6.6-24.6-10.4-38.6-10.4
	c-20.4,0-39.1,8.1-53,21.1L527.4,316c2.7-7.8,4.2-16.2,4.2-25c0-42.6-34.6-77.2-77.2-77.2c-42.7,0-77.2,34.6-77.2,77.2
	c0,12.2,2.8,23.8,7.9,34.1L201.5,508.7c-11.6-7-25.2-11-39.8-11c-42.7,0-77.2,34.6-77.2,77.2c0,42.7,34.6,77.2,77.2,77.2
	s77.2-34.6,77.2-77.2c0-14.5-4-28.1-11-39.7l181.3-181.4c12.7,9.1,28.2,14.4,45,14.4c20.2,0,38.6-7.8,52.4-20.5L673.5,492
	c-2.5,7.6-3.9,15.8-3.9,24.2c0,42.7,34.6,77.2,77.2,77.2c42.7,0,77.2-34.6,77.2-77.2c0-14.9-4.2-28.8-11.5-40.6l193.5-255.9
	c9.8,4.5,20.6,6.9,32,6.9c42.7,0,77.2-34.6,77.2-77.2s-34.6-77.2-77.2-77.2s-77.2,34.6-77.2,77.2C960.9,167,966.8,183.3,976.8,196.3
	L976.8,196.3z M189.6,546.7c-7.2-7.1-17-11.5-27.9-11.5c-21.9,0-39.8,17.8-39.8,39.8s17.8,39.8,39.8,39.8s39.8-17.8,39.8-39.8
	c0-10.9-4.4-20.7-11.4-27.9L189.6,546.7z M746.9,476.4c21.9,0,39.8,17.8,39.8,39.8s-17.8,39.8-39.8,39.8s-39.8-17.8-39.8-39.8
	S724.9,476.4,746.9,476.4z M423.6,316.3c7.3,8.8,18.4,14.4,30.8,14.4c21.9,0,39.8-17.8,39.8-39.7s-17.8-39.8-39.8-39.8
	s-39.8,17.8-39.8,39.8c0,9.3,3.2,18,8.6,24.8C423.4,315.9,423.5,316.1,423.6,316.3L423.6,316.3z M1038.1,109.6
	c21.9,0,39.8,17.8,39.8,39.8s-17.8,39.8-39.8,39.8s-39.8-17.8-39.8-39.8S1016.2,109.6,1038.1,109.6z"/>
</svg>
