<?xml version="1.0" encoding="utf-8"?>
<!-- Generator: Adobe Illustrator 24.3.0, SVG Export Plug-In . SVG Version: 6.00 Build 0)  -->
<svg version="1.1" id="Layer_1_copy" xmlns="http://www.w3.org/2000/svg" xmlns:xlink="http://www.w3.org/1999/xlink" x="0px"
	 y="0px" viewBox="0 0 1200 1200" style="enable-background:new 0 0 1200 1200;" xml:space="preserve">
<style type="text/css">
	.st0{fill-rule:evenodd;clip-rule:evenodd;fill:#FFFFFF;}
</style>
<path class="st0" d="M1102.7,126.7H97.2c-17.2,0-31.3,14-31.3,31.3c0,17.2,14,31.3,31.3,31.3h1005.5c17.2,0,31.3-14,31.3-31.3
	C1134,140.7,1119.9,126.7,1102.7,126.7z M1102.7,731.9H97.2c-17,0.3-30.7,14.2-30.7,31.3c0,17.1,13.6,31,30.7,31.3h1005.5
	c17-0.3,30.7-14.2,30.7-31.3C1133.4,746.2,1119.7,732.3,1102.7,731.9z M1060.2,212.7H139.7v495.7h920.5V212.7z M588.3,839.2
	c0-6.5,5.2-11.7,11.7-11.7s11.7,5.2,11.7,11.7v134.4c24.9,6,41.4,29.6,38.4,55s-24.5,44.6-50.1,44.6s-47.1-19.2-50.1-44.6
	s13.5-49,38.4-55L588.3,839.2z M413.1,302c1.1,4.2,4.5,7.5,8.8,8.4c15.6,3.8,30.6,10,44.3,18.3c3.6,2.2,8.2,2.3,11.9,0.2l19.6-11.2
	l30.6,30.6L517.2,368c-2.2,3.9-2.1,8.8,0.5,12.5c4.1,6.7,7.6,13.7,10.6,21c3.1,7.5,5.6,15.1,7.5,22.9c1,4.2,4.2,7.5,8.3,8.6l21.8,6
	v43.3l-21.8,6c-4.3,1.2-7.5,4.5-8.4,8.9c-3.8,15.6-10,30.5-18.4,44.2c-2.2,3.7-2.2,8.2-0.1,11.9l11.2,19.6l-30.6,30.6l-19.6-11.2
	l0,0c-3.9-2.2-8.8-2.1-12.5,0.5c-6.7,4.1-13.7,7.6-21,10.6c-7.4,3.1-15.1,5.6-22.9,7.5c-4.2,1-7.5,4.2-8.6,8.3l-6,21.8h-43.3
	l-6-21.8c-1.1-4.2-4.5-7.5-8.8-8.4c-15.7-3.8-30.6-10-44.3-18.4c-3.6-2.2-8.2-2.3-11.9-0.2l-19.6,11.2l-30.6-30.6l11.2-19.6l0,0
	c2.3-3.9,2.1-8.8-0.5-12.5c-4.1-6.7-7.6-13.7-10.6-21c-3.1-7.5-5.6-15.1-7.5-23c-1-4.1-4.2-7.4-8.3-8.5l-21.7-6v-43.3l21.8-6h0
	c4.3-1.1,7.5-4.5,8.4-8.8c1.9-7.8,4.4-15.3,7.4-22.7c3.1-7.5,6.8-14.7,11-21.6c2.2-3.7,2.2-8.2,0.1-11.9l-11.2-19.6l30.6-30.6
	l19.6,11.2l0,0c3.9,2.2,8.8,2.1,12.5-0.5c6.7-4.1,13.7-7.6,20.9-10.6c7.5-3.1,15.1-5.6,23-7.5c4.2-1,7.5-4.2,8.6-8.3l6-21.8h43.3
	L413.1,302L413.1,302z M429.3,272.5l4.6,16.8c13.4,3.8,26.3,9.1,38.5,15.9l15.2-8.7h0c8.3-4.7,18.9-3.4,25.7,3.4l32.9,32.9
	c6.8,6.8,8.2,17.3,3.4,25.7l-8.7,15.2v0c3.4,6.1,6.4,12.3,9.1,18.8c2.7,6.5,4.9,13,6.8,19.7l16.8,4.6h0c9.3,2.5,15.8,11,15.7,20.6
	v46.5c0,9.6-6.4,18-15.7,20.5l-16.8,4.6h0c-1.9,6.7-4.1,13.3-6.8,19.7c-2.7,6.4-5.7,12.7-9.1,18.8l8.7,15.1
	c4.8,8.3,3.4,18.9-3.4,25.7l-32.9,32.9c-3.3,3.3-7.7,5.4-12.3,6c-4.6,0.6-9.3-0.3-13.4-2.6l-15.2-8.7c-6,3.4-12.3,6.4-18.8,9.1
	c-6.4,2.7-13,4.9-19.7,6.8l-4.6,16.8v0c-2.5,9.3-10.9,15.8-20.6,15.8h-46.5c-9.6,0-18-6.5-20.5-15.8l-4.6-16.8v0
	c-13.4-3.8-26.3-9.1-38.5-15.9l-15.1,8.7v0c-4.1,2.3-8.8,3.3-13.4,2.7c-4.6-0.6-9-2.7-12.3-6L225,588.3c-6.8-6.8-8.2-17.3-3.4-25.7
	l8.7-15.2c-3.4-6-6.4-12.3-9.1-18.8c-2.7-6.4-4.9-13-6.8-19.7l-16.8-4.6c-9.3-2.5-15.8-10.9-15.8-20.6v-46.4c0-9.6,6.5-18,15.8-20.5
	l16.8-4.6c1.9-6.7,4.2-13.3,6.8-19.7c2.7-6.5,5.7-12.7,9.1-18.8l-8.7-15.2v0c-4.7-8.3-3.3-18.9,3.5-25.7l32.9-32.9h0
	c6.8-6.8,17.3-8.2,25.7-3.4l15.2,8.7c6-3.4,12.3-6.4,18.8-9.1c6.4-2.7,13-4.9,19.7-6.8l4.6-16.8v0c2.5-9.3,10.9-15.8,20.5-15.8h46.5
	C418.4,256.8,426.8,263.2,429.3,272.5L429.3,272.5z M438,408.1L438,408.1c25,25,28.9,64.3,9.2,93.7c-19.6,29.4-57.4,40.9-90.1,27.3
	s-51.3-48.3-44.4-83.1c6.9-34.7,37.4-59.7,72.8-59.7C405.2,386.4,424.1,394.2,438,408.1L438,408.1z M385.6,362.9L385.6,362.9
	c46.5,0,86.6,32.9,95.7,78.6s-15.4,91.5-58.4,109.3s-92.7,2.8-118.5-36c-25.9-38.8-20.8-90.4,12.1-123.3
	C334.7,373.2,359.6,362.9,385.6,362.9L385.6,362.9z M721.7,562c9.1,9.1,10.5,23.4,3.4,34.2c-7.2,10.7-21,14.9-32.9,10
	c-12-4.9-18.8-17.6-16.2-30.3c2.5-12.7,13.6-21.8,26.5-21.8C709.7,554.1,716.6,556.9,721.7,562L721.7,562z M952.1,291.8l32.7,20.6v0
	c5.5,3.5,7.1,10.7,3.7,16.1c-3.4,5.5-10.6,7.1-16.1,3.7l-15.6-9.8l0,98.8c-0.1,35.9-29.2,65-65.1,65.1H756
	c-22.9,0-41.5,18.7-41.6,41.6v4.2c24.9,6,41.4,29.6,38.4,55s-24.6,44.6-50.2,44.6s-47.2-19.2-50.2-44.6s13.5-49.1,38.4-55v-4.2
	c0-35.9,29.2-65,65.1-65.1h135.9c22.9-0.1,41.5-18.7,41.6-41.6v-98.8l-15.5,9.8c-2.6,1.7-5.8,2.2-8.8,1.5c-3-0.7-5.6-2.5-7.3-5.2
	c-3.4-5.4-1.8-12.7,3.7-16.1l32.7-20.6C942.3,288.7,948,288.7,952.1,291.8L952.1,291.8z M721.7,336.9L721.7,336.9
	c9.1,9.1,10.5,23.4,3.4,34.1c-7.2,10.7-21,14.9-32.9,10c-12-4.9-18.8-17.6-16.2-30.3c2.5-12.7,13.6-21.8,26.5-21.8
	C709.7,328.9,716.6,331.8,721.7,336.9L721.7,336.9z M702.5,305.6L702.5,305.6c24.1,0,44.9,17,49.5,40.6s-8,47.3-30.2,56.5
	c-22.3,9.2-48,1.5-61.3-18.6c-13.4-20.1-10.8-46.7,6.3-63.8C676.3,310.8,689.1,305.5,702.5,305.6L702.5,305.6z M958.5,604.5
	c4.5,4.6,4.5,12,0,16.6c-4.6,4.6-12,4.6-16.6,0l-23.3-23.3l-23.3,23.3c-2.2,2.2-5.2,3.6-8.3,3.6c-3.1,0-6.2-1.2-8.4-3.4
	c-2.2-2.2-3.5-5.2-3.4-8.4c0-3.1,1.3-6.1,3.6-8.3l23.3-23.3l-23.3-23.3v0c-4.6-4.6-4.6-12,0-16.6c4.5-4.6,12-4.6,16.6,0l23.3,23.3
	l23.3-23.3c4.6-4.5,11.9-4.4,16.5,0.1c4.5,4.5,4.6,11.9,0.1,16.5l-23.3,23.4L958.5,604.5z"/>
</svg>
