<?xml version="1.0" encoding="UTF-8"?>
<svg width="1200pt" height="1200pt" version="1.1" viewBox="0 0 1200 1200" xmlns="http://www.w3.org/2000/svg">
 <path d="m773.11 776.11h195.28c15.469 0 15.516 23.438 0 23.438h-195.28c-15.469 0-15.516-23.438 0-23.438zm360.66 23.438h0.09375c6.4688 0 11.672-5.25 11.672-11.719s-5.2969-11.719-11.766-11.719-11.719 5.25-11.719 11.719 5.2031 11.719 11.719 11.719zm-36.703 0h0.09375c6.4688 0 11.672-5.25 11.672-11.719s-5.2969-11.719-11.766-11.719-11.719 5.25-11.719 11.719 5.2031 11.719 11.719 11.719zm-36.75 0h0.09375c6.4688 0 11.672-5.25 11.672-11.719s-5.2969-11.719-11.766-11.719-11.719 5.25-11.719 11.719 5.25 11.719 11.719 11.719zm137.39-767.26v414.37c0 17.812-14.484 32.297-32.297 32.297h-423.84c-17.812 0-32.297-14.484-32.297-32.297v-158.72h-100.73v300.32h308.26c30.375 0 55.078 24.703 55.078 55.078v77.625h193.5c17.812 0 32.297 14.484 32.297 32.297v414.37c0 17.812-14.484 32.297-32.297 32.297l-423.79 0.046875c-17.812 0-32.297-14.484-32.297-32.297v-414.37c0-17.812 14.484-32.297 32.297-32.297h206.86v-77.625c0-17.438-14.203-31.641-31.641-31.641l-639.98-0.046875c-17.438 0-31.641 14.203-31.641 31.641v77.625h213.28c17.812 0 32.297 14.484 32.297 32.297v414.37c0 17.812-14.484 32.297-32.297 32.297l-423.79 0.046875c-17.812 0-32.297-14.484-32.297-32.297v-414.37c0-17.812 14.484-32.297 32.297-32.297h187.13v-77.625c-0.046875-30.422 24.656-55.125 55.031-55.125h308.26l0.046875-300.32h-94.359v158.72c0 17.812-14.484 32.297-32.297 32.297h-423.79c-17.812 0-32.297-14.484-32.297-32.297v-414.37c-0.046875-17.812 14.438-32.297 32.297-32.297h423.79c17.812 0 32.297 14.484 32.297 32.297v232.22h218.53v-232.22c0-17.812 14.484-32.297 32.297-32.297h423.79c17.859 0 32.344 14.484 32.344 32.297zm-1172 77.906h441.56v-77.906c0-4.875-3.9844-8.8594-8.8594-8.8594h-423.79c-4.875 0-8.8594 3.9844-8.8594 8.8594zm153.98 203.02v-110.95h-102.56v110.95zm-114.28 97.125h253.26c15.469 0 15.516-23.438 0-23.438h-253.26c-15.469 0-15.469 23.438 0 23.438zm200.68-59.484h161.48c15.469 0 15.516-23.438 0-23.438h-161.48c-15.469 0-15.516 23.438 0 23.438zm0-59.484h161.48c15.469 0 15.516-23.438 0-23.438h-161.48c-15.469 0-15.516 23.438 0 23.438zm161.48-89.484h-153.56c-15.469 0-15.516 23.438 0 23.438h153.56c15.516 0 15.516-23.438 0-23.438zm-350.44 825.42v89.016h338.72v-89.016zm318.84-112.45h-298.97c-26.25 0-26.25 39.75 0 39.75h298.97c26.297 0 26.297-39.75 0-39.75zm62.438-170.39h-423.79c-4.875 0-8.8594 3.9844-8.8594 8.8594v77.906h441.56v-77.906c-0.046874-4.9219-4.0312-8.8594-8.9062-8.8594zm664.03 281.34v-110.95h-338.02v110.95zm-349.74 68.672h361.4c15.469 0 15.516-23.438 0-23.438h-361.4c-15.469 0-15.469 23.438 0 23.438zm0 45.328h292.5c15.469 0 15.516-23.438 0-23.438h-292.5c-15.469 0-15.469 23.438 0 23.438zm392.63-395.34h-423.79c-4.875 0-8.8594 3.9844-8.8594 8.8594v77.906h441.56v-77.906c0-4.9219-3.9844-8.8594-8.9062-8.8594zm-432.66-634.26h441.56v-77.906c0-4.875-3.9844-8.8594-8.8594-8.8594h-423.84c-4.875 0-8.8594 3.9844-8.8594 8.8594zm62.062 114.84h140.16c18.047 0 18.047-27.328 0-27.328h-140.16c-18.047 0-18.094 27.328 0 27.328zm-25.359 69.984h190.92c15.469 0 15.516-23.438 0-23.438h-190.92c-15.516 0-15.516 23.438 0 23.438zm0 59.953h190.92c15.469 0 15.516-23.438 0-23.438h-190.92c-15.516 0-15.516 23.438 0 23.438zm0 59.906h310.4c15.469 0 15.516-23.438 0-23.438h-310.4c-15.516 0-15.516 23.438 0 23.438zm356.44-98.016v-119.16h-102.56v119.16zm-157.45-261.74h-195.28c-15.469 0-15.516 23.438 0 23.438h195.28c15.516 0 15.516-23.438 0-23.438zm165.37 0c-6.4688 0-11.719 5.25-11.719 11.719s5.25 11.719 11.719 11.719h0.09375c6.4688 0 11.672-5.25 11.672-11.719 0-6.5156-5.2969-11.719-11.766-11.719zm-36.703 0c-6.4688 0-11.719 5.25-11.719 11.719s5.25 11.719 11.719 11.719h0.09375c6.4688 0 11.672-5.25 11.672-11.719-0.046875-6.5156-5.2969-11.719-11.766-11.719zm-36.75 0c-6.4688 0-11.719 5.25-11.719 11.719s5.25 11.719 11.719 11.719h0.09375c6.4688 0 11.672-5.25 11.672-11.719 0-6.5156-5.25-11.719-11.766-11.719zm-798.84 0h-195.28c-15.469 0-15.516 23.438 0 23.438h195.28c15.469 0 15.516-23.438 0-23.438zm165.32 0c-6.4688 0-11.719 5.25-11.719 11.719s5.25 11.719 11.719 11.719h0.09375c6.4688 0 11.672-5.25 11.672-11.719 0-6.5156-5.2969-11.719-11.766-11.719zm-36.703 0c-6.4688 0-11.719 5.25-11.719 11.719s5.25 11.719 11.719 11.719h0.09375c6.4688 0 11.672-5.25 11.672-11.719 0-6.5156-5.2969-11.719-11.766-11.719zm-36.703 0c-6.4688 0-11.719 5.25-11.719 11.719s5.25 11.719 11.719 11.719h0.09375c6.4688 0 11.672-5.25 11.672-11.719 0-6.5156-5.2969-11.719-11.766-11.719zm-287.21 744.42h195.28c15.469 0 15.516-23.438 0-23.438h-195.28c-15.516 0-15.516 23.438 0 23.438zm360.61 0h0.09375c6.4688 0 11.672-5.25 11.672-11.719s-5.2969-11.719-11.766-11.719-11.719 5.25-11.719 11.719 5.25 11.719 11.719 11.719zm-36.703 0h0.09375c6.4688 0 11.672-5.25 11.672-11.719s-5.2969-11.719-11.766-11.719-11.719 5.25-11.719 11.719 5.25 11.719 11.719 11.719zm-36.703 0h0.09375c6.4688 0 11.672-5.25 11.672-11.719s-5.2969-11.719-11.766-11.719-11.719 5.25-11.719 11.719 5.25 11.719 11.719 11.719z"/>
</svg>
