<?xml version="1.0" encoding="UTF-8"?>
<svg width="1200pt" height="1200pt" version="1.1" viewBox="0 0 1200 1200" xmlns="http://www.w3.org/2000/svg">
 <path d="m220.69 284.63h912.74c11.344 0.09375 20.484 9.2812 20.484 20.625v47.672c0 11.344-9.1406 20.578-20.484 20.672h-912.74c-11.344-0.09375-20.484-9.3281-20.484-20.672v-47.672c0-11.344 9.1406-20.531 20.484-20.625zm213.61 876.89v-38.297l-29.016-44.016h-330.19l-29.016 44.016v38.297zm-56.25-145.4c2.25 10.594 4.5938 21.141 7.0312 31.688l-289.74 0.046875c2.4844-10.547 4.7812-21.094 7.0312-31.688zm-214.87-296.9h52.266l-0.046875-57.609h49.594v57.609h52.172l0.046875-57.609h49.641v99.984l-29.109 58.969h-195.14l-29.016-58.969v-99.984h49.547zm176.02 265.55c-8.0625-43.781-13.969-88.031-17.719-132.84h-162.56c-3.7969 44.719-9.6562 88.969-17.719 132.84zm337.92-946.26c19.922 0.32812 37.688 12.703 44.859 31.312s2.2969 39.703-12.281 53.297l56.906 130.18h-33.938l-51.234-117.52h-8.5781l-51.234 117.52h-34.031l56.859-130.18c-14.578-13.594-19.453-34.734-12.281-53.344 7.2188-18.609 24.984-30.984 44.953-31.266zm433.45 366.52v489.74c0.046875 5.2969-4.2188 9.6094-9.5156 9.6562h-742.87c-2.3438-18.609-4.2656-37.312-5.8594-56.016 5.7656-3.0938 10.406-7.9688 13.219-13.875l24.984-50.672h135c8.6719 0 15.703-7.0312 15.703-15.703s-7.0312-15.656-15.703-15.656h-127.74v-38.859l127.74-0.046875c8.6719 0 15.703-7.0312 15.703-15.656 0-8.6719-7.0312-15.703-15.703-15.703h-127.74v-20.625c0.09375-17.203-13.781-31.219-30.984-31.359h-49.641c-10.594 0.046875-20.438 5.4844-26.062 14.484-5.6719-9-15.516-14.438-26.109-14.484h-21.375v-225.24zm-125.76 210.71h-48.141v189.79h48.094zm-27.188-143.58c-9.9375 0.14062-18.797 6.1875-22.547 15.375-3.7969 9.1406-1.6875 19.688 5.25 26.766 5.8594 5.6719 14.109 8.0625 22.078 6.4219 7.9688-1.6875 14.625-7.1719 17.719-14.719s2.2031-16.125-2.2969-22.875c-4.5-6.7969-12.094-10.875-20.203-10.969zm-39.188-15c15.938-15.703 39.797-20.297 60.469-11.625s34.078 28.875 34.078 51.281-13.406 42.609-34.078 51.281-44.531 4.0781-60.469-11.672c-21.656-21.984-21.656-57.234 0-79.266zm-125.63 15c-9.9375 0.14062-18.797 6.1875-22.547 15.375-3.75 9.1406-1.6875 19.688 5.25 26.766 5.8594 5.6719 14.109 8.0625 22.125 6.4219 7.9688-1.6875 14.578-7.1719 17.672-14.719s2.25-16.125-2.25-22.875c-4.5469-6.7969-12.094-10.875-20.25-10.969zm-39.188-15c15.938-15.703 39.797-20.297 60.469-11.625s34.078 28.875 34.078 51.281-13.406 42.609-34.078 51.281-44.531 4.0781-60.469-11.672c-21.609-21.984-21.609-57.234 0-79.266zm-411.94 110.2c0-8.5312 6.9375-15.469 15.469-15.469 8.5781 0 15.516 6.9375 15.516 15.469 0 16.641 29.766 24.328 45.703 11.672l0.046875 0.046875c3.6094-2.4844 5.8594-6.5156 6.1406-10.875 0-6.8438-15.703-12.984-31.453-19.031-25.688-9.9844-51.422-20.062-51.422-48.281 1.3594-23.25 18.516-42.516 41.438-46.641v-7.5c0-8.5781 6.9375-15.516 15.516-15.516s15.516 6.9375 15.516 15.516v7.4531c23.203 4.1719 40.406 23.906 41.438 47.484 0 8.5781-6.9375 15.516-15.516 15.516s-15.516-6.9375-15.516-15.516c0-16.641-29.719-24.328-45.703-11.672-3.6094 2.4844-5.8594 6.4688-6.1875 10.828 0 6.8438 15.703 12.938 31.453 19.031 25.734 9.9844 51.422 20.062 51.422 48.281l0.046875 0.046875c-1.4062 23.203-18.516 42.469-41.438 46.594v7.5c0 8.5781-6.9375 15.516-15.516 15.516s-15.516-6.9375-15.516-15.516v-7.4531 0.046875c-23.203-4.2188-40.453-23.953-41.438-47.531zm152.39-49.828c-8.6719 0-15.656-7.0312-15.656-15.703 0-8.625 6.9844-15.656 15.656-15.656h76.594c8.625 0 15.656 7.0312 15.656 15.656 0 8.6719-7.0312 15.703-15.656 15.703zm0 65.297c-8.6719 0-15.656-7.0312-15.656-15.703 0-8.625 6.9844-15.656 15.656-15.656h154.13c8.6719 0 15.703 7.0312 15.703 15.656 0 8.6719-7.0312 15.703-15.703 15.703zm95.719 254.06c-8.4844-0.23438-15.234-7.1719-15.234-15.656 0-8.5312 6.75-15.469 15.234-15.703h30.234v-133.26c-0.046876-4.125 1.5938-8.1094 4.5-11.062s6.8438-4.5938 11.016-4.6406h79.219-0.046874c4.125 0.046875 8.1094 1.6875 11.016 4.6406s4.5469 6.9375 4.5 11.062v133.26h32.672v-177.66c-0.046876-4.1719 1.5938-8.1562 4.5-11.109 2.9062-2.9062 6.8906-4.5938 11.016-4.5938h79.078c4.1719 0 8.1094 1.6875 11.016 4.6406 2.9062 2.9062 4.5469 6.8906 4.5 11.062v177.66h32.672v-205.5c0-4.125 1.5938-8.1094 4.5-11.016 2.9062-2.9531 6.8906-4.5938 11.016-4.5938h79.125c4.125 0 8.0625 1.6406 10.969 4.5938 2.9062 2.9062 4.5469 6.8906 4.5 11.016v205.5h30.234c8.4844 0.23438 15.234 7.1719 15.234 15.703 0 8.4844-6.75 15.422-15.234 15.656zm109.36-148.97h-48.188v117.56h48.188zm142.82-44.391h-48.141v162h48.094z" fill-rule="evenodd"/>
</svg>
