<?xml version="1.0" encoding="UTF-8"?>
<svg width="1200pt" height="1200pt" version="1.1" viewBox="0 0 1200 1200" xmlns="http://www.w3.org/2000/svg">
 <path d="m392.16 237.71c2.3906 2.3906 5.7656 3.9375 9.4688 3.9375h396.71c7.3125 0 13.453-6.1406 13.453-13.453v-81.141c0-7.3125-6.1406-13.453-13.453-13.453h-14.625c-29.391 0-55.922-17.766-67.547-44.531-2.2969-5.2969-6.6094-8.0625-12.375-8.0625h-207.61c-5.7656 0-10.078 2.7656-12.375 8.0625-11.531 26.766-38.062 44.531-67.547 44.531h-14.625c-7.3125 0-13.453 6.1406-13.453 13.453v81.141c0 3.7031 1.5469 7.0781 3.9375 9.4688zm9.4688 46.078h396.71c30.703 0 55.547-24.938 55.547-55.547v-35.625h114.7c16.547 0 30.141 13.547 30.141 30.141v866.06c0 16.547-13.547 30.141-30.141 30.141l-737.34-0.09375c-16.547 0-30.141-13.547-30.141-30.141l0.046875-866.02c0-16.547 13.547-30.141 30.141-30.141h114.7v35.625c0 30.703 24.938 55.547 55.547 55.547zm161.44 726.14c15.141 38.391 64.922 48.938 94.312 19.547 5.5312-5.5312 9.9375-12.234 12.844-19.547zm151.08 0c34.219-0.84375 61.688-28.922 61.688-63.234v-62.391c0-19.453 7.6875-35.531 22.922-47.531 136.78-108.61 149.29-312.61 25.078-436.78-114.47-114.47-300-114.47-414.47 0-124.22 124.22-111.7 328.22 25.078 436.78 15.234 12.141 22.922 28.078 22.922 47.531v62.391c0 34.312 27.469 62.391 61.688 63.234 4.0781 19.078 13.688 36.141 27 49.453 56.062 56.062 151.55 27.141 168-49.453zm19.406-104.53h-234v41.297c0 11.625 9.4688 21.141 21.141 21.141h191.76c11.625 0 21.141-9.4688 21.141-21.141v-41.297zm-236.02-42.234h238.08c4.7812-23.625 17.531-44.062 36.844-59.391 117.38-93.234 127.69-267.84 21.469-374.06-97.922-97.922-256.78-97.922-354.71 0-106.22 106.22-95.859 280.78 21.469 374.06 19.312 15.375 32.062 35.766 36.844 59.391zm24.234-148.45c-19.781 0-29.766 24.141-15.703 38.062 14.062 14.062 38.062 4.0781 38.062-15.703 0-12.375-9.9375-22.312-22.312-22.312zm236.76-63.844-19.078-19.078 19.078-19.078c8.2969-8.2969 8.2969-21.609 0-29.859-8.2969-8.2969-21.609-8.2969-29.859 0l-19.078 19.078-19.078-19.078c-8.2969-8.2969-21.609-8.2969-29.859 0-8.2969 8.2969-8.2969 21.609 0 29.859l19.078 19.078-19.078 19.078c-8.2969 8.2969-8.2969 21.609 0 29.859 8.2969 8.2969 21.609 8.2969 29.859 0l19.078-19.078 19.078 19.078c8.2969 8.2969 21.609 8.2969 29.859 0 8.2969-8.2969 8.2969-21.609 0-29.859zm-35.156-109.31 46.312-46.312c8.3906-8.2969 8.3906-21.703 0-30l-46.312-46.312c-8.2969-8.2969-21.609-8.2969-29.859 0-8.2969 8.2969-8.2969 21.609 0 29.859l13.312 13.312c-119.53 15-198.94 88.688-205.78 213.84-45 15.234-58.922 72.703-24.938 106.69 25.219 25.219 66 25.219 91.219 0 33.609-33.609 20.391-90.609-24-106.31 6-98.391 63.609-154.92 156.24-170.53l-6 6c-8.2969 8.2969-8.2969 21.609 0 29.859 8.2969 8.2969 21.609 8.2969 29.859 0z" fill-rule="evenodd"/>
</svg>
