<?xml version="1.0" encoding="utf-8"?>
<!-- Generator: Adobe Illustrator 24.3.0, SVG Export Plug-In . SVG Version: 6.00 Build 0)  -->
<svg version="1.1" id="Layer_1" xmlns="http://www.w3.org/2000/svg" xmlns:xlink="http://www.w3.org/1999/xlink" x="0px" y="0px"
	 viewBox="0 0 1200 1200" style="enable-background:new 0 0 1200 1200;" xml:space="preserve">
<style type="text/css">
	.st0{fill:#FFFFFF;}
</style>
<path class="st0" d="M995.6,60.9H89.9c-44.5,0-80.7,36.4-80.7,80.9v648.9c0,44.5,36.2,80.7,80.7,80.7h694.9V716.1l-717.2,0V119.4
	H1018v341.2h58.5V141.8C1076.5,97.3,1040.1,60.9,995.6,60.9L995.6,60.9z M631.8,769.9c13.7,0,24.6,11.1,24.6,24.6
	S645.4,819,631.8,819c-13.5,0-24.6-11.1-24.6-24.6C607.2,780.9,618.3,769.9,631.8,769.9z M542.8,769.9c13.5,0,24.6,11.1,24.6,24.6
	S556.2,819,542.8,819c-13.7,0-24.6-11.1-24.6-24.6C518.2,780.9,529.1,769.9,542.8,769.9z M453.8,769.9c13.5,0,24.4,11.1,24.4,24.6
	S467.3,819,453.8,819c-13.7,0-24.6-11.1-24.6-24.6C429.2,780.9,440.1,769.9,453.8,769.9z"/>
<path class="st0" d="M747.1,984.7c0,5.2-4.2,9.2-9.2,9.2H347.6c-5.2,0-9.2-4.1-9.2-9.2c0-5,4.1-9.2,9.2-9.2H399l36.7-85.7h214.1
	l36.7,85.7h51.3C742.9,975.5,747.1,979.8,747.1,984.7L747.1,984.7z"/>
<path class="st0" d="M1143.9,479.1H850c-25.8,0-46.7,21-46.7,46.7v566.4c0,25.8,20.9,46.9,46.7,46.9h293.9c25.8,0,46.9-21,46.9-46.9
	l0-566.4C1190.8,500.1,1169.7,479.1,1143.9,479.1L1143.9,479.1z M963.6,517.8h66.8c5.1,0,9.2,4.1,9.2,9.2s-4.1,9.2-9.2,9.2l-66.8,0
	c-5.1,0-9.2-4.1-9.2-9.2C954.3,521.9,958.4,517.8,963.6,517.8L963.6,517.8z M1014.5,1095.6h-35.1c-5.1,0-9.2-4.1-9.2-9.2
	s4.1-9.2,9.2-9.2h35.1c5.1,0,9.2,4.1,9.2,9.2S1019.6,1095.6,1014.5,1095.6z M1146.2,1033.8H847.8v-459h298.4V1033.8z"/>
<path class="st0" d="M499.9,402.2v256.9c0,6.3-5.1,11.5-11.5,11.5H153.2c-6.3,0-11.5-5.1-11.5-11.5V402.2c0-6.3,5.1-11.5,11.5-11.5
	h335.2C494.7,390.7,499.9,395.9,499.9,402.2L499.9,402.2z"/>
<path class="st0" d="M499.9,186.6v134.7c0,6.3-5.1,11.5-11.5,11.5H153.2c-6.3,0-11.5-5.1-11.5-11.5V186.6c0-6.3,5.1-11.5,11.5-11.5
	h335.2C494.7,175.1,499.9,180.3,499.9,186.6L499.9,186.6z"/>
<path class="st0" d="M943.9,402.1v58.5h-94c-36,0-65.2,29.2-65.2,65.2v144.9H597.1c-6.3,0-11.4-5.2-11.4-11.4V402.1
	c0-6.3,5.2-11.4,11.4-11.4l335.3,0C938.8,390.6,943.9,395.8,943.9,402.1L943.9,402.1z"/>
<path class="st0" d="M932.4,332.8H597.1c-6.3,0-11.5-5.1-11.5-11.5V186.6c0-6.3,5.1-11.5,11.5-11.5h335.3c6.3,0,11.5,5.1,11.5,11.5
	v134.8C943.9,327.7,938.7,332.8,932.4,332.8L932.4,332.8z"/>
<path class="st0" d="M883.2,619.3h227.4v122.8H883.2V619.3z"/>
<path class="st0" d="M883.2,798.3h227.4v191.2H883.2V798.3z"/>
</svg>
