<?xml version="1.0" encoding="utf-8"?>
<!-- Generator: Adobe Illustrator 24.3.0, SVG Export Plug-In . SVG Version: 6.00 Build 0)  -->
<svg version="1.1" id="Layer_1_copy" xmlns="http://www.w3.org/2000/svg" xmlns:xlink="http://www.w3.org/1999/xlink" x="0px"
	 y="0px" viewBox="0 0 1200 1200" style="enable-background:new 0 0 1200 1200;" xml:space="preserve">
<style type="text/css">
	.st0{fill:#FFFFFF;}
</style>
<path class="st0" d="M773.1,776.1h195.3c15.5,0,15.5,23.4,0,23.4H773.1C757.6,799.5,757.6,776.1,773.1,776.1z M1133.8,799.5
	L1133.8,799.5c6.6,0,11.8-5.2,11.8-11.7s-5.3-11.7-11.8-11.7s-11.7,5.2-11.7,11.7S1127.3,799.5,1133.8,799.5L1133.8,799.5z
	 M1097.1,799.5L1097.1,799.5c6.6,0,11.8-5.2,11.8-11.7s-5.3-11.7-11.8-11.7s-11.7,5.2-11.7,11.7S1090.6,799.5,1097.1,799.5
	L1097.1,799.5z M1060.3,799.5L1060.3,799.5c6.6,0,11.8-5.2,11.8-11.7s-5.3-11.7-11.8-11.7s-11.7,5.2-11.7,11.7
	S1053.8,799.5,1060.3,799.5L1060.3,799.5z M1197.7,32.3v414.4c0,17.8-14.5,32.3-32.3,32.3H741.6c-17.8,0-32.3-14.5-32.3-32.3V287.9
	H608.5v300.3h308.3c30.4,0,55.1,24.7,55.1,55.1V721h193.5c17.8,0,32.3,14.5,32.3,32.3v414.4c0,17.8-14.5,32.3-32.3,32.3l-423.8,0
	c-17.8,0-32.3-14.5-32.3-32.3V753.3c0-17.8,14.5-32.3,32.3-32.3h206.9v-77.6c0-17.4-14.2-31.6-31.6-31.6l-640,0
	c-17.4,0-31.6,14.2-31.6,31.6V721h213.3c17.8,0,32.3,14.5,32.3,32.3v414.4c0,17.8-14.5,32.3-32.3,32.3l-423.8,0
	c-17.8,0-32.3-14.5-32.3-32.3V753.3c0-17.8,14.5-32.3,32.3-32.3h187.1v-77.6c0-30.4,24.7-55.1,55-55.1h308.3l0-300.3h-94.4v158.7
	c0,17.8-14.5,32.3-32.3,32.3H34.7c-17.8,0-32.3-14.5-32.3-32.3V32.3C2.4,14.5,16.8,0,34.7,0h423.8c17.8,0,32.3,14.5,32.3,32.3v232.2
	h218.5V32.3c0-17.8,14.5-32.3,32.3-32.3h423.8C1183.3,0,1197.7,14.5,1197.7,32.3L1197.7,32.3z M25.7,110.2h441.6V32.3
	c0-4.9-4-8.9-8.9-8.9H34.6c-4.9,0-8.9,4-8.9,8.9L25.7,110.2z M179.7,313.2V202.3H77.1v110.9H179.7z M65.4,410.3h253.3
	c15.5,0,15.5-23.4,0-23.4H65.4C49.9,386.9,49.9,410.3,65.4,410.3z M266.1,350.9h161.5c15.5,0,15.5-23.4,0-23.4H266.1
	C250.6,327.4,250.6,350.9,266.1,350.9z M266.1,291.4h161.5c15.5,0,15.5-23.4,0-23.4H266.1C250.6,267.9,250.6,291.4,266.1,291.4z
	 M427.6,201.9H274c-15.5,0-15.5,23.4,0,23.4h153.6C443.1,225.3,443.1,201.9,427.6,201.9z M77.1,1027.3v89h338.7v-89H77.1z
	 M396,914.9H97c-26.2,0-26.2,39.8,0,39.8h299C422.3,954.6,422.3,914.9,396,914.9z M458.4,744.5H34.6c-4.9,0-8.9,4-8.9,8.9v77.9
	h441.6v-77.9C467.3,748.4,463.3,744.5,458.4,744.5L458.4,744.5z M1122.4,1025.8v-111h-338v111H1122.4z M772.7,1094.5h361.4
	c15.5,0,15.5-23.4,0-23.4H772.7C757.2,1071,757.2,1094.5,772.7,1094.5z M772.7,1139.8h292.5c15.5,0,15.5-23.4,0-23.4H772.7
	C757.2,1116.4,757.2,1139.8,772.7,1139.8z M1165.3,744.5H741.5c-4.9,0-8.9,4-8.9,8.9v77.9h441.6v-77.9
	C1174.2,748.4,1170.3,744.5,1165.3,744.5L1165.3,744.5z M732.7,110.2h441.6V32.3c0-4.9-4-8.9-8.9-8.9H741.5c-4.9,0-8.9,4-8.9,8.9
	L732.7,110.2z M794.7,225h140.2c18,0,18-27.3,0-27.3H794.7C776.7,197.7,776.6,225,794.7,225z M769.4,295h190.9
	c15.5,0,15.5-23.4,0-23.4H769.4C753.9,271.6,753.9,295,769.4,295z M769.4,355h190.9c15.5,0,15.5-23.4,0-23.4H769.4
	C753.9,331.5,753.9,355,769.4,355z M769.4,414.9h310.4c15.5,0,15.5-23.4,0-23.4H769.4C753.9,391.5,753.9,414.9,769.4,414.9z
	 M1125.8,316.9V197.7h-102.6v119.2H1125.8z M968.4,55.1H773.1c-15.5,0-15.5,23.4,0,23.4h195.3C983.9,78.6,983.9,55.1,968.4,55.1
	L968.4,55.1z M1133.7,55.1c-6.5,0-11.7,5.2-11.7,11.7s5.2,11.7,11.7,11.7h0.1c6.5,0,11.7-5.2,11.7-11.7
	C1145.5,60.3,1140.2,55.1,1133.7,55.1L1133.7,55.1z M1097,55.1c-6.5,0-11.7,5.2-11.7,11.7s5.2,11.7,11.7,11.7h0.1
	c6.5,0,11.7-5.2,11.7-11.7C1108.7,60.3,1103.5,55.1,1097,55.1L1097,55.1z M1060.3,55.1c-6.5,0-11.7,5.2-11.7,11.7
	s5.2,11.7,11.7,11.7h0.1c6.5,0,11.7-5.2,11.7-11.7C1072,60.3,1066.8,55.1,1060.3,55.1L1060.3,55.1z M261.4,55.1H66.2
	c-15.5,0-15.5,23.4,0,23.4h195.3C276.9,78.6,277,55.1,261.4,55.1z M426.8,55.1c-6.5,0-11.7,5.2-11.7,11.7s5.2,11.7,11.7,11.7h0.1
	c6.5,0,11.7-5.2,11.7-11.7C438.5,60.3,433.2,55.1,426.8,55.1L426.8,55.1z M390.1,55.1c-6.5,0-11.7,5.2-11.7,11.7s5.2,11.7,11.7,11.7
	h0.1c6.5,0,11.7-5.2,11.7-11.7C401.8,60.3,396.5,55.1,390.1,55.1L390.1,55.1z M353.3,55.1c-6.5,0-11.7,5.2-11.7,11.7
	s5.2,11.7,11.7,11.7h0.1c6.5,0,11.7-5.2,11.7-11.7C365.1,60.3,359.8,55.1,353.3,55.1L353.3,55.1z M66.1,799.6h195.3
	c15.5,0,15.5-23.4,0-23.4H66.1C50.6,776.1,50.6,799.6,66.1,799.6z M426.7,799.6L426.7,799.6c6.6,0,11.8-5.2,11.8-11.7
	s-5.3-11.7-11.8-11.7s-11.7,5.2-11.7,11.7S420.3,799.6,426.7,799.6L426.7,799.6z M390,799.6L390,799.6c6.6,0,11.8-5.2,11.8-11.7
	s-5.3-11.7-11.8-11.7s-11.7,5.2-11.7,11.7S383.6,799.6,390,799.6L390,799.6z M353.3,799.6L353.3,799.6c6.6,0,11.8-5.2,11.8-11.7
	s-5.3-11.7-11.8-11.7s-11.7,5.2-11.7,11.7S346.9,799.6,353.3,799.6L353.3,799.6z"/>
</svg>
